<mxfile host="app.diagrams.net" agent="Mozilla/5.0 (Windows NT 10.0; Win64; x64) AppleWebKit/537.36 (KHTML, like Gecko) Chrome/136.0.0.0 Safari/537.36 Edg/136.0.0.0" version="26.2.14">
  <diagram name="第 1 页" id="rMba4Dt4GF_kyxbDlgKo">
    <mxGraphModel dx="707" dy="435" grid="1" gridSize="10" guides="1" tooltips="1" connect="1" arrows="1" fold="1" page="1" pageScale="1" pageWidth="827" pageHeight="1169" math="1" shadow="0">
      <root>
        <mxCell id="0" />
        <mxCell id="1" parent="0" />
        <mxCell id="ZJt47STfajRIuBfbN5eY-4" value="" style="shape=image;verticalLabelPosition=bottom;labelBackgroundColor=default;verticalAlign=top;aspect=fixed;imageAspect=0;image=data:image/jpeg,/9j/4AAQSkZJRgABAQAAAQABAAD/2wBDAAEBAQEBAQEBAQEBAQEBAQIBAQEBAQIBAQECAgICAgICAgIDAwQDAwMDAwICAwQDAwQEBAQEAgMFBQQEBQQEBAT/2wBDAQEBAQEBAQIBAQIEAwIDBAQEBAQEBAQEBAQEBAQEBAQEBAQEBAQEBAQEBAQEBAQEBAQEBAQEBAQEBAQEBAQEBAT/wAARCAIgAjADASIAAhEBAxEB/8QAHwAAAQUBAQEBAQEAAAAAAAAAAAECAwQFBgcICQoL/8QAtRAAAgEDAwIEAwUFBAQAAAF9AQIDAAQRBRIhMUEGE1FhByJxFDKBkaEII0KxwRVS0fAkM2JyggkKFhcYGRolJicoKSo0NTY3ODk6Q0RFRkdISUpTVFVWV1hZWmNkZWZnaGlqc3R1dnd4eXqDhIWGh4iJipKTlJWWl5iZmqKjpKWmp6ipqrKztLW2t7i5usLDxMXGx8jJytLT1NXW19jZ2uHi4+Tl5ufo6erx8vP09fb3+Pn6/8QAHwEAAwEBAQEBAQEBAQAAAAAAAAECAwQFBgcICQoL/8QAtREAAgECBAQDBAcFBAQAAQJ3AAECAxEEBSExBhJBUQdhcRMiMoEIFEKRobHBCSMzUvAVYnLRChYkNOEl8RcYGRomJygpKjU2Nzg5OkNERUZHSElKU1RVVldYWVpjZGVmZ2hpanN0dXZ3eHl6goOEhYaHiImKkpOUlZaXmJmaoqOkpaanqKmqsrO0tba3uLm6wsPExcbHyMnK0tPU1dbX2Nna4uPk5ebn6Onq8vP09fb3+Pn6/9oADAMBAAIRAxEAPwD+2b9qr9pb4ZfsY/s8fFL9pv4ySa5H8Lfg14bTxJ4ufwvoy614iFqbm3sl+z2geNZX8y5hG0MoC554r+f4f8HgH/BH4AD+0P2meBj/AJIin/yxr70/4OFP+UMH/BQH/sjUP/p/0avwc/4Nmf8Agl7/AME8/wBrT/gmV4c+Lf7R/wCyR8H/AIyfE68+KvirSb7xn440F9V1m5trO/WO2hZ/MAxGuQuB0NAH3f8A8RgP/BH7/oIftM/+GRT/AOWNH/EYD/wR+/6CH7TP/hkU/wDljX6Of8OI/wDgj3/0jz/Zs/8ACLP/AMdpyf8ABCP/AII97h/xrz/Zs/8ACLP/AMdoA/OH/iMB/wCCP3/QQ/aZ/wDDIp/8saP+IwH/AII/f9BD9pke/wDwpFOP/KjX6Vr/AMEI/wDgj3gf8a8/2bOn/Qln/wCO0v8Aw4j/AOCPf/SPP9mz/wAIs/8Ax2gD80D/AMHgH/BH3/oL/tLD2/4UgnH/AJUKP+IwD/gj7/0GP2lv/DIJ/wDLCv0u/wCHEX/BHr/pHj+zX/4RR/8AjlH/AA4i/wCCPX/SPH9mv/wij/8AHKAPzR/4jAP+CPv/AEGP2lv/AAyCf/LCj/iMA/4I+/8AQY/aW/8ADIJ/8sK/S0/8EIv+CPWD/wAa8v2a+n/QlH/45VNv+CEf/BHvcf8AjXl+zZ/4RZ/+OUAfm9/xGAf8Eff+gx+0t/4ZBP8A5YUf8RgH/BH3/oMftLf+GQT/AOWFfo//AMOI/wDgj3/0jz/Zs/8ACLP/AMdpyf8ABCP/AII97h/xrz/Zs/8ACLP/AMdoA/N7/iMA/wCCPv8A0GP2lv8AwyCf/LCj/iMA/wCCPv8A0GP2lv8AwyCf/LCv0s/4cSf8Eetv/KPT9mv7v/QmH/47VR/+CEf/AAR73H/jXn+zZ/4RZ/8AjtAH5vf8RgH/AAR9/wCgx+0t/wCGQT/5YUf8RgH/AAR9/wCgx+0t/wCGQT/5YV+av/ByB/wTR/YH/ZT+GP7E+tfs6fsn/B/4Rat47/a10bwj4w1Dwb4dOnT+IdLkuLDzNOuDvO6OTzGBHoW9a/ow8M/8ENf+CRd/4a8N317/AME9/wBmw3t7o9leXhPglzuPkw5H36APz5/4jAP+CPv/AEGP2lv/AAyCf/LCj/iMA/4I+/8AQY/aW/8ADIJ/8sK/Sr/hxP8A8EejyP8Agnp+zbj/ALEph/7PR/w4n/4I9f8ASPT9m3/wij/8XQB+av8AxGAf8Eff+gx+0t/4ZBP/AJYUf8RgH/BH3/oMftLf+GQT/wCWFfpV/wAOJ/8Agj1/0j0/Zt/8Io//ABdH/Dif/gj1/wBI9P2bf/CKP/xdAH5q/wDEYB/wR9/6DH7S3/hkE/8AlhR/xGAf8Eff+gx+0t/4ZBP/AJYV+lX/AA4n/wCCPX/SPT9m3/wij/8AF0f8OJ/+CPX/AEj0/Zt/8Io//F0Afmr/AMRgH/BH3/oMftLf+GQT/wCWFH/EYB/wR9/6DH7S3/hkE/8AlhX6Vf8ADif/AII9f9I9P2bf/CKP/wAXR/w4n/4I9f8ASPT9m3/wij/8XQB+av8AxGAf8Eff+gx+0t/4ZBP/AJYUf8RgH/BH3/oMftLf+GQT/wCWFfpV/wAOJ/8Agj1/0j0/Zt/8Io//ABdH/Dif/gj1/wBI9P2bf/CKP/xdAH5q/wDEYB/wR9/6DH7S3/hkE/8AlhR/xGAf8Eff+gx+0t/4ZBP/AJYV+lX/AA4n/wCCPX/SPT9m3/wij/8AF0f8OJ/+CPX/AEj0/Zt/8Io//F0Afmr/AMRgH/BH3/oMftLf+GQT/wCWFH/EYB/wR9/6DH7S3/hkE/8AlhX5V+Gf+Ca/7C1z/wAHRvj79kef9lz4R3P7NVj+yIvjuw+DE3h5v+EIsNTOj6ROb+K0VwFlDyuwbPV261/T3/w4k/4I8j/nHl+zV/4SBP6ebQB+bH/EYB/wR9/6DH7S3/hkE/8AlhR/xGAf8Eff+gx+0t/4ZBP/AJYV+k5/4IS/8EeBx/w7y/ZpHt/wg5P/ALVpP+HE3/BHj/pHl+zT/wCEMf8A47QB+bP/ABGAf8Eff+gx+0t/4ZBP/lhR/wARgH/BH3/oMftLf+GQT/5YV+k3/Dib/gjx/wBI8v2af/CGP/x2j/hxN/wR4/6R5fs0/wDhDH/47QB+bP8AxGAf8Eff+gx+0t/4ZBP/AJYUf8RgH/BH3/oMftLf+GQT/wCWFfpN/wAOJv8Agjx/0jy/Zp/8IY//AB2j/hxN/wAEeP8ApHl+zT/4Qx/+O0Afmz/xGAf8Eff+gx+0t/4ZBP8A5YUf8RgH/BH3/oMftLf+GQT/AOWFfpN/w4m/4I8f9I8v2af/AAhj/wDHaP8AhxN/wR4/6R5fs0/+EMf/AI7QB+bP/EYB/wAEff8AoMftLf8AhkE/+WFH/EYB/wAEff8AoMftLf8AhkE/+WFfpN/w4m/4I8f9I8v2af8Awhj/APHaP+HE3/BHj/pHl+zT/wCEMf8A47QB+bP/ABGAf8Eff+gx+0t/4ZBP/lhR/wARgH/BH3/oMftLf+GQT/5YV+k//DiX/gjz/wBI8v2avX/kRj/8drzz4uf8EQ/+CSHhj4WfEnX9D/4J+/s22OqaH4B1rWbC5j8EYMNxa6ZdSwscy87WAOKAPhv/AIjAP+CPv/QY/aW/8Mgn/wAsKP8AiMA/4I+/9Bj9pb/wyCf/ACwr5L/4N2v+CYX/AATr/aq/4Jy6d8Sfj/8AsdfA74q/EKP49ePvDt34p8WeFFvdUezsfEE8Vhbb1df3cEW2KMdkRRk4zX7qf8OKP+CP3/SO79mf/wAIk/8Ax2gD83/+IwD/AII+/wDQY/aW/wDDIJ/8sKP+IwD/AII+/wDQY/aW/wDDIJ/8sK/R7/hxX/wR8/6R3/sz/wDhEn/47R/w4r/4I+f9I7/2Z/8AwiT/APHaAPzh/wCIwD/gj7/0GP2lv/DIJ/8ALCj/AIjAP+CPv/QY/aW/8Mgn/wAsK/SD/hxR/wAEfv8ApHd+zP8A+ESf/jtKv/BCn/gj8CP+Nd/7M49/+EJP/wAdoA/N7/iMA/4I+/8AQY/aW/8ADIJ/8sKP+IwD/gj7/wBBj9pb/wAMgn/ywr9Kx/wQp/4I+4H/ABrx/Zp6f9CR/wDbKX/hxT/wR9/6R5fs0/8AhEf/AGygD80/+IwD/gj7/wBBj9pb/wAMgn/ywo/4jAP+CPv/AEGP2lv/AAyCf/LCv0s/4cU/8Eff+keX7NP/AIRH/wBso/4cU/8ABH3/AKR5fs0/+ER/9soA/NP/AIjAP+CPv/QY/aW/8Mgn/wAsKP8AiMA/4I+/9Bj9pb/wyCf/ACwr9LP+HFP/AAR9/wCkeX7NP/hEf/bKP+HFP/BH3/pHl+zT/wCER/8AbKAPzT/4jAP+CPv/AEGP2lv/AAyCf/LCj/iMA/4I+/8AQY/aW/8ADIJ/8sK/Sz/hxT/wR9/6R5fs0/8AhEf/AGyv54f+Dnr/AIJf/wDBPn9k7/gl9qfxb/Zt/ZJ+DXwZ+JUHx68I+HYvGngbw0NK11bG9OpC7tRLvP7uXyotwxz5YoA+8v8AiMA/4I+/9Bj9pb/wyCf/ACwo/wCIwD/gj7/0GP2lv/DIJ/8ALCvtD4D/APBET/gkn4g+Cnwi1jXP2Af2c9R1TWvhloOsatqNz4OMl1qFzc6XayzzysZOWd2ZifU16z/w4m/4I8/9I9f2bv8AwjP/ALbQB+a3/EYB/wAEff8AoMftLf8AhkE/+WFH/EYB/wAEff8AoMftLf8AhkE/+WFfpV/w4l/4I8/9I9P2b/8AwjP/ALbR/wAOJf8Agj1/0j0/Zv8A/CMP/wAdoA/NX/iMA/4I+/8AQY/aW/8ADIJ/8sKP+IwD/gj7/wBBj9pb/wAMgn/ywr9Kv+HEv/BHr/pHp+zf/wCEYf8A47R/w4l/4I9f9I9P2b//AAjD/wDHaAPzV/4jAP8Agj7/ANBj9pb/AMMgn/ywo/4jAP8Agj7/ANBj9pb/AMMgn/ywr9Kv+HEv/BHr/pHp+zf/AOEYf/jtH/DiX/gj1/0j0/Zv/wDCMP8A8doA/NX/AIjAP+CPv/QY/aW/8Mgn/wAsKP8AiMA/4I+/9Bj9pb/wyCf/ACwr9Kv+HEv/AAR6/wCken7N/wD4Rh/+O0f8OJf+CPX/AEj0/Zv/APCMP/x2gD81f+IwD/gj7/0GP2lv/DIJ/wDLCj/iMA/4I+/9Bj9pb/wyCf8Aywr9Kv8AhxL/AMEev+ken7N//hGH/wCO0f8ADiX/AII9f9I9P2b/APwjD/8AHaAPzV/4jAP+CPv/AEGP2lv/AAyCf/LCvtj9gX/g4E/4J+/8FJfj2v7OH7Neo/GW4+JL+DdR8dLH45+Gi+FtDNhpbWy3R+1C6lxJ/pUW1SuDzyDgH1L/AIcS/wDBHr/pHp+zf/4Rh/8AjtfyXf8ABHr4VfD34G/8HX37aHwk+E/hHRPAPw18B6J8UfDngvwZ4btjZ6F4b0+C60LyLW1iLEpGg6LnAzxQB/U9/wAHCn/KGD/goD/2RqH/ANP+jV8A/wDBoMSf+CSGgAnhfjV4xwPTOpDNff3/AAcKf8oYP+CgP/ZGof8A0/6NXwP/AMGhMDRf8EjfD7t0f41+MMeoxqIoA/qNT7op1NT7op1ADtzDv+lG9vX9KbRQA7e3r+lNoooAKKKKAK9FFFADtxxjPGMdKbRRQB/JR/wdmSOnwc/4J+FSRj9tLRnH1FxphBr+rLwYzv4K8JMGyzeFrE5z1/0aCv5S/wDg7PGPgt+wFL2i/bO0diPX/SNMr+rDwC27wT4OY9/C1iefe1gxQB1qu3loctk9j1NOLsGHJwR60McAH3/OmOckH1FAE2T6n86Mn1P50lFAC5PqfzoyfU/nSUUAQZPqfzoyfU/nSUUAWcn1P50ZPqfzpKKAFyfU/nRk+p/OkooA/kF8I/8AK418TP8AZ/YGgI56E6Doma/rxXoPpX8h3hH/AJXGfid/2YLb/wDph0Sv68V6D6UAOyfU/nRk+p/OkooAXJ9T+dGT6n86SigBcn1P50ZPqfzpKKAFyfU/nRk+p/OkooAXJ9T+dGT6n86SigCeMnevP8Ga8h+PH/JD/jMe4+F3iPHt/wASi7r16P76/wC5XkPx54+BvxnJ4H/CrfEZ/D+yLugD+f3/AINSSG/4JeXXOQv7S3xBP0z4gmr+mEqMngdfSv5j/wDg08cH/gl/qwLZI/aU8dnHpnWZia/pwoAr0UUUAT4HoPyowPQflS0UAFFFFABRRRQAUUUUAFfy4f8AB39/yh61gev7SfgcD89Wr+o1/umv5cv+Dv3/AJQ96h7/ALSvgcH89WoA/ol/Z1UD4AfBD/sjPhY/no9pXsZAD47bT/IV49+zt/yQH4I/9kZ8Lf8ApntK9ib/AFn/AAE/yoAcigopI5x607Yvp+tJH9xfpT6AG7F9P1o2L6frTqKAG7F9P1o2L6frTqKAG7F9P1o2L6frTqKAG7F9P1o2L6frTqKAG7F9P1r+Af8A4Jqsf+IwP9vr6fFX/wBG6Ga/v6r+AT/gmr/yuB/t9fT4q/8AozQ6AP6ZP+DhT/lDB/wUB/7I1D/6f9Gr4S/4NEf+URPhn/stXjH/ANOIr7t/4OFP+UMH/BQH/sjUP/p/0avhH/g0RI/4dE+GeR/yWrxj3/6iIoA/qDT7op1NT7op1ABRRRQAUUUUAV6cn3hTacn3hQA2iiigAoopV6j60AfyJf8AB3HctafA/wDYGmLERL+2Fp7yKDjOyTTZAfw2N+df1efDlw/w98EyL0fwbpTjPP3rSA1/Jx/wd9MB8Av2DuQP+MtrY9e4SxxX9YHwx/5Jp4B/7EbR/wD0it6AO3ooooAKKKKACiiigAooooAKKKKACiiigD+Qrwawb/g8Y+J+P4P2BoEb2I0HQwa/r0XoPpX8enw3lEv/AAeLfGXnPlfsPywj226RonFf2FjgD6UALRRRQAUUUUAFFFFABRRRQAUUUUAKCQcivI/2hv8Ak3/44Hv/AMKh8Rtn3/se8r1uvHf2jbhIP2ffjkzAkL8GvE0zY7BNGuyf50Afztf8GmLE/wDBNTxYgOcftJeN+PTOoy4r+o5eg+lfyw/8GkEgl/4JweNmByp/aR8XsB6btRlNf1Op90UAOooooAKKKKACiiigAooooAr0UUUANf7pr+Xn/g78/wCUPV9/2cp4H/nq1f1DP901/Lz/AMHfn/KHq+/7OU8D/wA9WoA/oo/Z2/5IH8Df+yL+Fv8A0z2NewsTuX/eYf8AoVePfs7f8kD+Bn/ZF/C//pnsa9gb7yf7zf8As9ACL0H0paReg+lLQBYooooAKKKKACiiigAooooAK/gE/wCCav8AyuB/t9fT4q/+jNDr+/uv4BP+Cav/ACuB/t9fT4q/+jNDoA/pk/4OFP8AlDB/wUB/7I1D/wCn/Rq+BP8Ag0Rdv+HRPhnn/mtXjHt/1ERX33/wcKf8oYP+CgP/AGRqH/0/6NXwF/waI/8AKInwz/2Wrxj/AOnEUAf1Ix/cX6U+mR/cX6U+gAooooAKKKKAK9OT7wptOT7woAbRRRQAUUUUAfx9f8HfjkfAP9g4Zx/xltb449Esa/rN+F//ACTP4fn18C6Nj3/0G3r+Rj/g8Tmki/Z//YRMblT/AMNTNIMHHKQWBU/gTX9b/wAJWLfCn4XMTkv8PdEZj6k6fbUAegUUrdT9aSgAooooAKKKKACiiigAooooAKKKKAP42vg9IZP+Dxb455Odv7HF5GPw0jQ+K/slr+Mz4Iyb/wDg8W+OuDnb+yNqMZ/DSdD4r+zOgAooooAKKKKACiiigAooooAKKKKAGv8AdNeI/tM/8m4ftBHuvwR8WYPp/wASDUDXtz/dNeI/tNDH7N/7QZPQfBDxYSfT/in9QoA/nD/4NDG3f8E2/HnOSP2lfEufbNw5r+rSv5PP+DP9t3/BOj4kc5H/AA0r4gI/Eua/rDoAKKKKACiiigAooooAKKKKAK9FFFADX+6a/l5/4O/P+UPV9/2cp4H/AJ6tX9Qz/dNfy8/8Hfn/ACh6vv8As5TwP/PVqAP6KP2dv+TfvgZ/2Rfwv/6ZrGvYD9xP95v5PXj/AOzt/wAm/fAz/si/hf8A9M1jXsP8Mf8Avt/J6AGr0H0paan3RTqALFFFFABRRRQAUUUUAFFFFABX8An/AATV/wCVwP8Ab6+nxV/9GaHX9/dfwCf8E1f+VwP9vr6fFX/0ZodAH9Mn/Bwp/wAoYP8AgoD/ANkah/8AT/o1fAX/AAaI/wDKInwz/wBlq8Y/+nEV9+/8HCn/AChg/wCCgP8A2RqH/wBP+jV8Bf8ABoj/AMoifDP/AGWrxj/6cRQB/UTH9xfpT6ZH9xfpT6ACiiigAooooAKKKKACiiigAooo60Afxl/8Hk8zJ8A/2DYVJDT/ALS94VI6Ara6Zg/rX9d/wez/AMKi+FGTk/8ACuNCyfX/AIl1tX8hP/B5SQPgZ+wHk/8ANzF/+lppVf17/B//AJJH8KP+yc6H/wCm62oA9FbqfrSUrdT9aSgAooooAKKKKACiiigAooooAKK8x+K3xq+EPwL8M3PjL4zfE3wL8LvDFra3N4+s+OvFFn4as50tIWuLgQGeRTM6RqW8qEO54wpJAOt8NfiV4D+MXgLwn8Ufhh4p0rxt8PvHOiw+IvCPizQ5jcaTr1lcLuhuIHIBKsPUA+oFAH8enwEYt/weK/tB5Odv7K2rqPoNK0PFf2h1/nJftw/Ff9ur4Pf8HKv7U3iv/gnT8Hofjb+0pdfAs+HdG8LzWcGprpOnXenaSt9q32OaaKOf7OUhXy2bB88ZFff/AIf/AGEv+Dq/9sHXbXX/AI9ft4+Gf2RPC2t2nm3WjeBtXCpYAgFYZdB06GNVf5iOLg9OT0NAH9uGxuTtPBweK+Of2jP+Cg37E37I96+l/tJftNfCn4R6xHbR3kmheJfEKv4gijlXfE72EAkuFDqQy7kG5WBGQQa+i/hvoPinwr8PPAXhnxrrv/CU+MfDng3TNC8ReJ7SJ4rTxHfWllBb3d+UcllNxLHLLhiSPM61+Tf7aP8AwQQ/4Jz/ALfX7Q+q/tO/tJ/D7x14p+KGteHdM8MajLpfxL1Pw9oUttpEJt7QLZwMFBEeAxB5xQBxnjH/AIOTP+COHhR7WC1/a30DxncXt0tnDD4L8OajqjozukatJ5kUexcuCWPRVY44r9vNC1nTvEuh6L4j0W4+16R4h0m21vSboIU+0213BHcQSbTyNySIcH1r8dPBP/Bvb/wR98FabaaXF+xF8KPFMdof3dz46trjxXeSdBl5JZMseO9fsnYaVp2iaXp2iaLZWul6RpFhDpWlabYxC3s9OtreJIYIIY14VI0RUVRwAoFAH80X7cP/AAdHfsXfsS/Hv4qfs3698KvjL48+JXwh8SS+FfFEGlW1poekPdxIjsILmUvuT5xh9vrxXyv8If8Ag8Y/ZU+L3xQ+Hnwq079lT4z6TrXxH8faL8P9Hu7rxfpdxZW9zrWpW+nRyykQDCRm4EhH8QQjI61/VxqfwC+BOvavf+IPEvwY+E/iHX9UnNzqWua58PdK1nWL+TABknuZbZpJGwANzsTxSWX7Pn7PWl3lrqem/Av4OafqOn3Md9Y39j8MNGtL2ymiYPFNFKtqGR0ZQyupBBAIINAHq8ckc0ccsUiSxSoJIpY2DxyKwyrKw4IIIII9a/nF+Nf/AAdP/wDBKv4B/F74h/BPx1qvx/l8Y/DLxVd+D/Ec3h74RJq2gvd2chjl+zXX29PMTI4baK/o5Mqg45Pvtb/Cvkj4n/sH/sY/GlL5Pil+y/8AA7xsdTuZLzUJ9b+Hdk95ezS/6yWWdEWR3bHLMxJoA/MT4Jf8HMH/AASV+O/ifwr4N8NfGvxX4c8TeM/E1l4Q8PaN448AXWh3uoX+o3CWtpEixvKDvlkRM543V++iOkqJJG6yRyKHjkRg6OpGQQRwQRzkV+XPhv8A4Iq/8EpPB/i7QfH3hb9hT9n3w/4y8L63a+I/D3iDSvCBtb7SL6ymW4t7mIiTG9JERgSD90V+o4GAAAAAMADoKAOM8OfEj4d+MdX1/wAP+EfHvgvxTr3hS8fTvFOieHPFNjrmr+GriNgskGoW0MrSW8isygpMqsCQCK4H9qgY/Zf/AGkCOCPgJ4tIP/cvajX8uf7SP/Bp54b+Ivjf4rfFz4I/8FAv2jfhZ8Tfin4nu/GGppq1z9o8MXN9dOZHe7a0lhuZcEgAs4OFHNeG/DP/AIJRf8FyP2LfEwtfFf8AwUKf49/sQeEfhr4xvfif4UuvG154cj1G2PhHWYo7MaRerPLKfOa2c5nQYjB3HFAH17/waBWMtv8A8E2PHN3IQUvv2kfEgjGOR5TujZ/Gv6u6/mH/AODS3STpv/BKK2vpAnmXn7QfjqaYoQ28watPAeRwfu8H0FeqfCP/AIOhf+CUfxC8f+Jfhl45+J/i34C+J/CmuX2galffFjwfPp3g+eexu5bNkttSgMpdneIkAxLwRzQB/RJRXl/wt+Nnwg+N+hL4o+D3xN8B/E7w6yI51fwL4ssfFFrCJF3IJjbyuYmI/gl2uMHKivUKACiiigAooooAr0UUUAFFFFADX+6a/l5/4O/P+UPV9/2cp4H/AJ6tX9Qz/dNfy8/8Hfn/ACh6vv8As5TwP/PVqAP6KP2dv+TfvgZ/2Rfwv/6ZrGvYf4Y/99v5PXj37O3/ACb98DP+yL+F/wD0zWNew/wx/wC+38noAYn3RTqan3RTqACiiigApyfeFNpyfeFAE1FFFABRRRQAV/AJ/wAE1f8AlcD/AG+vp8Vf/Rmh1/f3X8An/BNX/lcD/b6+nxV/9GaHQB/TJ/wcKf8AKGD/AIKA/wDZGof/AE/6NXwF/wAGiP8AyiJ8M/8AZavGP/pxFffv/Bwp/wAoYP8AgoD/ANkah/8AT/o1fAX/AAaI/wDKInwz/wBlq8Y/+nEUAf1Ex/cX6U+mR/cX6U+gAooooAKKKKACiiigAooooAKfH99frTKKAP4t/wDg8zJHwK/YB5I/4yV1X/0i0vFf2A/Bvn4QfCX/ALJtoX/putq/j8/4PNSP+FG/sAgHn/hpHVf/AEh0qv7A/g3/AMkf+Ev/AGTbQf8A0221AHpDdT9aSlbqfrSUAFFFFABRRRQAVFcXEFrBNdXU0VtbW0TXFxcXEghggjQFnd3JAVVAJJJwADXg37U/xZ8bfAj9nj4vfGD4c/C7UvjT43+Hngi98U+Hfhbo+oDS9V8ZTWkRkNtBKUf5lUNKUA3OsTKnzFQf4jJ/gh/wcHf8F7Nbs9b+NXiXVP8Agnr+xhrN3FrGl+EY4b3wde6np5mcxGLS0lXUb6cRy3KCbUHi2M20oUOaAP7ofhj8bfhD8aoPEt18IviV4K+JVp4O8QSeFfFF54J8Q23iOz0TUYhue0nlgdkEgBDYycgggkV+ZX/BYLwn/wAFXvH3w2+FPgj/AIJYeLvAngTxJ4n8Sanp/wAafFvjC+ttI1HQ9LEFnJpU+k3rwySW86zpdZkhAO3AOQRjuP8AglZ/wSa+BP8AwSh+EXiL4efBzxd8QfGus/EbU4PE3xO8UeNtaFynifVYIFt0vIbBFWG2IjXYTEAZMbnycY/U4Z+XHUSq36Ef1oA/iy+EH/BqL49+NPidfiX/AMFSf27vin+0Trmpaqmuav4D8I6zqNppd5JLDm6hutQu2aTzEb5UmsI0XGcDvX9cf7OP7P8A8Ov2WfgV8Lv2d/hFZalpvwy+D/hG28EeCbDWNTm1jVLTT7QEQxz3Uv7yVgGPzNya90JDMpxgg8c0j/eNAH8Vn7O5J/4PEv2hif8Ao1rWR+VnoQr+0mv4tP2dSP8AiMR/aI9v2W9aB/8AATQq/tLoAs5I6Ej8arUUUAFGaKKAFyT1JP40lFFACFQTkj9aTYvp+tOooAbtUdv1p1FFACFQ3UZx614N+1CMfsx/tFe3wH8Vk9+nhvUK96rwP9q1in7LH7TLqcGP9nzxm6n0K+HNRwaAPwZ/4NNsP/wSR0dAQd3x5+IA/PXbiv0N/aq/4Ir/APBNL9teHVbn43/sv+Bj4n1d1M/j3wLYp4C8eRqpZgI9StFRlLM7F2Ayx6n1/N//AINInZ/+CS+gbiTn45eN2OfU63Pmv6dAoXoMUAfzV/sJf8G3Pws/4J5/tzeG/wBpv4G/tGfFLV/g3peh6+lz8BPGNxI1rZalf+Qml3EV7BKi3SW8ZvFf7ZE7sXjIcYwf28/bJ/an8DfsS/szfGD9qH4kabrGq+Dfg/4Rl8Vatpmhx79R1AJLDbwW0TEEK8stxEgYggbjwelfTQYjoTWPr+g6L4q0i+0DxJpGleINC1SIW+p6LrmnRatpGoxhgwSe2kBjkXcqnDgjKg0AfkD+w7/wXx/4Jrft5i10f4ZfG/TvAnxFuYk2/DL4wmL4feJriQgLItpJcSC2nQSERqySB5D92Ov2cUhlDDoQCPxr+cT9t7/g2P8A+CcX7WE+peMPhr4R1X9kz4uXLteW/jn4JTDStIluSfMM13o5/wBHkZ3CEyABlAbbjNfUX/BHD9gL9rn/AIJ//DP4i/C79qP9sHxB+1RpUHiCGw+C8N/cXkml+BfD0EKiOALdPJKJ5JAzON7AAgZPGAD9mqK8K+Kf7TfwC+B3iT4deEvjH8VvBvwz1/4uapd6H8NLTxlqq6JB4vvLGOCW7tra5kAhWRFuYDtkdS3mDbuwce4wyxzxRzQyJLFKgkjkjcSRyKwyCrDggjoRQA1hgnt6U2pXGRn0qKgAooooAa/3TX8vP/B35/yh6vv+zlPA/wDPVq/qGf7pr+Xj/g78I/4c9X/I/wCTlPA/f/sLUAf0U/s7f8m/fAz/ALIv4X/9M1jXsP8ADH/vt/J68e/Z2/5N++Bn/ZF/C/8A6ZrGvYf4Y/8Afb+T0AMT7op1NT7op1ABRRRQAU5PvCm05PvCgCaiiigAooooAK/gE/4Jq/8AK4H+319Pir/6M0Ov7+6/gE/4Jq/8rgf7fX0+Kv8A6M0OgD+mT/g4U/5Qwf8ABQH/ALI1D/6f9Gr4C/4NEf8AlET4Z/7LV4x/9OIr79/4OFP+UMH/AAUB/wCyNQ/+n/Rq/K//AINVP2if2efhf/wSi8HeFfiR8dfg18PfEsvxg8X376D40+J+h+F9cihk1AeVLJZ3N1HMqyclWZQGAyMgg0Af1uR/cX6U+vnBf2x/2PFUL/w1j+zacDGf+F4eGP8A5Opf+GyP2PP+jsP2bf8Aw+Hhj/5OoA+jqK+cf+GyP2PP+jsP2bf/AA+Hhj/5Oo/4bI/Y8/6Ow/Zt/wDD4eGP/k6gD6Oor5x/4bI/Y8/6Ow/Zt/8AD4eGP/k6j/hsj9jz/o7D9m3/AMPh4Y/+TqAPo6ivnH/hsj9jz/o7D9m3/wAPh4Y/+TqP+GyP2PP+jsP2bf8Aw+Hhj/5OoA+jqK+cf+GyP2PP+jsP2bf/AA+Hhj/5Oo/4bI/Y8/6Ow/Zt/wDD4eGP/k6gD6OpV6j6184f8Nkfsef9HYfs2/8Ah8PDH/ydR/w2R+x5/wBHYfs2/wDh8PDH/wAnUAfyb/8AB5kzH4M/sAL2/wCGktV/9IdLr+w/4N/8kf8AhL/2TbQf/TbbV/E//wAHfvx5+B/xR+Ev7AmlfCz4v/C/4mX2n/tDavqOsxeAPH2k+MJNEtxZaSizXi2lxK0Mbsdqu4AJBAOa/rI+D/7Z/wCyFb/Cj4Y2V1+1R+zfbXunfD/RLK+tp/jf4bSS3mj0218yMj7XnKk4OQDkHIFAH3A3U/Wkr5mP7af7HpJP/DV/7NPJ/wCi5+G//kuk/wCG0/2Pf+jr/wBmn/w+fhv/AOS6APpqivmX/htP9j3/AKOv/Zp/8Pn4b/8Akukb9tT9j0An/hq79mk49fjn4bH/ALd0Acr+2j+3t+yv/wAE/fhbdfFv9qT4qaN8P/DqERaTpG4al4y8VzEkLb6TpSHzrhyQQSNqL/E61/M1+yj/AMFaf+Csv/BWD9uf4T/ED9i/9neP4Of8E8/hz4qmj+Iuq/FQi0sviZppJinkutSPMt2qZe2trFPLWSNg8oYMT9Tftbf8E5P+CS/7c/7f+k/tq/tI/tr/AAc8deEtL8CWHh6X9nu4+PGgv4B1DU9Nbyo7qcfbz/o8kKx+dBHtEsgJbqNv7a+D/wBqL/gn58LfCmjeCvh9+0R+yp4J8G+H7RbDRPDPhj4p+GNH0bTIkAUJDbx3Soowq5wMkjLFic0AfZTNI8eAELsu24jzvhLEYdQD1HUfSoIvKRQEMUGBjbEgjH5AV8tj9uf9iwdP2sv2cx9PjP4d/wDkymn9uX9is8n9rD9nEn1Pxm8Of/JlAH1YJYwPlYtUyOOOn0r5P/4bm/YsHT9rL9nMf91n8Of/ACZTk/bn/Yt3D/jLL9nP/wAPP4d/+TKAPraivlZf25/2LcD/AIyy/Zz6f9Fn8O//ACZS/wDDc/7Fv/R2X7Of/h5/Dv8A8mUAfylfs6Mf+Iw39pM/3f2X9bx/4B6BX9qtfwqfs6/Hf4GRf8HY/wC0b8W7v4z/AApsfhnefs26zpun/EG9+IOk2ngXUJ3sdE/cw6s9wtu75ikARWJO3PcZ/tR+HXx6+CXxeutTsvhT8X/hb8TbvRYI7nWLX4efEDSvGtxpMczMsUl1HaTyNErlHCs4AJRsdDQB61RXz1rP7XH7Kfh7VNQ0LXv2mv2fdC1zSbprHVdG174x+H9H1PTJkxvhuIZLoPHIuRlGAIzXp/gn4mfDb4laPP4j+HnxE8CePvDdtIbe58QeB/F1h4t0e2mQZkikubWR4lKgjgtnnkDuAdtRXzrdfthfsiWVzc2d3+1R+znbXdnM1td21x8avDcNxayIdrxyIbzKspGCrYI9K9h0zxz4J1vwmPHmjeMPC2r+Bm0uTW18Z6Z4gtL7wo1lFG0st4NRSQ2/kIis7S79iqpJIAoA6rB9D+VJXzf/AMNi/sg5z/w1Z+zf/wCH48LY/wDS2vWPFPxN+G/gbwxa+NvG3xB8EeDvBl6bdbPxd4p8WWHh/wAMXZuk8y1EWoTypA5mUFo9rneBlcigDuKK+fLD9rb9lPVb6y0vS/2mv2fNS1LUruOw07TrD4z+G7y+v55nWOGGGFLwu8juyqqKCWLAAEmvQviB8W/hR8JrOwv/AIq/E/4e/DKx1ad7XSL34heM9N8GWeqSxhTJFby3c0ayModCVTcQHGRyKAPQaK8M8KftP/s0+Ote07wr4K/aJ+BHjHxRrExt9I8NeE/i7oHiHxBqrqjSMltZw3TSysER3KopO1GPatLx7+0J8Bvhdqp0H4kfGz4ReANdW3S8bRPG/wASdH8KausUoJilNtc3CSBHw21iuDg4NAHsNfOn7Ykjw/shftUSodrp+zt40ZW7gjw5qVdj8O/jz8Ffi5c6lZ/C34ufC/4lXWjQR3Or2/w98f6X40uNJjmZlikuo7SaRolco4VnABKN6GvnL9uL48fAzwz+z1+038OPFXxw+DPg/wAc6l+zx4u0+18IeL/ijovhrxRJLqHhu+WxK6fPcLORKXQxnaPM3grkEEgH4u/8Gh98l5/wSV0WJQd9n8cPGMcxJ+8ZNUaYfpIK/qJr+O3/AINN/wBo34BfCn/gmhq/gn4m/HP4O/D/AMTad8dvEcq6J45+JmkeEtSmiluE2TCG6njcI5DbTg525r+nwftn/sfDiT9rL9mGN+6n4++Fzj/ycoA+lqK+af8AhtD9jv8A6O1/Zh/8P54W/wDk2j/htD9jv/o7X9mH/wAP54W/+TaAPpagADOO5yfc180/8Nofsd/9Ha/sw/8Ah/PC3/ybR/w2h+x3/wBHa/sw/wDh/PC3/wAm0AfBX/BVz/giv+zj/wAFYvDvhuf4q+J/H/gD4p/DrSZtP+FnxG8G63IIvCLyzNcu8ukOwtrjfIU3M2HCoArKQpH80OmfHr/gux/wb3eNfDPwx+OHhzXP+CgP7DUmpro3g/xTpdvdeJNS0u2kmitLWG11FVkvdKlzIiJZ3RkhY3GQ2SEH9qf/AA2h+x3/ANHa/sw/+H88Lf8AybVa/wD2wf2K9WtJNP1b9qX9lTVLCYqZbPUPjn4TvLaQo6uhKPeFSVZVYZHBUEcigD3vwH4mm8a+B/B3jC50S/8ADdx4r8LWHiObw9qpU6nobX1rFctaXG3jzIjLsbgcqeB0HSsNrEc8c818v6r+3D+x5p2m6jqUX7T3wA1iSwsZr6PStE+M/he+1bVGijaQW9pF9vUSTSFdkaZG5mUZGc1/Od+xp/wdWfs+fE/9pn4l/s1/tkeAf+GVr2y+Jtz4T+Ffj251yLxP4PvLY3UttZWniC6gLx2tw2yM/aYpJbZjcDDKoLAA/rQpcH0P5V80H9tL9jZQC37Wv7NK5UOoPxz8LhiGAKkj7dkcHoaqN+27+xmpIP7W37NH/h8/DH/ydQB9PScow9q/lv8A+Dvtj/w581AZ4H7Sfgjt/wBhav33h/bY/YznYqv7Wv7NGQM8/HTwvz/5PV/NH/wdi/tEfs9fE3/gk5qPhn4Z/Hn4NfEbxKf2iPBt/wD8I94F+JuieLNc8iL+1PNn+yWtzJL5ab13Ptwu4ZIzQB/Uv+zp/wAm+fAv/si3hb/0y2NexHhU+pP55H9a+D/gJ+2H+yTpvwJ+Cen3v7U37OFne2fwe8M2l7ZX/wAb/Ddne2csejWQeOWI3e5WUjBVsEHtXrB/bQ/ZBwAP2rv2ZOPX48+Gv/kugD6WUEAA0tfM3/DaH7IP/R137Mn/AIfnw1/8lUf8Nofsg/8AR137Mn/h+fDX/wAlUAfTNFfM3/DaH7IP/R137Mn/AIfnw1/8lUf8Nofsg/8AR137Mn/h+fDX/wAlUAfTNFfM3/DaH7IP/R137Mn/AIfnw1/8lUf8Nofsg/8AR137Mn/h+fDX/wAlUAfUNFfMX/Daf7IP/R1v7Mn/AIfrw1/8lUf8Np/sg/8AR1v7Mn/h+vDX/wAlUAfTtFfMX/Daf7IP/R1v7Mn/AIfrw1/8lUf8Np/sg/8AR1v7Mn/h+vDX/wAlUAfTtfwCf8E1f+VwP9vr6fFX/wBGaHX9r3/Daf7IP/R1v7Mn/h+vDX/yVX8Q/wDwSz8SeHvF/wDwdz/tzeJ/CmvaL4n8N63ZfFPUNG8QeHdUg1vQ9XgeTQ9k1rdws0UsbdnRiD60Af0/f8HCn/KGD/goD/2RqH/0/wCjV/LV/wAG+f8AwQY/4J3/APBRL/gn1o/7Qv7TPgf4i6x8Sr/4keIfC82o+Efipqng/T7i10+/eC1/0OAiJWVQVJAJbgk9h/Ur/wAHCn/KGD/goD/2RqH/ANP+jV8Bf8GiPP8AwSL8L/8AZcfFw/D+1j/jQB0//EJJ/wAEa/8AonHxx/8AD+a1R/xCSf8ABGv/AKJv8cf/AA/mtV/TM3U/WkoA/ma/4hJP+CNf/RN/jj/4fzWqP+IST/gjX/0Tf44/+H81qv6ZaKAP5mv+IST/AII1/wDRN/jj/wCH81qj/iEk/wCCNf8A0Tf44/8Ah/Nar+mWigD+Zr/iEk/4I1/9E3+OP/h/Nao/4hJP+CNf/RN/jj/4fzWq/plooA/ma/4hJP8AgjX/ANE3+OJ9j8fNaoP/AAaTf8Eas8/C344H3/4X3rRzX9MtP8xx/EaAP5lx/wAGk3/BGrPHws+N+cfxfHvWsU7/AIhJf+CNn/RLPjF0/i+Pms5/Gv6Zi7ngsaZQB/m5f8HD3/BEr9gX/gnD8Nf2SvEv7M3g7x94f1/4w/Ho+AfFcniX4l3/AIwt7nTkjsZGSKOcYjfM74deee9f0HeDf+DUz/gjr4j8I+EtZ1X4RfFQXWreGNN1O6Nn8b9es4pZ7ixt55n2LJtGWkbgYHSvlb/g8SRj8Iv+Cdpx/wA3WTjP1t9Kr+u34Zg/8K2+G/8A2Jekbuf+oXaUAfz2L/wab/8ABGNcZ+EPxUOOx+N2tH/2pVTXf+DWL/giJ4S0PU/Efif4Z+PPD/h/RLN9R1fXNd+PuraZpOmQRjdJNcXEkypGijksxAFf0ca1q2jaBZ3Gq67qmm6LpdvLHFPqWrX8em2ELTSpBCrzSMqAySSRxqCfmeRVGSQK4j4yfBf4fftDfCL4kfBL4paGniL4f/E3wvceE/FWjtO9s13aXSMj+XKhDI6na6MOjIpwelAH+XJ+0n+xt+xb+3N+2JafsKf8EOP2afFniWDw/rX2f4j/ALUnjHx7q3iDwfBbW07JeXVuk5EUOmwswCzzZmuWQeWvAI/rl/Y7/wCDVH/gnN8HPgH4b8GftIeBI/2h/jTIG1Lxl8SdRv7rRbE3MyRBrPT7OKQbLWEowj3sXO9iTzgfsx/wT0/4Jsfsu/8ABNL4PD4Sfs3eEG02LUbx9U8WeM9bdNR8a+MrlpJGR7+92hmWFZPLiiGEjUHAyzFvvdlwcHnvQB+Ah/4Nkv8Agjiev7LijPXb401Nfy/eVwesf8Gqf/BGnVpnmPwL8fWKyNu+zaV8YdZ061Q/7Ko4I/PtX9G1FAH81v8AxCc/8EZv+iMfFMe4+OviDP8A6Nob/g04/wCCM7DH/CpPi8uey/HTxBgf+Ra/pSooA/mgb/g0s/4I0Mc/8Ko+L4/7rp4g/wDjtN/4hKv+CM//AESj4v8A/h9PEH/x2v6Ysn1P50ZPqfzoA/me/wCISz/gjT/0Sn4wf+H08Qf/AB2j/iEs/wCCNP8A0Sn4wf8Ah9PEH/x2v6Ycn1P50ZPqfzoA/wA6/wAFf8ERf+Cf8P8AwcUePf8AgnjdfDrxbrH7MGg/sqWnxQ03w1q3xE1G48QW2sS6dpt00n9pKVlaNpJ5iUY8Zxzkkf2P/sH/APBI79h3/gmvqvj3xR+yb8NNY8GeIfihplnoHjHVdZ8Y6h4puNRs7CW4uLaFVnkKIFkndsqu48DOOux4f/bO/ZF13/gpH4y/YlsPCmq2v7Y/hX4TW/xC17xifh/py202gTWtnOluPEozdNiO6gAtyNvyHpgZ/Rk9cdgeKAPwi+LP/BuJ/wAEofjV8RPGvxV+IHwF1XVfHHxE8S3fi/xXqsXjrULIX19eytLcSJGjAIpYnCjpX6E/sbfsD/szfsF/CbVfgj+zX4JufB3w31vWbrXtU0S61mfWZry5vEWOZnuJSXIKggDjGc19p0UAfgLe/wDBsp/wR71bV9V13V/2b9Q1DUta1KfVtQnm8eaiqTTXMrzSsFDcZZzwOK/VX4bfsa/AL4R/ssQfsZeAfCk+h/s/2/gO++HC+E11Sa5u20zUop4buM3jEyb3W4kw3bjivqWigD+dw/8ABrZ/wRzH/NBfFP8A4c7Wf/iq/Tr9qH/gnZ+y9+13+y94W/Y++M/hHV9V+B3hC70S+0Pw/o3iS60LUbWTw9byQaYTexnzWCiQ7wx+c9ea+6aMA9RmgD+e3wR/wbC/8Ehvh9428E/ETwz8FPHll4s8AeKLDxl4evm+LutTQRX+m3kF7aSSw+YFkVZbdCUYcjPSv0L/AG+/+CZ37Jv/AAUt8N/Dzwn+1h4M1rxjofwu1++8S+DYND8UXfhefT7vUII7a5d5ICC4McUQCtwCma/QekIB6igD8SP2U/8Ag3t/4JgfsbfG/wABftEfA/4ReLdK+Knw11CfVPCWta/8RtS8SWmnT3NvJayS/ZpW2MwjlcKT93P4V3P7a/8AwQw/4J3f8FA/jQPj5+0v8NfFfif4j/8ACMWPhGTVNE8eXvhu3ms9PR47dXgi+UsFfG7rxX6/0UAfmJ+wX/wSB/Yb/wCCaniL4h+LP2Sfh94i8G698UdFsvDvjC71/wAbX3itLyz0+a4uLaOJJ2KxkSXDsWAycAZHfxP9tn/ggJ/wTh/4KC/tAaz+0z+0t4E+JHiD4q6/4e0zwxqd74b+KupeFtEktdItha2YSyh+RWEYAZgfmIya/aeigD/Oi/4ID/8ABDn/AIJ8/wDBQf4fftkar+0V4I8ea3q/wP8A2qNU+EnhGXw/8R7/AMMJa6TBGJoFmEPMkgRSDIxyS2cV/QAP+DSX/gjCBg/DH4yZ7/8AF+Nc/wDiq/T/AP4J0ftyfse/tr6J8f8AUP2QPC974Y0n4N/GK4+GHxOju/hxafDlNR8RxQiS6njigdvtI2gD7S4DNgde36LUAfzV/wDEJL/wRg/6Jj8ZP/D8a3/8VR/xCS/8EYP+iY/GT/w/Gt//ABVf0qUUAfzV/wDEJL/wRh/6Jh8ZP/D8a5/8VS/8Qkn/AARi/wCiYfGX/wAPvrn/AMVX9KqgEgGrWxdnT+H19qAP5n/+ISX/AIIw/wDRMPjJ/wCH41z/AOKo/wCISX/gjB/0TH4yf+H41v8A+Kr+lZgASBTaAP5rl/4NKf8AgjGhUr8M/jMCpBXHx61wYx/wKvJ/jt/waD/8EvvGfw28WaV8Eo/i38JfijeWO/wn47vviVfeOdO0e8iVvKNzpt1mOaFzgSAENgZBBFf1U0oYr0JH0oA/z1/+CQX/AAbqfFfwv+1V8c/gF/wUa/Y1+H3xD+AHhXSP7a8P/H+61aW3vdQv8eTpUHhueGT/AEm2uowZJ4bkfuMd6/pBuf8Ag2b/AOCO12u2X9k20gPd7PxZe2zH/vl8flX70BmByCfzr8Uf+CwP/BYiy/4JNJ+zv4h8T/s//EX4n/D/AOKfj46H8QPiHokZt/CfgLSoghuY45wSsmquHWW3t5giukMiqzF28sA8dm/4Nbf+CNl1I8j/ALO/iCAMciO2+I2pQIv4Bq/Bz/g4u/4Ii/8ABPD/AIJ+f8E57z49fsx/CTVfB/xJ/wCF3+FvB7a7qXjG98QeXp+oDUvtcMcUp2AyeTHlsZ+QYr+5L9nz9oP4RftS/CDwT8dvgV440f4h/C/4g6PHrXhrxJotwJoZUcfPBOn3obiFsxywSAPG6srDiv51v+DwL/lD9ff9nKeCf/QdWoAs/CH/AINZP+CPnj/4P/Crxx4h+D/xKfXvGHwy0DxNrU1n8YtXsbeW7vtJtLm4dIlO1A0krkKOma7B/wDg0r/4IzMxI+FHxfA9F+O2sqPy3V++n7ORA/Zw+AWCOPgn4Vxz/wBQKwr1oqCckfrQB/NPP/waTf8ABGp0xH8L/jFCQc7l+O2ssf8A0Ksk/wDBo/8A8Ees8eBfjeB2A+Oeq4H/AI/X9NwUA5A/Wp9i+n60Afy+P/waMf8ABIQklfBvxtUHoD8atUYj8d1ZF5/waFf8ElZx/oujfG6xOcjHxavZwB6c1/U3tUdh+PNGB6D8qAP5Uj/wZ/8A/BKQg4i+N4PqPifdn+tVT/wZ6f8ABK0nIvvjyB6f8LDlOK/q3wPQflTwxHAP6UAfyif8Qef/AASu/wCgh8eR7/8ACwpeKX/iDz/4JZf9BX4+D2/4WE/Ff1dbmPf9KbQB/KP/AMQef/BLL/oLfHz/AMOE9H/EHn/wSy/6C3x8/wDDhPX9XFFAH8o//EHn/wAEsv8AoLfHz/w4T1+KP/BDz9nrwL+yh/wdCftSfs5fDCPU4fh58G/B/wATPAvg+PWtQbVNWWxtH0MQfaLggGR8MMsRya/0Zq/gU/4Jt/8AK4H+30ff4qf+jvD4oA/pc/4OFP8AlDB/wUB/7I1D/wCn/Rq+Av8Ag0Q/5RF+F/8AsuXi7/07V9+/8HCn/KGD/goD/wBkah/9P+jV8Bf8GiH/ACiL8L/9ly8Xf+nagD+o1up+tJSt1P1pKACiiigAooooAKKKKACiiigApRwQfQ0lFAH8dn/B4Ci3Pwh/4J2AAH/jLdk9zlNKWv6tYvHfgf4QfATTviL8TfFWieCPAfgD4a2Ov+LfFviO+TTNE0GytNLt2nuLiZzhVULgAZLMQqgsQD/Kr/wdxbJvh3/wTT08jLX/AO2ZHCPTBOkKQf8AvsflX6vf8FZ/+CZfxJ/4KlfscfBr4A+Bv2iNX+BWk6X4k0XxH8RNOtrRrzRfiPpEdvbpcWl0iFXM9sFaW2DN5JkdvNRxtwAfzR/tEftQ/tdf8HPP7YsX7JX7F194s+Cn/BNj4DeL7bxD8UPjQUm0mfxS9lPut9ZviCPMupGQtpmkruMQInl5yK/vE+E3gCP4V/DXwN8OIPEXiXxZB4H8K2PhWHxL4x1I6v4p1xLG3S3W5v7ogGSZwgLMRz714R+xN+xN8AP2BfgB4O/Z1/Z18HWvhbwP4WtVkvL2SNZPEfjTUWUC61nWbrG64u7hgWLMcICFUAAAfXNABRRRQAUUUUAFFFFABRRRQAUUUUAfzneAf2Q/2ktK/wCDkn43/thX3wn1+2/Zt1/9kjSPAWj/ABblltx4f1DWIdM06KaxiUOZi4e2dT8gHSv6Mfr171+PXg7/AIKV/ELxF/wWc+K//BMqX4eeC4fh58Pf2fNL+Mdj8Q4b2+bx3qd3f2VrdPaSwM4tkhT7QcHYGIA+bqT+wpOSTgjPOD1FABRRRQAUUUUAFFFFABRRRQAUUUUAFFFFAH8z/wDwbb/sfftN/sieCP8AgoJp37Svwe8TfCG++Kf7aWp/ELwDa+JpLWSTxNo81mEjv7YwSyKYicAFiDn+EV/SxX4r/wDBGP8A4KhfEr/gpx4X/az134kfDLwR8NJ/2d/2kb/4J6Db+C9Qvr9PEFnaxGRL28+0u+2Y4CHyyFJVvlHFftRQBYooooAKKKKACiiigAooooAK8U/aI/Z3+Dv7Vnwd8b/Ab48+CNI+IPwx+IGkSaR4g8PavAsikMp8u5tpMbobmFiJIp48OjqCD1B9rooA/gJ+GfgP9vb/AINm/wBvzwl8KPh74c+IP7Wf/BNj9r34mQeHPBvhbQ7eXV/EGlahfTrHGsEChhaa3ZRsDKwAt76CLcxVgGX9V/8Ag7yu5L3/AII7SXL2d1Yi6/aI8C3Ztb2MQ3lqZE1VvKmTna65wwycHIr+o6+0fS9Vl0+XUtPsb6XS7xdQ02W7sobyTT7hQQk8BkVvLkXJw64YZODX8wP/AAeC8/8ABIPUT6/tK+Cf/QdVoA/of/Zydv8AhnD4Bc/80T8K9v8AqBWFezr0H0r5u/Y+8a+FPiJ+yh+zp4s8EeINI8U+GNT+CvhldP1zQ71b6wujFo1lFKocdCjoykdiK+k1RsDjt60AJViq9WKACiiigAooooAKKKKACiiigAr+BT/gm3/yuB/t9fX4qf8Ao/w/X99dfwKf8E2/+VwP9vr6/FT/ANH+H6AP6XP+DhT/AJQwf8FAf+yNQ/8Ap/0avgP/AINEQf8Ah0X4X4/5rl4v/TVq+/P+DhT/AJQwf8FAf+yNQ/8Ap/0avgz/AINEwP8Ah0V4Y4/5rj4z/TVjQB/UG3U/Wkpz/fb/AHj/ADptABRRRQAUUUUAFFFFABRRRQAUUV+SX/BbT9ov9rD9mb9gH4q+Of2Mvhd4o+JXxq1cweDbC68J6O3iDU/h7ZamxtrvXksly8rwB1RNiOUedXwNu4AH8nP/AAdO/wDBRz4W/tD/ALSP7KP7E37M+uT658YP2avj3D4g8UfEe08ubwZoviXVpbCz0/R7ds7p5rOaCCS4kH7tWcxjJUk/34fC8eIk+G/gBPE+pLq3igeD9MHiTVIwES5u/skP2hwOwaTefxr/ADQP2uP+CTs3/BOr9k7/AIJ3/Ff46XNv4y/bL/a1/ba0Pxj8UPFFwZbq98JW32nSr+HQo7iTDySh7svcysBulZ/lAAA/04PC+R4T8NA5BGg2YIPX/Ux0AdCDkZzuz39aWmp90U6gAooooAKK/nF/4Kqf8Fu/EXwA+PPgP/gnf/wT+8H+Hfj9+398V9dh8NDTr6+S58EfB5rpJ3jk1ZkJSS8jjia5e1dgIYonMqkjYO18Hf8ABKz/AIKG+NdEuPFn7Q//AAWf/a78L/F3xPA2oa/4Z/Z7i0XwZ8IfCF1Oqs0Oi2MtvJIIozlMSO4O3IxmgD+gbBPQE0lfx+fsyf8ABYf9pT/gn5/wUi1L/glP/wAFVfHmh/FXS9Y1PT9K/Z//AGttM0YaZrOsQawiHw9D4njjRUne+MkSSXIzJDcyursQcr/YGOcEdCMj3oAKKKKACiiigD8jvCH/AATT8TeG/wDgsV8UP+Cn1x8V9GvPCvj/APZ/074N2vwoXw9OPEGnXFjbWlq14+ombyTEwtiwUR7uQP8Aar9cjySfU1/NL4C/aM+ON5/wc7/G/wDZtuPir42m+A2kfsWaR4w0/wCFEutO3gq11STTtNne9Wz+75u6SVtx7uTX9LAORkd6AFooooAKKKKACiv5x/8AgqZ/wW+1z4CfHvwL/wAE7f2AfAmjftCf8FAvivq8Ph6HSNQvUbwR8ITdxM8U2qshKy3Ucebl7ZyBDFA/mqWIjrqdB/4JR/8ABSr4iaFH4z+Ov/Ba39rDwZ8X9fX+0Ne8Nfs46LofhH4L+GpZAGNnpWm3MUkgjjJZCxb5tuRigD+g8kDk0V/IF+yD/wAFhv2nP2Iv+Cj2r/8ABJT/AIKseLND+J0+q6hp2i/Aj9q7SNIj0TVddGpwCXRP+EmjQhZft0ZiUXIzJFMwRsqyqv8AXvHIOF3I6sokt5Y2DRzxnlWUjjpigCaiiigAooooA/HH/gjz/wAEtPEX/BMjwv8AtWaP4j+LGgfFOf8AaM/aPv8A44afc6B4ZuvDcfhu1u7dIo7CdZ5nMkqt5jGRNqkEYFfsORgkelfzJf8ABsl+058ev2lvAH/BQ+9+Ovxb8cfFi5+H/wC21qvhLwVceN9YbV5vDOmfZvNFjZkgCOEOS4QDqx9q/puf7xoAmooooAKKKq31/Y6VY3mp6peWmnabptrJf6jqF/cpZ2NjBChkmmmmchUjRFZmdiAoUkkAUAWQQehpa/lf8T/8FgP2tP8AgpP+2D44/Ys/4Iz2PgLRfAXwdmjb47ftz/E3RF8UeEPDwSW5gkh0PR5CFuRcSxGG3c/vH8mWQFFwK9L+P37Bf/BX/wDZt+E/jH9o79mr/gq18Zfj78dPA3hu88Y6r8EPjt4M0TW/g14vit7cXWoabo2nRQb4JSkUwtwxZiwVRlmAAB/SrRX4Y/8ABEj/AILQeBv+Crnwm17S/EXhtPhf+1P8G7a3sfjd8MGLrYs7kwJrGkiQCT7LPLHKrQvl4HUoxIKk/udQAUUUUAKvUfWv5bv+DwT/AJRBah/2cp4J/wDQdVr+pCv5cv8Ag8B/5Q+ah/2cr4J/lq1AH5Jf8ELP20fjN/wSS/a00/8A4JS/t0arqSfCH4+W2keNP2aPHlz5knhLRr3xBaRXln9imlI2WOpC4RH2lvLuo8EAuQv+gAFAA4HT0r83/h9+xf8As0fH/wCHX7Bvxr+MPwp8NeO/iT+z98H/AA/rXwp8Ra9ZJeyeG7u80PTS83lsCspjaLfF5gbymkdlwxBH6RUAV6KKKACiiigAooooAKKKKACiiigAr+BT/gm3/wArgf7fX1+Kn/o/w/X99dfwKf8ABNv/AJXA/wBvr6/FT/0f4foA/pc/4OFP+UMH/BQH/sjUP/p/0avgz/g0UI/4dFeGP+y4+NB/5VTX3n/wcKf8oYP+CgP/AGRqH/0/6NXwH/waJk/8OjPDH/ZcvGf/AKcs0Af1Gv8Afb/eP86bRRQAUUUUAFFFFABRRRQAUUUoJUgjqDmgDx347/tAfBf9mL4bax8X/j98RvDXwr+Gmg3FvZ6r4v8AFV21rpltNdzLBbQjarO8kjsFVI1ZjycYBI9B8KeK/DHjvw1oXjLwZr+keKvCfifS4db8O+I9Bv49U0bWrS4QSQXFtcRkpJG6sCGUkc1/DX/wXA+LnxI/4K8/8FQvgb/wRT/Z01u5T4U/DLxZF4r/AGnvEelTk6db3sBSXVprxCRkaLbMIo0O9ftVxuA2k1/bD8EPg74F/Z7+EHw2+CHwz0Wy8PeAvhZ4OsfBXhbR9Ptxa2lpa2MCwptjBIUuVZ2AP3nagD+Vj/g7PydH/wCCU57/APDb9ufx8/Qq/ri0JAPD+iInQaRbBfwjSv5Kv+Dr5UntP+CTdiVzJeft12UaHqADdaCpBHvvH5V/W7oSeXpOmRt/Bp8SHPThFFAF9RgAUtFFABXxx/wUI/aeX9jH9if9pj9p37LLd3Pwg+FOpeJNIjjhE4TUpEWx0t3Q8Mi3d3bM6HqivyK+x6/MX/gtD8GvGv7QP/BK39uH4SfDuxbU/Gnin4I3txoenLG8r37aXcWusTQoEBJd4bCZUGPmcqO9AH8e/wDwaG/BXVv2mP21v2u/+CgXxst5/GnjHwrpcmj6D4x1S4N4r+JPFE4vNYlMT5HmrZpAIpFw8aSOoOCa/wBECQJNhigHGAPSv4dP+DJzxx4Wt/gZ+258HZrsQfEzTPjJo/jvUPDc6mLULfSZNIh0qOd1IyAt1bXKEH+JDxxX9v8Aqup6boWm6lrOsX9npekaPYzanqmp39wlpYadbW8bSzzzSsQqRxojOzsQFVSScCgD/Nb/AODyjxx4a/4eE/sz2Xg7UIbP4geAf2fIr3xTd6aBBqmk6jNq8+oaVM0g+bzBCLZkJ6BRiv8ARh+A9xcXnwN+C93eTSXN3dfCTw7c3VxK26WeR9HtWd2PcsxJJ9TX+ctonwU8V/8ABwj/AMHBvj744eBtAvG/ZC+CXxK0iDxf8Tv7K+zaBeeHPBcscWj2BEgaOW91VrVEMC7swM8hKgqT/pbWlraafZWthYW8VrY2VtHZWVrAmyG2hiQRxogHAVVVQBQBJRRRQAUUUUAfnpof7Jv7FNh/wUR8Yftdadq+ht+3BrnwltvAPiHS/wDhZEV3rlp4bhtoIopf+EY87fCrQQQ5ufL+ZeQeTX6F/Tkdj61/LD8ILM6n/wAHWv7V2sC03WmmfsPeF9PunxnZ5mmadFj9MV/U6Og+lAC0UUUAFfGX/BRH9p//AIYu/Yg/aa/aijtpLu9+D3wuvfEGjQpCtyBqU7R6fpcjxMCrol3eWruhGGVGBxnNfZtfkf8A8F3vhT40+M3/AASU/bZ8EfD7SrzX/Fcnwp/t7TtC0+MSXeqJpeo2V/dquWUfJbW9zLjnPldKAP5Pf+DP74Fa5+0X+1t+2N/wUM+L9rL4r8S6Ch8LeHfGOpXbXUy+JPEtw2p66xhfdgi0+xLG7E+WkzKuK/0Oo2Kj+H3AORX8PX/Bkx4v8MJ+zp+2t8ORq0B8cWvxt0jxhc+HnQx6hb6VJoVtYxXjLzhHuIZoxk5zCevOP7aPEfiTQfBvhvXfFvijVLTQ/DXhjR7nxB4g1m/k8qy0qzs4XuLm4mbskccbse+FoA/zGP8Ag7P+JOn6R/wV6+G9z8OZb2z+Jvw1+FvhTV9Su7GIS3UOqvcpqmiS27cFpAi2pA/hYAc1/pZfBW+v9W+Dfwl1TxA8kuvaj8NNBv8AU5bgEXElxNpVpJOz/wC0XZyfev8AN4+BPwi8d/8ABfz/AIOAvHn7SujaNr97+yV8F/jBYeI9d8ey6eNN0628PeEZ0HhrSftB3RvdXpsoWES7mNvvZlQNmv8ATQgt0iVAEVdihURVCpEAMBVHYDA/KgBx6n60lFFABRRRQB+fH/BPX9lT9h39lPQvjlov7EetaBrOj/ED4u3XjT4utofxOi+JpsvFE6E3ME8sc0i2jqjj/RjtK85Hp+hTIckjnJzX8hn/AAaT7v8AhXX/AAU4xn/k/wD1TP8A4ALX9fLdT9aAK1FFFACgZIHqcV/KN/wdrft9eIv2V/2F/C/7Pnw61mfSfHP7Wfiafwr4j1PS72OHVtD8LadEJ9RATHmL9ukaKFZUZSPs8qnIYiv6ulxuGRkZ5Ff58X/B7d8LPGz+Ov2KvjSXlPw7XwprnwvnSOJ2ht9VS9GqpK5BwCbe42jgZweT0oA/ff8A4Ne/2QfC37Mn/BKn4OeOrWwtG8d/tPpJ8cfGOvJbCC9vLe/d49Hs5O4FraRxR4GAWDNgZwP6KmCsrK4DIykMrDKsD1BFfn9/wSn1zwn4k/4JwfsW634GltZPCd9+z54ffRvsShLYKtoqybQOnzhs+4qP/gqZ+2H4K/YY/YT/AGhfj74x19dAutL+H+oeGfAbRSAanqHiTVrSay0WG0jIO+RbiVZyv9y3egD+A3/g2j8ReJtJ/wCC+Xxi0Xw2txLpOr6N8Uodd0+OYx2bQW+swGCaVBgN5TgBc9PONf6eAZ2Hz4/Cv4MP+DQT/gn549bxb8Zf+CnXxg0PUNKPjTT7v4e/BK41S3ksbzxSmo3X2zxHr8St9+0uHWCGJiFDNA7Izqcj+8nJ9T+dAE9FFFABX8uX/B4D/wAoe9Q/7OV8E/y1av6ja/ly/wCDwH/lD3qH/Zyvgn+WrUAf0LfstMB+zL+zqcj/AJIr4ZHXsNDssV/ND/wcu+H/ANtz9nTW/wBlf/gpz+y58VPHd14B/ZQ8bR6j8VfgsfEVwngGwErCIa5Lp0ZHmxXUDSWF1kERhopANzAj+lD9lh2f9mT9nYqcj/hS3hn0/wCgHZ16l8R/hr4M+MXw78ZfCz4iaLbeIvA/j7w9c+FvFOiXahoNRsryFopoz6Haxww5UgEcigD5t/YJ/bQ+Ff7f/wCyz8L/ANp34SarDf6H440aNNe04RPbXnhXWoERdU0u5hb5kkt5iy9SGUqQxBr7Fr+dH/giB/wSK/aP/wCCVfxT/bC8P6/8ZNG8RfsofEXxwdQ+BHwxs9+oatZRwy4g1u9nbC288tqUt5LaMHLW4dnJIr+i6gAooooAKKKKACiiigAooooAK/gU/wCCbXP/AAeB/t9Y55+Kn/o7QK/vrr+BP/gmic/8HgX7fZPP/JVf/R3h+gD+l3/g4U/5Qwf8FAf+yNQ/+n/Rq+Av+DRL/lEZ4X/7Ll4z/wDTjX37/wAHCn/KGD/goD/2RqH/ANP+jV8Bf8GiX/KIzwv/ANly8Z/+nGgD+oyiiigAooooAKKKKACiiigArL1yxvNU0TWNM07VrjQdQ1HSrixsNctII7m70aaaF44ruKN/kd4WZZFV/lJQA8VqV+SHwU/4LB/Af47/APBSr46/8E1/A/g3xtqXjP4GeGjqurfFewEWoeAb7ULaSGLVdJmUKr2slq86KkrM6zssgQfIaAPGv+CSn/BFHwt/wTM+L/7WHxx1/wCKtx8fPij+0P41a70X4g+INHNl4m0LQGY3clneFndDeTXk91JLPblVeNokK4Sv3Uo6daa/3TQB/Iv/AMHWYJv/APgkTgdP28NOHHveeHf8K/resvl0+xxxizj9/wCEV/Jd/wAHU4Bv/wDgkTkZ/wCM/NJH53nh6v61LfiytR/07J/IUAWF6D6UtIvQfSloAKQgMCrAMrDDKw3Kw9CKWigD+fH4zf8ABBrwz4Z/ad1r9uD/AIJy/H/xX+w1+0xr0VxJ4m07RNLi8V/Av4hT3UgluDrvh18F4ZGUO9vC6K0rNJlWJynir/glt/wUd/a68OXvw0/4KDf8FO5vEHwZvXiTW/hx+yR8G7X4CwfEazdwL7S/EV80stxJayoiACBkYFnOcHFf0H0UAfMf7Kf7H/7O/wCxH8J9G+Cf7Mvw18O/DH4eaS8k8mn6PGsl/q91Jy99qVyR5l1cOSSXkJPP0r6bAYDBffjodu39KjWJFOQO+R9aloAKKKKACiiigD4C8Gftu/so+I/+CgXxO/Ye8O+HNWsf2rfAfw0sPiD4112XwDbWOl6ho9xGj2kS6+H8+dljlQiF1wFPHANfftfzifBr9mX48aT/AMHIH7U37TmpfDTxDa/AzxD+yx4b8K6H8TbiKNfDesaimm2cc1lbyhizyRGN9wC8ba/o7oAKKKKACop4ILqCa2uYYri2uImguLeeMSwTo4KsjqeCpBIIPXNS0UAfzc+Nv+Dfe0+Cf7Tevftnf8Esv2lde/Yf+N/iea6k8TeB77w0nxE/Z88ULfTvNcxXvh9njcwgvujtlfykddwAJNdl4r/4JU/8FGP2wtFvPht/wUX/AOCmjeKPgbLNFJqfw3/ZF+Elv+z8PiRAzj7Zp3iS/E0s8lq8aIEEDIymSUkkHFf0KUUAfPP7L37KP7P/AOxp8J9G+C/7N/w08N/DfwDo5DnStCsUtrrVLk8yXt9cY8y4mc5LSSknnggcV9Es5OR37+9MAx09MfhRQAUUUUAFFFFAH52f8E6/27P2QP24ND+Ol7+yF4c1Hw3pPwY+L1x8N/idBffDi0+HUV74iji33E8MUJIuQVjANy4DMFX8P0br+Zv/AINr/wBkD9pL9kfwJ+3/AGn7Rvwk8T/Ce9+KX7ZepePfAVr4nW2WXxJo8luyR39v5MsgMbFlxuIPPSv6ZKAK9FFFABXyH+3F+xH8Bf8AgoN+zv4y/Zs/aH8MJr3gvxTELrTdVtdsPiTwTqkKv9h1nSbgg+Vc27tuGco6lkcFWIr68o60AfzBfsyfsO/8Fkf+CUPw7f8AZ8/Y88afs0/tufs82+rz3vgLw3+0drusfCrxj8JbCWQyvAuo2YkS7Ev3Rbp5cUflfKMNgdP40/4I4ftU/wDBSj4mfDf4of8ABX/4/eGdZ+Gnw41IeLvCP7Ef7OljcaH8ItKv5Z/Mmg1/WJpGn1YBYoYxOFSRot0ZIBOf6VwSOhoJJOcmgDmPCHgnwp8PPCvh/wADeB9D0rwt4R8K6VDofh7w5oVhHp2kaPaW0axQwQQoAqqiqoAUAcVvVYooAKKKKACv5cv+DwH/AJQ96h/2cr4J/lq1f1G1/Ll/weA/8oe9Q/7OV8E/y1agD+gX9kP5v2Wf2dWbnPwX8NYJ/wCwHZj+lfRIJHQ186fsg/8AJp37Nx7n4K+Gs/8AgptBX0W3U/WgDn/Gniuw8C+DPFvjjVLTVtQ0vwb4Zv8AxVqVhoGnPrGu3sGnWst5NDZWifPPcOkLLHCvzO7Ko5NfnH/wTD/4Kxfs6f8ABVPwX8WPFnwL07xZ4Vvvg/8AEObwL4o8G/EC3h0vxdHEV8yw1M2auZI4blA4KuP3UkUkZYspx+ngJB/mPWv4EPGthcf8ECv+DiPRPG+hQXXh79h7/goPN/Z+s20BaPwp4fk12+HngrGEgVtJ1Z2eFJpGIguppH4PAB/fi4wc9jTKg02/tNY0+01GxlW4tL23W5tpozuWRHXcrAj1BqwRgkelACUUUUAFFFFABRRRQAV/An/wTR/5XAf2+/8Auqv/AKO8P1/fZX8Cf/BNH/lcB/b7/wC6q/8Ao7w/QB/S7/wcKf8AKGD/AIKA/wDZGof/AE/6NXwF/wAGiPP/AASL8Mkfw/HLxnn8dR4r79/4OFP+UMH/AAUB/wCyNQ/+n/Rq+Av+DQc7v+CReiZ/h+OPi3H46ic0Af1GUU+T/WN9abg+h/KgBKKbuUd/0p1ABRS4PofypKACiiigD4t/4KH/ALVukfsQ/sYftDftQatLbrJ8Lfhxe6j4ctJnjMupa1cbLbSIY4nZRL/pMkUjxqdxjikIBwcfz0/8Gl37JviTw/8As4fGz/goF8Wba4n+K37Z/wARb3UdN1HU1kOpt4fsryedHLvnzIrq8uLm5jkBwU8sY+QE/wBG/wC2l+xb8CP2+PgXrX7PP7Rnh++8SfDbWtTttcnstN1a40W+tr6yLNZ3UU8LqwaJnYgHIOeRXsPwT+Dnw+/Z6+EXw6+B/wAKdBtfC/w4+FnhO08GeDtAs1CW+mWNnGI4o1H4EknkliTmgD1AnJJPU8mmv900pYA4J/So3kTafmFAH8lX/B1Kpa//AOCRQH/R/mkf+lnh6v60YOLO1/69k/kK/k4/4OmQGv8A/gkTnn/jPvSCP/Avw7X9ZMX/AB62/wD1wT+QoAmXoPpS0i9B9KWgAooooAKKKKACiiigAooooAKKKKAPyH+Fv/BSLx746/4K1ftFf8E5tS+HPhDT/BHwY+Deh/FHRviBpmpXk3i/WZtZijlktbi3dvJCp9owpjUHKHJwa/XEnJJ5GTnB6ivyS+Gf/BN/xX4B/wCCt37Q/wDwUhvfih4dvfC3xn+CuhfC3S/hXFoc8HifRLjSY4I3vLi+MpgeOTymKqibhkZ9a/WreDyTg/nQBaopnmJ/eFPHPTnNABRS4PofyppYDqaAFooooAKKKKACiiigAopu9emefSnAg8igD8Vv+CLn/BTrx/8A8FL/AA1+15rHjr4aeDvhuv7Ov7TF/wDBLw/D4S1K81FvEFraWyyfbbwzswWVmGMR4XGeOMn9rWbsPxPrX4vf8EZv+CXPjT/gmJ4Y/az0Lxr8VvC3xSuf2iv2kL7436VL4W0G60OHwzaXcJijsbjz5GMsqnJLqFXjjPb9naACiiigAooooAKKKKACiiigAooooAK/ly/4PAf+UPeof9nK+Cf5atX9Rtfy5f8AB4D/AMoe9Q/7OV8E/wAtWoA/oC/ZBI/4ZN/Zt5H/ACRXw13/AOoTaV9GN1P1r5m/ZBZh+yb+zbk4/wCLK+Gu3/UJta+mcH0P5UAJX5+f8FBf+CaH7Lv/AAUw8EfD3wF+054Z1TXdI+GvjdfG/hu50DV5dA1q3m8ryp7ZbyIiRIZ9sPmBSNwhA4zkfoHRQBheFfDOmeE/DOieFNKini0zwvo9to+nRtcu5jgtrdYYlyTzhUUH1rZRw2MAjPTJzX8/37Vv/BY7xx+yn/wWK/Zm/YH+Jfwp0jwp+zj8efCUS6R8b9Y1NY73xBrmqK0VmYgWKRWtnd272Tpt3yzXaYJGAv7/APKnkYI45FAE1FFFABRRR0oAKKZ5if3hR5if3hQA+v4E/wDgmj/yuA/t9/8AdVf/AEd4fr++revr+lfwK/8ABNDn/g8B/b6/7qr/AOjvD9AH9Lv/AAcKf8oYP+CgP/ZGof8A0/6NX59f8GitxFp3/BIvw6bma3hS4+N/i9g9xN5CjZqK9ODnO/8ASv0F/wCDhT/lDB/wUB/7I1D/AOn/AEav5N/+CCP/AAQp+EX/AAUB/YJ0f9oDxp+0l+0p8LtbufiX4g8MT+FvhT4+k8P+GYYrC8WGKSOBX2h3+dnOMk0Af6Jy6npcoLJf2DA8greqarHVdNBIOqWagcYN6mBX8tX/ABCi/s2jOf23f25we4/4WzJz+TUjf8Gov7NGfm/bU/bibPJJ+LNzk/8AkWgD+pc61o68tq+kAgd72PP86b/wkmiDj+2NH6dPtkI/XfX8tB/4NQ/2Xj1/bM/bgf1B+K1zz/5Epn/EKF+y2wyn7ZX7bsB9P+Fq3A3f+RKAP6mD4k0Mc/2xoo46nVYQPy31VPi/wxnnxN4bB9DrFpn/ANGV/L5af8GoX7KIJ+2ftbfts3hHRz8YZ4wffiStYf8ABqR+xyR/pX7Tn7at3xgA/Gy9XH/j9AH9Nn/CYeF/+hm8N/8Ag4tP/jlH/CYeF/8AoZvDf/g4tP8A45X8yf8AxClfsX9v2i/20gO3/F7bv/4uvjb/AIKFf8EBf2If2GP2Mf2gf2o9S+P37Y2qSfCjwDc6poekXPx71C3OqapclbHS41Hm4cLdXNvI6cZSN88A0Afof/wS5/4LGfF/9v79v39vT4Gw6T8MX/ZQ/Z28VTW3w4+KIin8OeLNSibUJrGx05lP7iUsbO6eR2xIqshDHNf0Pf8ACXeG+/ifw3jv/wATSH/4uv4FP+CDX/Bvf8E/2xP2CvD37T/x/wDHn7QPgLxT8X/Guranoul/Dv4g3vgezvNGs7h7SwuJlgZTcCcrJcLK5OfMIAHJr9oB/wAGrf7DgIJ+OP7YTEHOP+F9ayuf/I9AH9Jn/CX+Ev8AoaPDmcf9BWL+r0N4w8IkEDxT4d5/6i1r/wDHK/m/H/BrN+w0oA/4XJ+2Ecd/+GhtZGfw8+j/AIhZv2Gf+ixftg/+JDax/wDH6APn/wD4OjfEXh6/vf8Agko1nruj3KWP7e2kT3ssOqWzw2UX2zw+DNMwkwka45c8DIr+qmw+Jnw4vbrS9Fs/H/gm81S/iVbTT7XxZp9xf3BH/POATeY/PHyA1/ny/wDBeX/gi5+zB+w5o/7Ct/8ADXxn8efFEnxj/ap074aeKYviN8Vb7xfDa6dcS6ekrWImd/Inb7RjzVAPA9K/ps/ZI/4N5/2EP2W/jd8LP2nPhtrH7Qj/ABB+G2p/8JN4atfFHxq1jxB4eW4kt5oMXFlI/lTR+XcH5HUrkA9qAP268SfEX4eeDLi2svF3j/wT4WvLuH7RaWniTxVY6DdXUW5lMkcc8isygqwyBjKkZ4rP8OfFj4Z+MdRuNK8IeP8AwR4sv7WE3FzZ+F/F2neIr23jBwZJILeZ5EXPG5gB71+dP7ff/BG/9jv/AIKSeP8AwH8Q/wBpVfivd6x8OfCsvhDw7D4A+JuoeALL7LNeS30hnS2IEjmSVsOeQuB2rmv2G/8AgiF+w/8A8E8/i/qnxu/Zzs/i7aeNdY8J3Pg29bx18WNT8d6U1ndPFJJttrliquDEMOMHk0Afp5r3xc+E3hTUZNG8V/FP4c+F9ZhRZJ9H8ReN9M0bVIFb7pe3mmV1BwcEjnFX/CfxE8A+Pftx8EeNfCXjBdNdI9Qbwv4js/EAsWdQyrP5Ej+Wx5ID4yORnnH5F/tbf8ECv+CeH7a3xv8AFP7Qnxx8O/Ga9+I3jCG2g1q48LfHHXvCmiMtrEIYvKsIJRDH8o52jk819F/sA/8ABLH9lD/gmrafEKz/AGZdN+IVlH8TL22vPEsnj34i6j4+mP2SMRwpA10x8tQBk7epJ9aAPse++O3wN0vUr/RtW+NHwn0rV9KumsdT0vUfiJo9lqOnTIcPDPA9wHjde6OAR3Fdlo3i/wAKeJdDHiXw14l8P+IfD7eaw17RNZt9W0PbA2JT9rhd4zt4yAeM1+EPxd/4NpP+CYHxr+KXj34weMvDfx1Xxj8R/E914t8SNovx81/SdIN3eSGWf7PapKFiQsSQg6Zr9Jf2Z/8Agn/+z7+yf+yfq37GXwmi8dwfBnW7HxDYX6+IPHV7r/jAJ4mWRNSMOrykzxttlcRMpzEcFSCKAPoU/Hj4GguG+MvwqXaxX5viHo6NxwchrgYIORg88V2r+LvCUXh5fF83inw5B4SNsL3/AISmfW7aHw6IScLL9tL+SUJ4Dh9vvX88B/4NWv8Agk4SSdB/aOJJJJP7Sfick55P/LWv1l1L/gn5+zxqn7Dg/wCCes9r46T9nVfhzb/CxbODx3fR+OP7JtbiC6iU67u+0+d5ltHmbO4jcO9AH0GPj78BDyPjl8HyPUfErRf/AJJrtPEXjLwf4Q0q213xX4s8M+GdDvJ4ra01rxBr1ro2k3Uk6s8McdzM6xs0iqzKqsSwUkA4r+dv/iFT/wCCUP8A0B/2lP8AxJXxH/8AF1+sv7XP/BPn9n/9tX9nPwl+yx8ZovGx+EvhDVdD1fT7Xwl4zvPDHiWSXw/bm108PqkTefgIfnOcuckk0AfSun/Gz4M6tf2WlaV8W/hjqeqalcC007TdP8e6Ve39/KwJWKGFJy7uQDhVBJweK3vFfxC8CeBIbK48ceM/Cfg6DU5Wt9Mm8VeJbDw5DqEiAF0ha5mjDsoZSQm4jcOORX4ofAH/AINzP+Cbn7Nnxr+HXx9+Guk/HtfH/wALvESeKfCj+Jfj7rviXQ0u40eNDc2UzGOaPEjZjbg8elfWf/BRf/gll+zv/wAFOvDXwp8J/tEan8Q7HSfhDrmpeIvDf/CvPFtx4PvJ7nUrW3tJTcTRHLqq2yFVOeSaAPyz8Cft1+ND/wAHFnx1+B+v/tYWMf7IOhfsmaN4p8OeCdS+IulW/wAJ11u706xee8hmMoj+07hN0fqK/fz/AIah/Zk/6OL+Af8A4eDw5/8AJdf5yPj3/giB+zn4l/4Lr/E//gnP4a+Kvxl8E/Bvwv8As3L8XrPxTaavH4o8fmZLHTbr7D517wYs3mOR/D9a/Qof8Gmf7HZOP+Gv/wBrE+39jeGh/wC0aAP7Zh+1F+zLn/k4z4C/h8YPDmf/AErqx/w1B+zIRx+0V8DST6fF/wAOY/8ASuv4k/8AiE0/Y+7ftf8A7WGccH+zfDI/9oUv/EJt+ySD8v7YP7WAHb/iX+Gf/jFAH9tR/ad/ZtP3f2h/gaw7AfFzQST/AOTdPH7Sf7OB6fH34Mkk/wDRU9BIP4/a6/iWH/Bpz+yauD/w2R+1kO/y6f4byP8AyBUg/wCDUL9k5cY/bL/a+yP7tl4cA/D9zQB/ban7Q/wEYbovjh8HHRvusPijoWG/8mq0E+PPwLcBh8a/hOykZyvxG0RgfoRdV/EQP+DVH9lVAFX9s39sXA6YXw6o/LyqmX/g1X/Zb4A/bS/bJUDp8/h8Af8AkKgD+3T/AIXx8C/+i0fCj/w42i//ACVUo+N3waYbk+LfwvdT0ZfiHo5B/wDJiv4kV/4NV/2XP+j3v2yxjnAbw9n/ANFVKv8AwawfswqAF/bk/baGOm2bQFX/ANF0Af21f8Ls+Dv/AEVn4Yf+HC0j/wCSKP8Ahdnwd/6Kx8MT7D4g6QT/AOlFfxLj/g1j/ZsP3f24/wBtvHvf6Av/ALSpf+IWP9m4c/8ADcn7bQ9/7R8Pj/2lQB/bV/wuH4Pnn/hZvgA+48baSQf/ACYqaD4ufCqdylv8SPAk7n+CHxjpkr/kLgmv4k/+IWj9nP8A6Pn/AG3v/BnoH/xurul/8GsP7PF7qNlYx/t3/tt2sl9dLaxS/wBraHkM2cZAi/rQB+gH/Bup+338SfjL4X/4KB3P7Yv7Uo8XS/D/APbCvvB3w11D4v8Aj6x01dC0NLRpLay04zvHGICASoVj9z2Ff1Aa5408HeGfD58W+JPFnhrw/wCFBFFP/wAJNrmvWuleHvLn2+Q/22V1h2yb12HdhtwxnIr/ADwf+DfX/giz+xX+338N/wBt24/aPg+LXiTU/gn+1ddfDDwpqPhb4oah4DS9sLTTt6TX1vaERzTPIu4s+Qu9goAr+5H46/sHfs+/tE/smW/7F3xK03xXdfBGHRdM0KOz0rxheaZ4qit9K2fZQurAmfeAoBdsk96APerL49/AvUZ7K2sPjP8ACi+l1K4FpYR2PxE0e8lvJWxtjiRLgs7H0UGur8WePvAvgKCzuvHPjXwl4LttQla3sLjxZ4js/DsF9IgDOkL3EiB2UEEhSSARX4H+B/8Ag2L/AOCW3w68a+CviB4V0X9oi18S+APFmneM/Dst5+0Rr+o2EN5pl3DeWxlgdysib4UDI2QVyOMmv0R/b7/4Jlfsvf8ABSnwr8OfCH7UWn+PNW0r4Xaze+IfCY8CePtQ+H1xHd38EUFw1xLaOHlXbBDtRj8pU460AfYGg/Gn4O+KtWtNC8L/ABX+GniTWL5iltpegePdI1fUpyOfkt4rgyP9EU1qeJ/ib8OPA81vB458f+CfBUl8nmWEfizxVY+HZr1eeY0uJU3dOibj0zjIr8af2Xv+De7/AIJ5/sg/Hj4eftFfBrS/jbafET4a382peHZvE/xz17xTo0Us1tJbMZLGeUxSDZK/yuCM4OOK9/8A29v+CPn7GX/BSPxv4E8e/tN6X8UNR1r4c+DpfBXhk+Avilqfw8torWa9e+dp47RlE0m9yAzk4HAFAH6G+HPi78JfGWrRaD4O+KHw98Wa5NDJdJo/h3xnpusaoYYgDLMLeKZpCiFkDMqkAyLnAOaPEPxe+EXhDU5dD8X/ABU+HPhPXIIo5p9G8S+NtM0PVYUlQPGzW806yBWByCRg9q/Lf9iT/ghj+wT+wB8b4v2gf2edH+MNr8RIfCOo+Ckn8dfGPVvHmiix1RrY3YFjdMYt5+zRgPjI59azf20v+CD37Av7eXx51/8AaM/aC0r4yal8R/EWkadoN6/hH4y6t4K0AW+lWkdnahLC1ZYw2xPmYfePJoA/Xbwv438D+ObW5v8AwN4z8KeNLGzuPsl7eeE/ENn4itbOUqHEUslvI6q5Vg21iDgg4rj5vjv8ELRpY774yfCmwmglaCeG9+ImkWrwuhwyMrXAYMO4IBFfK/7BP/BN39mX/gmz4H8b/D39l7S/HOleHPiJ4oTxj4pi8c+PtQ8fXk9/DaR2UTwT3bM0KCKMAxp8pPNfmr4q/wCDYD/glp408S+IfF/iLw7+0Dca34q1678Ras9t+0T4js7V7m8ma4naOJZfkUvIxCA4UEAdKAP6BNB8ZeEvE+jz+I/D3inw1r3hyFGk/t/Qtftda0grGMyk3ELtGNgwT83ftXAJ+0P8A3QMfjj8HIyMh45fihoiyREEgqw+0nBGOR1FeE/s1fsBfs7/ALKf7Ket/sa/CSw8a23wV1+w8RadqNn4i8c3viPxQY/FEc8ereVq0xNwpYXEpjbcTGzZBr8jD/wan/8ABJrJx4T/AGiDklif+GkfEYJJ5J/1lAH9FY8W+FT4fi8XHxP4cHhKa3F3F4p/t20Ph6aI52ype+Z5LIcH5t+Pev5Vf+Dt34qfDLxj/wAEir/S/CfxD8D+JdUP7SPgyb+zNB8V2Gr6jsjGrb38mGZ32rnk4wK/fm8/4J//ALPOpfsRQ/8ABP8AvLDxof2eIvhxa/ClLCLx1qEXjRdHtLiG5jUa4H+1CbfEuZgQxBIr+Ln/AIOJ/wDghr+wx/wT+/4J4337QP7Pln8ZLbx7F8bPDPhGBfG3xj1nxvoEVnqQ1AXQ+w3UjRGQ+THtkwGXBweSCAf25fsveKfBOmfsz/s96bJ4w8LRSWPwX8MRSsddtki3/wBjWbFMlxhhnkEd693/AOE58HE4XxZ4aYHoR4js8H/yJX8uHwE/4Nqv2DPiz8C/gl8RIvHv7V+ky+NvhLoHie/tdN/aH1+DTYri802CabyIzNhEy4AReFAwAK9cH/BrN+wljj4wftiAeg/aK17A/wDItAH9Gn/CYeDzz/wlnh05/wCpks//AI5R/wAJf4P7eLPDue3/ABUdmf8A2pX85h/4NZ/2FMH/AIvF+2N0/wCjite/+O1Ub/g1p/YW3ED4xftiD3P7RGu8cf8AXWgD5x/4O0f2bT8Tv2T/AISfttfBrVdM/wCFwfsX/EG11651rw3qFpca/aaHeXVvKl6Z1k3qmnX1rbToqZO66Y9sH+hP/gnx+1r4V/a0/Ym/Zk/aFn17SdN1D4m/CHSNf1zTL7Xba+1PT9Q+zLFeR3UilR53mRuXUqCC1fjXq/8Awan/ALAXiDTbrRtd+K/7WetaRfKq3uk6t8e9Y1LTbsIwdRLBJIyOAyqw3A4Kg9qi0n/g1K/YA8P6fb6ToXxa/az0PSrRStppekfHfUtN0+1BJJEcMZCKMknAHUmgD+mP/hK/CX/Q0aF/4M4f/iqP+Er8Jf8AQ0aF/wCDOH/4qv5rv+IWP9hrt8b/ANsbPb/jITV//iqP+IWT9iMHj43/ALY2McA/tCat/wDFUAf0onxZ4S/6GjQfx1SAf+z1UPizwkCT/wAJToH/AALX7NR+W6v5uD/wax/sSf8ARbv2xT/3cJqx/wDa1N/4hYf2Iv8Aotn7Yf8A4kHq3/x6gD+kj/hL/Cg4/wCEr8K/8C8Q2mf/AEOj/hMPCg5/4Svwpx/1MNof/Zq/m2/4hX/2IP8Aotf7YX/iQWq//HqP+IV/9h/v8av2wsd/+MgdV/8Aj1AH9JH/AAnPhMcf8JV4TGP+o/Z//F1/Bv8A8Ex7q0vf+Dvn9vW7srmG8t51+Krx3NswltZR52gco4OG/Cv2A/4hXP2Fe/xo/bCz3/4yA1b/AOO1+DH/AARB+BXhX9mP/g6M/ao/Z/8ABF9r2qeE/hP4N+JPg/QdS8UavLr/AIhvbe2fQNr3l7LmSaUliS7kk5oA/rK/4OFP+UMH/BQH/sjUP/p/0avgX/g0RUf8Oi/DHH3vjl4yz741M4r76/4OFP8AlDB/wUB/7I1D/wCn/Rq+Bv8Ag0R/5RF+F/8AsuXjL/05mgD+oqThnx2zinOSDjPBFNl+8/40r9R9KAGZPXPPrQfm4OT9TRRQADjpx+NFFFAC5PqfzriviJ8N/h/8XfBut/D34o+DvD3j7wR4jtvseueFvFWlw6zoupxbg22WCRSpwQCCOQQCDXaV/OR+3R/wVh+PPwg/4LM/sK/8E3/2f5vhtc+HfjbpsV18aX8baJLqF7pD3RvL6BYpopFlhJ0+z8xdp5adcj0AP35+F/wt+HvwU+H3hT4U/Cfwjo3gT4c+BtIj0Hwh4P8AD9qLHRfD1lFnyra2iH3UXJwOTz1rvqKKACiiigD+TD/g6zsZZfBH/BNDU1I8nTP26tC85T95vOu9IC4/74Nf1c+HpGbQdFOTg6Vbkf8Afpa/lc/4OqiT8L/+CdMAB3XH7dnhpUPYYvdM/wAa/qm0WPytG0qPoE06FB+EaigC3RRRQBYooooAKKKKACiiigAooooAKKKKAP4pbch/+DuL9onbzs/Yfuh9CNL8P5r+iIElRknp61/OpoTF/wDg7g/aTLHIX9im/UH2GmeH8V/RUvQfSgAwPQflTsn1P50lFACYGc45p2T0ycemaSigBCoJyR+tJsX0/WnUUAN2qO3606iigAprfdNOpr/dNAEy/cb8f5Vq+GFDeKPDW4ZxrkPX6tWUv3G/H+Va3hb/AJGjw1/2HIf5tQB+EX/Bo8MfDj/gp52x+3pqa9f+nAjH5V/Xs/RfpX8hP/BpAcfDf/gp7j/pIBqa9O32A1/XxL1/E0ARU9uifT/CmU9uifT/AAoAlooooAKKKKAAgHqAfrQeevP1oooAgyR0JFGT6n86SigCxX8t/wDweA/8of78/wDVyfgkfpq3+Ff1Er1H1r+XT/g7+/5Q+33/AGc34JH6a3/hQB+837CBI/Yt/ZTGTj/hQXhvv6aRaYr6kVmIBJP518tfsI/L+xf+yoDxj4B+Gx/5SLSvqNPuigB+T6n86Mn1P50lFACFQTkj9a/k08Gf8FGf2t/hj/wcr+OP2Ef2hPjHFqX7O/xJ8DXb/Aj4daPo9vb6Pb3Oo6fBrfhyGSQDd9rWCK/WefcC2EDA8Cv6zK/ir/4OFfhh8R/gx/wVp/4JJ/ty/CHw9Lc61dfEWw+Gfiq98NaFd+JNdvjZ6zbpe3NzBbRsxSDRtUkTJAChc88igD+1hlUAEDv61Kev4CszTb6DVdK03U7RjJa6jZQ31u/XcksayIfxDCtEZwM9cd6AFooooAKOtFFADdi+n61/Ar/wTP8A+Vv/APb4HYL8VP8A0Pw7X99lfwJ/8E0P+Vv/APb4/wB34qf+jPDtAH9Lv/Bwp/yhg/4KA/8AZGof/T/o1fA3/Boj/wAoi/C//ZcvGX/pzNffP/Bwp/yhg/4KA/8AZGof/T/o1fA3/Boj/wAoi/C//ZcvGX/pzNAH9RUv3n/GlfqPpSS/ef8AGlfqPpQAyiiigAooooAK/h1+Duo+FP2pP+Dwv41a3LozX9t+zt8JNR8NWt3JmS30rXvDGmafpazhugJF1dhR7NX9xVfMfgD9jH9lL4YfHXx9+058PfgL8OPCnx/+KL3D/EH4taNoS23jPxY128b3LXl1klzK0UZY4GdgoA+nKKKKACmScIx9qfTJPuN9KAP5U/8Ag6fAPw8/4JrLjJb9vDw1x3P+m6XX9UOnDGj6We5t4wf++RX8rn/B07/yJX/BMsHof28fDWR6/wCn6N/jX9Utj/yCdM/64x/yFAFyiiigAooooAKKKKACiiigAooooAKKKKAP4m9C+X/g7V/aVJ4I/Yq1DJ786b4fNf0WEYJHpxX86mmf8raX7ULL0X9iu67+um+HxX9FfWgAoorL8QSa7b+HvEc/haw07VfFlt4fvbjwppWtXp03Q9T1NLaR7CC/ul+aG2eYRiWVAzrGWKgnFAGmWVcZIGemab5if3hX81//AAUB/wCCvP8AwU9/4JmeCfht42/aN/Yh/Ybm8NfFfxLqXhbwhqXw9+NnifxxO95psMFzPFeAlCmIbiJt4JBO4BRjn6Y/Zp/bR/4LTftTfs//AA4/aR+Gv7EX/BPfRfht8VNGXxH4Oj+IPx58TeGfEl7YSEiK6ezCSlUkwSp3cgGgD9u6K/Dn9o//AIKN/wDBTX9hfwnYfGr9sD/gnV8APF/wA05lfxp4p/ZF+O+s+J/Evg+OQokVxqEWoRCGCF3fYsjQupKvyOCf05/ZJ/a7+AP7dPwR0P8AaA/Zx8TXWveDNVmbS9a0vV7ZNO8T+CdViVWudJ1S0DsY5Y96lX4WVTuXigD6NooooAKa/wB006mv900ATL9xvx/lWt4W/wCRo8Nf9hyH+bVkr9xvx/lWt4W/5Gjw1/2HIf5tQB+EX/BpB/yTf/gp7/2kB1L/ANIDX9fEvX8TX8g//BpB/wAk3/4Ke/8AaQHUv/SA1/XxL1/E0ARU9uifT/CmU9uifT/CgCWiiigAooooAKKKKACiiigBV6j61/LZ/wAHf3/KH2+/7Oc8E/y1uv6k16j61/LZ/wAHf3/KH2+/7Oc8E/y1ugD94/2HSV/Yv/ZXxx/xYrw0P/KTa19T18r/ALD3/Jl37K//AGQvw1/6abWvqigAooooAKzbzw/oWsXmmX2raRpmoX2iTtd6Ne3tjFc3ekysAGktpWUtExCqC0ZBOBzWlX5mf8Fj/jd8Yf2bP+CaH7WHx6+A3iL/AIRX4p/C3wLb+JvDOtmyj1BbNhqljbzkxOMHMU8g/GgD9PDCnJ3qxH96dmP86TGOPT0Oa/G3/ggX+118Qf24f+CYHwE+OPxb1rVvFHxK83VvAnjTxZrdws+p+KL/AES+e1nvpCqqo8w8AY4CDk9a/ZKgAooooAKKKKACv4E/+CaH/K3/APt8f7vxU/8ARnh2v77K/gT/AOCaH/K3/wDt8f7vxU/9GeHaAP6Xf+DhT/lDB/wUB/7I1D/6f9Gr4G/4NEf+URfhf/suXjL/ANOZr75/4OFP+UMH/BQH/sjUP/p/0avgb/g0RH/Gorwue3/C8vGQz/3EjQB/UVL95/xpX6j6Ukv3npX6j6UAMooooAKKKKAAnAJPQcmvwI/4Is/8FcfjZ/wU88aftd6R8R/gx8NPhn4P/Z1+Ij/Dvwxq/gXVtU1HUvElzHeXMTverdM0a/uoo3HlH7zHtiv3B+Jevy+FPhx8QfFMMMlxJ4Z8Dat4hjhibZJM9nYzXCopwcFjHgGv5CP+DOqaPW/hD/wUQ8VPE0dzrH7YTTlHO5ohLYRXBXOOxlP4k0Af2XEYJHocUlK3U/WkoAKZJ9xvpT6ZJ9xvpQB/KP8A8HVO5PAP/BNGdTgQft3eHHYDqf8ATdHx/Kv6q9LbzNE0hxzutInz7FQa/lZ/4Orio+FP/BOpuNy/ty+Gird1/wBN0nNf1QeGTu8PaASck6Nbtk+vlrzQBrUUrdT9aSgAoorg/il8SPC3we+G/jz4q+N70ad4R+HPg/UfG3iO73IsiWemWkt5OsW9lRpWSJljQsNzEAHmgDwr9sb9t/8AZk/YK+E118Zv2ofifo3w58JC4bT9EtbljeeJPGF6sZk+w6Rp6fvbmbAGQo2JvUu6Agn8otL/AOC1v7T3xGsk8c/AP/gjP+2p8WPgnqcLan4U+J+oeKPDfw1ufEunqcNdpod+ftURIwVjZjuDDDV/Nl/wTX1v4gf8HFP/AAWd8YftNftNu+v/ALMn7JKDxr8P/gxqUBk8HaTbSXssHhTTfsL743eSSGS8u5Hy7PFGWYgAD/RatLSCygitraKKCGCJYIooIxFDCiDCxxqOFVRwAKAPzB/YF/4K3/sl/wDBQy/8XeBvhZrPiDwN8efhvui+Jf7PPxX0lvBvxT8IyQy+RdH7HKf9JiikyplhzjgsqBkLfp/X+Zj/AMFiviDff8E/f+DmTwf8dPgd9m+H0upeIvAPjPxP/ZsCpp+tr4ghgtPFD3UH+rk+0xzzsQ4Kh1jbBKiv9LrRNVt9d0XSNbtObXWNMg1S2Od2Y7iJJU578OKANSiiigAooooA/ib0X5v+DsX9qtjzt/YsuRn0zZeHxX9FiDO0e1fzq6EpP/B1t+1uwGdv7HEi59M2fh//ABr+ijO1foPrQBNJGFKN2znAqvLJmdgo5WPAA468f1p0kxaMZ4wfxqXS7U3d/HHty0syovHXnkUAfxT/APB1L8SdZ+L/AO0d+xD+wn4Q1CG4uYbSLxSND8ndPp/iHxtqiaZpayNnkT2TWGOn3c96/ss+FXw00n4F/CT4Q/BHw9aR6FpXwp+Gmk+CrWygIMMZs7SKGbbjjBkErcf3q/gp8V+M/HX7aX/Byf4z+Jfw/wDhNc/tbaF8Bfi3c6/4e+GfhzxBZ+DJfEfhPwFbR2Gmi2vbsvCn2S7NvKzNneY8fLnI/slsf2n/ANtzxl/akWkf8EqvFfhHWcLPbaj8SP2sfDWi+H5HckEObazkkcDGSABjPfNAHDf8FhviFpHwt/4Jbftu+JfEN9pk0Os/CP8A4QbRtO1SRRDrmpapqFqLW1iRgd0m2CeVCMFWtweelfgh/wAGhngv4pWHw5/bO8dalLq8HwQ8Uaxofhjwnp91HJFpN74htPPm1O9tCcKzrbNYQSOmf9WFJBUiv0E/aa/4Jk/t2f8ABVLxP4Sh/wCCgPxZ+En7M/7OHww8QHVtP/Z1/Zg1K9+IWteNpgqxS319r13HGnnGHMZknSQIJZPL2biT+3PwB+EHwf8A2afh34I+CXwU8Iad4G+E3gLTk07Q/DmnwCN5XyzXF5dy/wDLa4nY75JXBYnqx4wAei7dnyjPy8c9aK/Ov9hr4X/8FJPht8Tv2rdT/bo+P3gr40/DTxv47h179mXRPDl8dRv/AALYLcXIdFHkobC1NoLSEWCsxWSMuHILY/RZm3DGMUANoor8wf2pP25v2ofgv+37+yt+yd8Kv2O9U+L3wb+N1lbXnj/46zw6s39gCaeeK4ht763iayshYJBh3u2DybSc7dpIB+n1bXhb/kaPDX/Ych/m1YuVP3eB2BOSK2vC/Hijw2T21uEn/vo/40AfhF/waQf8k3/4Ke/9pAdS/wDSA1/XxL1/E1/IP/waQf8AJN/+Cnv/AGkB1L/0gNf18S9fxNAEVPbon0/wplPbon0/woAlpDwOMfido/Olr+Xv/g59/wCCrOsfsF/soad8C/g9rkmkftAftQ2194f0/XNMvDDq/gXwxHGsepapGFIdWuvMe2jdGypVzggggA+2P2o/+C437N3wY+M8P7K/7PHgP4kft1ftZ3KK3/Ck/wBm2C31q20Zg5E0OseInJsbGRFw2JMjnDMh4r5x8V/8HAviL9nHXPBF5/wUD/4JpftV/sQ/Bzx1ry+FbD43eMdb0b4keE9K1B3iCRajDpgL20ZWXeZZWA2xvtDEECD/AINrf+CcPhb9j/8AYR8DfHDxTon2v9pr9qfSU+KPxM8Xa9byzeKNJsb5mfS9G82Znkj8uDY821v3ksju3LV+pv8AwVF+CHgX9oH/AIJ4/tffDL4g6Umq6FefALxJ4kEahEuba70TTLjWLKeGRlYo6T2UR3L82MjIyaAPrj4X/FH4dfGv4f8Ahf4p/CbxloPj/wCH3jPTI9Y8M+K/DV8mpaPq9vIMrJFKpI+oOCD1Fd5X8KH/AAZY/tWfEHxh4M/as/ZL8SXeqav4J+Fx0j4reCLrUbx54PDI1mW4sb/TrZD8scLTWpuNqgfNcPkkbQv91wIblTkZxnpmgBaKKKAFXqPrX8tn/B39/wAofb7/ALOc8E/y1uv6k16j61/LZ/wd/f8AKH2+/wCznPBP8tboA/eP9h4E/sYfssLjkfAvw1kdMf8AEpta+p6+Y/2IF2/se/sxoRjHwN8NYU/9gi1r6dbqfrQAlFFFABXx5/wUH+G1t8Xv2Gv2tvhxd6Zc61H4l/Z98ULBpFlZvqF7qVzaaVcX1pDDAis8kjTW0QVEUsWIABOBX2HS+UJlaJlDpIpSRGXcjggggjoQRkYNAH80f/Bp54f+I/gX/glhp/w7+Jvgjxn4A1vwr8bPFEltofjnwlqHg/WPKv7pbveLe7ijkKEvwwBHNf0yEEHBp0MEMK4hhihUgZEUYjHt0qWgCvRUuwepo2D1NAEVFS7B6mjYPU0ARV/An/wTQ/5W/wD9vj/d+Kn/AKM8O1/fZX8Cf/BND/lb/wD2+P8Ad+Kn/ozw9/gaAP6Xf+DhT/lDB/wUB/7I1D/6f9Gr4I/4NEef+CQPhY9/+F5eMef+4nX3v/wcKf8AKGD/AIKA/wDZGof/AE/6NXwR/wAGiPH/AASB8LDv/wALy8Y8f9xOgD+obrRR0ooAKKKKACiiigCnqOm2es6bqWjajCLjT9X0+bTL63b7s8M8bRSofYqzD8a8E/Zx/ZF/Zl/ZG0Xxb4e/Zl+CfgD4K6L448S/8Jd4u03wFpH9kWniDUQix/bLldx3SlFC7uPpX0Sv3hX4Cf8ABEr/AIK9fEX/AIKd+Lf2wfCvxC+GXgD4cS/s5/EtvBvh6PwRf31ydYso55rVbi6S5diGcwbsoFAO8c8YAP36PJJ9TSUUUAFNf7pp1FAH8nf/AAdcvj4T/wDBOs5x/wAZxaD+l5pVf1V+FDnwz4cProVsf/IS1/KL/wAHYbEfB7/gncc4x+25o5/K602v6tvB7A+FfDBzyfD1oT+MKUAbzdT9aSlbqfrSUAFfjR/wcIXuo2X/AARs/bxfThMjS/CSG3nubaVoJ7SNtb0re4YHOMAqw7qxHev2XrxD9pT9n/4f/tU/AT4s/s7fFPT11LwF8X/BF74J8QwGFJ3gjukHk3UStwZbeZIbiPOBvgSgD+Qj/gyZ0LQ1/ZX/AGy/EUWnWy69/wAL/wBK0K41Tyh9se2Tw5azrBvxnyxI7uFz95zX9tT9VHcnAHrX8Ln/AATe+Fn7an/Btv8AGT9oT4efHr4C/FT9o39gr4weJLXxB4b+NX7Nnhb/AIWHqug6lbCa2sru70CLF60tzaRW0MluvyQlN/mEE1+ovx+/4LK/tCftX/DbxD8IP+CVH7En7XHiP44+L9NfQJfi38c/hNd/ATwD8Eor7Ft/bMs2pEPcSw73ZPs4ZomiVyrDAoA/lM/4KYWs/wDwU3/4ObNK+E3wc06bxNp3h/4x+DvhHrNxHMuoaLJaeC2tZPEeoC4hDolq0dtPtlchdxVWIzmv9QKwsrbTbGy06zjENpYWkdlaxL92KOJAiKPoFA/Cv53P+CHX/BCLw/8A8Ezk8W/tC/HXxfZ/GX9tb4twzr4s8dWZdvD3gezvJTcXOnaUrgPJNcSNuurx+ZWUBQqjFf0XUAFFFFABRRRQB/FT4WAb/g6p/bFbGdn7IqAnH3f9D0D/AOvX9D7dT9a/ni8FDf8A8HT37bx6mP8AZHQD2P2TRRX9DrdT9aAIDGTxjdn0ryz9oL4r6R+z/wDs6fHv476zq8Gi2nwg+EGu+NrbUbmLzoor6Cwlh0tCueTJfXFlGM8ZcV6Frmoz6NpOraxZ6FqnirUdJ0W91PS/CuiXkNjq/ii6t7aSeDT7aWXESyXDxrErysqKZASe1fzXf8FPPiv/AMFXv22/2T/Gf7K/7PP/AASj+Pfwa0z4n6hbWPxT8W/EL4p+DvFV5d6PbuLtNL06C0u40j+1TrbSTSOCQsCAYPJAPkH/AINOfgxeeLfEv7bH7a/ie2sby+vtRtvhL4d1S4i2app17qcsniDWZYW6qksctujEcBoyM8V/ZT5YYfNuI933Cv5ef+COVj/wUP8A+CdH7NEv7M3xT/4JNfGTxr/bPxXuPGkXxV+H/wAV/Cfh5Vh1FreG4fW0uLmQyGzjwEZNo8pNp55H9ReAOFGAOgznFAEOyNMgKPmBByecHrX5Jf8ABQL9o39s3wL8L/2oviX+zJ4q+EP7P3wi/Yu0Ka68dfGr40/Dd/iTqXxw14LEbrw54T0qUJBbWdq89tbNqe5luZ3mKoFQV+scxYEEcgckZxnmv5fP+Doj45eI4vg3+yv+wZ8Ob6d/HH7VPxaj8QazodkWt5tYsbK9Gi6FD54PzxPqdzOJYmGG8tOR1oA/X3/gk9+118Wf26/2Avg1+0z8cdB0DQ/iT4t1bXvDuqz+GNKOhaN4kh0XU5bGDVIrPGyI3CpuZYyV3KxwMgV+hpOBmvnz4AfDb4bfsi/CL9lr9i3TPENrZ+JfCvwfGjeD/Bl3cxT+Kdeg8P28UviDWHhUhzGs92qtOyhZZHAVmIbb7dYa/wCHtV1nxF4a0zxL4Y1XxL4TuFt/FHhrSPEtjrHiDw1v4j/tGzgleS2LnIUShckHBJBwAeG/tJ/tC237PnhPwrNofhC9+K/xm+Lnilfhh8B/gtpGoR6VqHxB1+6Qv5lzePkWmm2ESNdX17tbyYRwNzrXwP8ABL/gpZ8f9a/4KZ+IP+CXPxh+Cfwd/wCEo0H4Zf8AC0PEnxG+A/jbWtV0HwxGmmW+ovZajbXskkbNBJeQWk3lbcyEEYGAP1503wb4R1rx94I8U6v4b0W88VeD2vLPwz4vvdNivNc8GWmqi2i1n+z5nBMAuobaKKZkG5lRQGHOf5d/+CGGk3/7Sn/BRn/grb/wUX8ReGrNIdS+KN18KvBGow3n2620Sa71V59VtoifmZGs4NKyRxlsdaAP6iEBXcpOdqsuR0OGYf0rpPDXHiLQiOo1i1I/7+L/AI1zMR3LuwBujLYAwOWbpXTeG/8AkYdD/wCwva/+jVoA/B7/AINH/wDkm3/BTz/tIBqX/pAa/r5l6/ia/kG/4NH/APkm3/BTz/tIBqX/AKQGv6+Zev4mgCKnt0T6f4Uynt0T6f4UAS1/l0/8HfPiPx74l/4KteH/AAV4vnvLf4d+Evgp4cs/hy00JSzt7fUlFzqbRHPzKLyWXPTacjtX+otX81X/AAcL/wDBDu//AOCq/wANPAvxK+B2r6B4a/al+CthNpHhiDxRNJa+G/iJok9wZZdGurwbmtZInLzwzbHBZmVgNwIAP32/Z7txY/s//A63CFGh+Evhy1CdNu3SbNen4V+dH/Bdv9p2z/ZL/wCCWP7WPxLGq6ZpninxB4Ck+EvgIaqjywarqvihhpps0UA5Z7R79x/1xr4n/Z2/4LGeN/2YPgv8J/gF/wAFAf2Gf22/BH7SngXwXp3gvUH+D/wGufjP4C8erpdutlbapZapp0phhW4WGMeVMd43KzY3YHyv+03+xb+3v/wcDfGD4U2X7Rfwr8U/sD/8E3/g7r0fiSH4beNtYg1L49/G25lAle8ntbZxHZRSweXFCJm32yM37vzcSkA+Vf8Agy7/AGU/F/g74VftR/tda5bX+l+Gfi/qWmfCfwNDdRgW3iC20CSS8vtSt8McKlzdvandyWibHAr+5hCBtIHAHSvJ/gR8D/hZ+zj8IvBPwQ+DPg3TvAvw8+H3h+38OeGfD+mQLBb2VvboEUnAG52wWZjyzMSeterhdo2k5I4z0zQBZooooAVeo+tfy2f8Hf3/ACh9vv8As5zwT/LW6/qTXqPrX8tn/B39/wAofb7/ALOc8E/y1ugD9/P2OlKfsmfszKBtH/CjPDRI/wC4Ra19HV8//skrt/Zb/ZyXGMfA3w3x6f8AEpta+gKACiiigArxD9p/xFrng79mL9pDxl4Y1O60bxN4R+A/i3xN4d1ezYJdaXfWGgaheWlxGSCN0csEbA/7Ne314F+1tp9/qn7JX7U2l6ZZXeo6lqX7OvjWw07TrC3e8vr+ebw1qkcUMMKAu8juyqqKCWLAAEmgD+db/g1J/a+/ae/bM/Zl/aC8eftMfH7xn8cdf8HfFyPwdYP421YarqPh9HsYr1EjIVdkbpIMLj+DNf1bV/In/wAGfH7PHxm+AP7F/wC0q3xm+GnjL4Zah47/AGhYNZ0HTPG3h648N6re21podtZyyC3nVZNolRhkqAQRjvj+uvIxkcjGaAJ96+v6Ub19f0rPMhBI5496BIxOBn/vqgDQ3r6/pRvX1/Ss8yMOuf8Avqk80+//AH1QBbr+Av8A4Jn/APK3/wDt79OF+Kef+/mhf/Wr++0kk5NfwI/8E0D/AMdf3/BQD2T4p49vn0OgD+l7/g4U/wCUMH/BQH/sjUP/AKf9Gr4H/wCDRI/8ai/C47f8Lx8YnH/cSNffH/Bwp/yhg/4KA/8AZGof/T/o1fA//Bol/wAoi/C//ZcfGX/pyNAH9RL/AHm/3j/Om05/vt/vH+dNoAKKKKACiiigBV6j61/Dr/wa9eD9V+EX/BT7/gsp8GNSuzO/hTxBYzzIsRgiWdvE2uF2CEnB2NEv/Aa/uKHBB9DXzx8KP2Rv2afgj8UPip8avhN8FPAHgH4t/G68S8+LnxB8N6Glh4m+IDxySyxNqNwDmTbJK74GBk5x0oA+hjwSPSilJySfU5pKACiiigD+Sf8A4O0d0XwF/YEvAcfY/wBtLSZM9x+/sSMflX9VPgSQy+DPCcmSd/hPTH5/2reM/wBa/lV/4O4OP2bv2HyOq/tk6Rg+mWszX9Uvw658B+C88/8AFHaSf/JGI0Adq3U/WkoooAKKKKACiiigAooooAKKKKACiiigD+Kv4efP/wAHTn7dJxkL+ymqZHbEOiCv6Hn++3+8f51/PB8MGVv+DpH9vQkjK/svKoOe3laJX9D7HLMfViaAG0Akcg4PqKKKAFLMerE46ZOcUlFFACEA9RX5Q/8ABQv/AIJqan+1/wDH39j/APaw+HHxV8K/D34y/sfXyroOifEvwbL47+HfjKzXUptWVJ7GORHE6XEzESZI2pECuVBr9X6QqGxkZx09qAPn79nf9nyL4XeLvGfxr+J/iq7+O/7UPxlnhi+InxZ1XTYNFtrLTLJ5H07wz4Y0pFKaTo9qspVbaJi0jbnkZmY1+LX7DH/BP7Uf2Yf+Czv7W3xd8J/tPD4pfChPgPrfiX9ovXPF+prpknw18SeJtVivdL0HXr/ebSa706CKedlLK1tDexBlVmZa/oJ8TeH7DxV4a8ReFdTn1K207xLotzoV/caPqk2i6vbw3ULwSvbXcLLLDKFkJWSMhlYAg8V86a3+xr+z5qv7JnxQ/Yt0bw7qXgL4QfFzwtfeHvFepeD9Vmh8c311qEsM9zrd/qbsZr++lktoGmmuWdpArAgggAA539tH9prwR8J/+Cen7Vf7VHgnxh4Z+IHhTQvgHrtn4X8TeA/FNnrGl6lqWsJ/YEMdreJIF+0W8uoRzBOp8s9ME18Nf8G+P7PepfAP/glv8LrzxJ4dm8OfEH9oTxbqvxw8WPd7jqGrWF/OY/D8twCAVY2KQsVYZ+ZSetL8Bf8Agid8Nfhh8B/Av7J3xX/aO+I/7QP7Jvw6+JN58WNI+AM3hXTPAnhLxXrF1d/bIX8VX9qpvNVht5HmKWjOsWZjuRhgV+1dtbW1nbQWtlBBZ2dpbR2djZWsQgtrKCJQkUMSDAVUUAADsKAEKbIQn92PB/BmFbvhf/kYtD/7C1r/AOjUrEk+4f8AcP8A6E1bfhf/AJGLQ/8AsLWv/o1KAPwj/wCDR/8A5Jt/wU8/7SAal/6QGv6+Zev4mv5Bv+DR/wD5Jt/wU8/7SAal/wCkBr+vmXr+JoAiooooAKKKKACiiigBSSTkk560lFFAFiiiigBV6j61/LZ/wd/f8ofb7/s5zwT/AC1uv6k16j61/LZ/wd/f8ofb7/s5zwT/AC1ugD+hb9lddn7NX7O4xtA+B/hvj0zo1pXup5J+teMfs2AL+zj8A9oxj4K+Gse3/Ems69kT7ooAdRRRQA5PvCpHCsjo4DRupSRGG5HBGCCOhBzjB9ahr8af+C/H7Vnjz9j7/gl3+0F8V/hb42134c/E+6TSvB/w/wDG/hm/Ona7oGp3+owNHJay4OJGjt548kH5ZHGOaAP2VtfMij8pJIPLBJCeSsCjJycBQBySashsHgrn/ZORX5f/APBGv4hfE/4vf8Exf2N/iv8AGfx54m+JvxL+JPwdsPGXizxr4wvhqPiDWbq8MjlpZgqggKqgADjHev04oAsUBgGA6n07VGz/AN386av3hQBNRRRQAV/Al/wTQ/5W/v8AgoD/ALnxT/8AQ9Cr++2v4Ev+CaH/ACt/f8FAf9z4p/8AoehUAf0vf8HCn/KGD/goD/2RqH/0/wCjV8D/APBol/yiM8MDuPjj4xz7f8TI198f8HCn/KGD/goD/wBkah/9P+jV8Ff8Gialf+CQfha4I5uPjn4yX2H/ABMiKAP6hn++3+8f502iigAooooAKKKKAFXqPrX8+H7Un/BX/wCN/wCzZ/wWU/Zk/wCCcutfBj4dD4C/tIWFheaT8adR1jUrXxnb+fp1+94IoRKtr+5vrRLcBl5D8nIIP9B69R9a/iF/4OufCdr8F/2s/wDgk7+2+uv3VhN4W+MieANTtIgYktdP0vXdN8QXMyy5wDLFfXkbAjgRdSGwAD+3k9Tjp2orL0PVrTXtE0fXLB/MsdZ0q31Wzk/56RXEKSxt+KuDWpQAUUUUAfyd/wDB2pArfsv/ALGly4DC2/bH0FAO4Mr26g/+O1/Uh8Of+RD8FnsfBukf+kENfzBf8HZtu0/7Iv7JzLgMP2zvCsSsRypkmQD+Vf09/DhSvw58Dhjlh4N0hWPrixhoA7aimp90U6gAooooAKKKOpAHU9BQAUUUUAFFFHqPQ4NABRRRQB/E78LnY/8AB0h+3tz0/ZgAPH/TLRK/oqr+cT4NSS3f/B0z+3vZJFLNcXH7ON5HCsMDzMRD/YvGFBPTFf0e/wBma1/0D9S/8Fd1/wDG6AG0U7+zNa/6B+pf+Cu6/wDjdH9ma1/0D9S/8Fd1/wDG6AG0U7+zNa/6B+pf+Cu6/wDjdH9ma1/0D9S/8Fd1/wDG6AK+xvT9aNjen61e/srWP+gdqX/gruv/AI3R/ZWsf9A7Uv8AwV3X/wAboAo7D/dH6UbG9P1q9/ZWsf8AQO1L/wAFd1/8bo/srWP+gdqX/gruv/jdAFJVZCCo24ORggYoIc5zk565NXf7K1j/AKB2pf8Agruv/jdH9lax/wBA7Uv/AAV3X/xugCs+Sp9hWv4YZR4j0Pn/AJi1t2/6apVA6VrGONN1Mn0GlXbH8vLrU8NWWor4l0UNZagGGsWwIOiXGQfNTrk0AfhB/wAGj/Pw1/4Kef8AaQDUv/SA1/XzL1/E1/IN/wAGj4I+G3/BTwMCGH/BQDUgQV2kH7Ac5Hb6V/XzL1/E0ARUUUUAFFFFABRRRQAUUUUAWKKAMnA6ngUUAKvUfWv5bP8Ag7+/5Q+33/Zzngn+Wt1/UmvUfWv5bP8Ag7+/5Q+33/Zzngn+Wt0Af0Rfs3f8m3/AT/sivhn/ANMdnXtB7/7o/wDQq8X/AGbv+Tb/AICf9kV8M/8Apjs69oPf/dH/AKFQArdT9aSlbqfrSUAFfycf8HgvjHWI/wDgnD8O/hD4d8IeL/E+tfFD4/6bq8Vz4X0S51uDSLfw5Z3VzObxYY22LIb6IIzFRmJuvb+sesnVtC0bX4o7TXNH0nWrMMSbXWNNi1O35GCRHICuSOOh4oA+dP2HPhdpPwV/Y8/Zq+FmjxRw6V4L+CHh3SrGKJdiRf8AEtglZQO2GkYGvqAZwM9e9TRxxxIkUSJHHGgjjjRQiRqowFUDgAAAADpioqACnJ94U2nJ94UATUUhIHWoSST/ACHpQBPX8CX/AATQ/wCVv7/goD/ufFP/AND0Kv77a/gS/wCCaH/K39/wUB/3Pin/AOh6FQB/S9/wcKf8oYP+CgP/AGRqH/0/6NX8hv8AwQt/4Jyf8FYv2mv2CfDvxM/Y8/4Ku6/+yT8Hrj4i+I9Lt/g3ZaJq11aaZqFpeiK+vBLbzqhNy2JSAnGTkk5r+vL/AIOFP+UMH/BQH/sjUP8A6f8ARq+Cv+DRMn/h0H4b5P8AyXHxr3/6f2oA8K/4cw/8HBhGf+H+3jAf7vh/Xcf+lFN/4cxf8HBf/Sffxj/4T2u//JFf2A/w/wDAaqOTuPJ/OgD+Qn/hzF/wcFHhv+C+/jHHf/intd/+SKcf+CK//Bf48t/wX48ZZPXHh/XT/wC3Ff15ZPqfzoyfU/nQB/IaP+CK/wDwX+HK/wDBfjxlkdM+H9dH/txTf+HMX/BwUOF/4L7+Mcdv+Ke13/5Ir+vTJ9T+dGT6n86AP5C/+HMX/BwX/wBJ9/GP/hPa7/8AJFfPn7Rv/Bth/wAFeP2vvCGn+AP2nP8AgsbY/G/wbpOrLrmmeH/H/gPWtZsNPu1XYJ4QbkMrEcHBwcDIOBj+3fJ9T+dYniceIJfDPiK38LXlrYeJbrQ7u38PX99D9ptLG/e3lSymlTI3IkzROy5GQpGRQB/InpX/AARE/wCC+ugaVpehaD/wXj8SaRoui6dDpOlaZaeG9eW1sLa2jWGCGMG5JCpGiKMn+Gr3/Dlv/g4MH/OfTxZ/4Tmu/wDyRX0Z/wAG9X/BWL9pD9u/xz+25+z/APtga9outfGn9nP4jQjw9JoXga28Badb+H2mudLkhlhjAd5xeWU75kBO2RcHHNf09nofpQB/HuP+CLv/AAcFZ/5T6+LB7/8ACOa7/wDJFS/8OXP+Dgof85/PFQ9v+Ef13j/yZr+vdydx5P50ygD/ADTf+C3X7B//AAVf/Zh+Hn7MWn/taf8ABU3xH+1d4L+Lv7Qum+EPC+i3mnajY2ngDWo5Lb7HrbefM24xG5JAQqf3Z59P6iP+CW//AATR/wCCm/7Lnx/0T4zftWf8FQtZ/am+Ctz8LbzStN+DF/pmsC2gvdRhsG02+ElxcPEBaLDMAq5J3DHrXyP/AMHaoP8AwqH/AIJ5D1/bT0vH/fenf41/V74SAPg3wnkZx4Z07/0kSgD8B/8Agoj/AMEu/wDgqh+09+1F4l+L/wCyb/wVS1v9kv4M634W0bRrD4N22latf/2ZdWFmIL27WaC4EX+kyAyYCgjODXuf/BK39gH/AIKGfsb+Nfi7r37an/BRXWP21PDXjTw5peleAfDGoaXqNmngi8s7u4nvLwNczOpM8UsUXyDOEOe1ftRjdgtycetKAB0FAH8vf7V//BIP/gsx8Yf2mfjZ8WfgR/wWV1z4DfCHx949vPEnw8+EtrpOt3CeAdMnKmDTQ8VwIz5WDygA+av1F/4JYfsiftrfsgfDH4m+E/22f2ztR/bR8YeK/HcGv+CvF1/ZX1kPB2lQ6bb2j6ci3M0jHfNG8xK4HzDqen6gMNwAbkDkA1Op+VR2AwBQB/Jl4y/4I3/8F8Nc8W+KNY8Nf8F1vEfhrw5q3iO+1PQfDMeia7Ja6BZ3F1LNbWibZlH7qN0jyOPkr9vv2TP2Yf2ufg1+wvq3wE+Pn7W1/wDHX9qG+8O+KdMsf2mbjTLiC70m61ZLxNBuY7eRzKw0tp4JFBILGIgY61+iOT6n86Mn1P50AfyD/wDDlf8A4OBf+k/fi/8A8J7Xv/kiv22+Iv7Jn7bXiH/gmp4a/Zb8L/trX/h/9sbTvh/pHh3xB+2BLpV2dQ13V7OaOW/1TyVmE6m4CugyxPIz3FfqDSEA8EAj0IzQB/Iz4L/4I1/8F7PD/i3wvrOuf8F29f13QdK8Safq2t6G+ha2F1m1tbuKe4tSTc4xNGkkZzwRIc8V+1X/AAUk/ZU/bb/ae+CHw68Bfsd/tny/sgfEfw74gTU/GfxIsdGvdSuPFNqttHEbRFgkR1BkDuS3Xd2r9PNqjooH4UpGRg8gcAZoA/ma/ZC/4JWf8Flfg7+018Gvit+0P/wWQ8R/tDfBrwH4pbWvHnwZu/D+r6dbePLP7JcQixaWaZkVWklidiwPEXQnivtz/gqx+w5+3h+2BcfCW9/Ym/b01n9im58FR36eMW0uwvr2LxkLoo1uXW3kQhosODvPORX7D7F9P1px5GDyPrQB/mbeD/8Agkd/wUZ8Xf8ABY/9on9mey/4KcXGk/tVeGPgro3xI8Y/tLrpmr22rePNP12CKX+zSIrsXCmEPEG3SMp4woxX6xH/AINyP+Cy+D/xu71Y+39k+LP/AJYV/S54W/ZS/ZK0f/gor8Tf2vNF8YWyftheO/hJpngTxV4PPxGt5ri18PafDBBZXR8NCUTIrLHHmdk2sSCCd3H6F4I4JyRwT60AfxHN/wAG5P8AwWXBP/G7DVm9/wCy/Fv/AMsKT/iHK/4LL/8ASa/Vv/BV4t/+WFf25UUAfxG/8Q5X/BZf/pNhqw9/7L8W8f8AlQqVf+Dcr/gsvuH/ABu51cD0/szxZgf+T9f221WwM5xzQB/FOP8Ag3L/AOCy2B/xu61bp/0DfFn/AMn0v/EOX/wWW7/8FutX/DTfFef/AEvr+2DpRQB/FF/xDm/8Flf4v+C3PiPHfbpfibH639H/ABDmf8Fi+/8AwW48S57/APEr8Tf/ACfX9rtIVBOSP1oA/ij/AOIcz/gsX2/4LceJc9v+JX4m/wDk+j/iHN/4LK54/wCC3HiPGON2l+Jcf+l9f2uBQDkD9adk+p/OgD+J/wD4hzv+Cy3Vf+C3GsZ7FtJ8T5/9L6Yv/Buf/wAFn0cSJ/wW31ZXVt6OujeJldSOQQft/X3r+2HAznHNOyfU/nQB/mYf8EQ/+CdH/BTT9pTwf+2DH+yJ/wAFNtS/ZY8PfDf9py58A/FDS9M0nVriP4o61DB82vOsEybCwyNr5Y/3u1f3d/Hr9lb9qPx9/wAE/X/Zm+GX7WGqfDj9pb/hCNI8Pr+0wlpdyaidQsXhe+1BYY5Vmzc+XIdu8kGTkmsv/gm3+xn+xb+x1o/7Q+m/sa+MbHxjY/Ff42XXxF+Lc1n8U7X4oNo/iCeFQ9nK8LsLNlQlvsz4YB84r9KG5bJ6q2VPpQB/JJ8L/wDgjB/wXJ8M/Ef4ceI/G/8AwXE8T+M/BfhTx7o/iXxP4Tn8M61F/wAJHp1jfwXN7YK8lyVH2iGOSH5uP3nPFfs7/wAFRf2S/wBs/wDa0+FngTwf+xX+2dqX7F/jLQPFsus+K/GenafeahJ4nsWhSOKyK2sgcbHDvljj5zX6fOS4w53Ac4NIgCHKfLnrigD+Zn9i3/gk/wD8FivgR+1J8H/jD+0N/wAFh9d/aG+EHgbW7i+8bfCDVPDms20Hja0msri3+yeZPMY1BlkgkJIOPK45xX1d/wAFR/2Cf+CkX7XfxJ+GHiP9ij/go1qX7Ffgzwl4Kn0Lxv4TsdJ1O/i8Z6jLfS3CX5+zyIuUhMUXzHP7sdsV+25AYYIyOuKcSSApJ2gYA9KAPwB/4Jtf8E1v+Cpn7LP7Rx+KH7Xv/BVjxD+118Hv+EG1PQD8HNQ0TU7Syl1S6a2NjqRkuLh0U2ojuMYBJ87HuON/b+/4Jmf8Fb/2h/2nPGPxU/ZQ/wCCtOufst/BjW9O0+20D4QWWh6rMNBmtrZYrqQTQHYRK43DHav6Ldi+n60bF9P1oA/K/wD4JW/siftqfsh/DX4n+F/23v22tV/bU8Y+LPG1rrngvxVqGn6hajwXpkGnRWsunotyzMfMmRpSV4xt6mvxk8d/8ER/+C53iTxf4v1jwv8A8FzNf8M+Fdb8V6hrXh/wwNE1+SLQLO6upJre0BWcD91G6R8AD5K/rr2L6frTqAPzd/Yu/ZO/a2+AH7But/s5/HT9rm8+PH7Sd5pfi+30X9o6awurO50S41tLsaFKkczvKf7MeaFwTnJjOAeM/hN/w5c/4OA/+k+nin/wmNe/+SK/r7pcn1P50Afmx4u/Zc/bB1X/AIJsWn7L2kfth6lpf7Y0Hwr07wlN+1//AGdcXOo3uu291bz3msyW27zv3yRyRj5i3zAnuK/ia/4Lrf8ABOb/AIKsfsufsITfFD9sT/gqTr/7YfwcPxh8O+H2+Dmo6TqNjZf2rdpqJ0/U8zyGPdbiOdQApP8ApB6c1/pE7FyTgZPU1/Lj/wAHfRP/AA58vjk5H7UHgcg+n7vWqAPlf4S/8Eef+C72u/DT4a674Z/4LyeK/DOga38OtG1fQfDM2ja3cf8ACO2V3p8Fxa2IZbwAiGOVIwQMYUY4r0A/8EWf+DgAkk/8F+vE2Opx4a13P/pRX9Rv7Of/ACbz8Bv+yOeGP/Uf06vYPLT+6KAP5Ev+HLH/AAX/AP8ApP14xPuPDeu4/wDSmj/hyx/wX/8A+k/XjL/wnNc/+Sa/rwooA/kOP/BFr/gv8Ov/AAX68Zf+E3rv/wAk1+MX7H+m/wDBcb9s/wD4KA/tPfsOfCz/AILE/GA6R+y5c6jaeLP2gnvb298E6xJaXbWVmtvYJIJUN3LFOqhpTs8k5z2/0Tvixrfi3w38LPiTr/gHw/P4u8caJ4D1bWPCHhO2RGm8S6nbWE8thZKXZUBmmWKMbmAzIDzjFfyw/wDBq/8AsXfF/wCCvhH9tP8AaT/aM+EviD4W/GX47fHe70WPT/FNrJZa42madPJdXCNG4H7tNQub0I6lkdW3K5HAAKg/4Iu/8HAvb/gv/wCM8e2ga3/8k0n/AA5b/wCDgT/pP74y/wDCf1v/AOSa/rtSNdoyozjmneWn90UAfyIf8OW/+DgQ/wDOf3xl/wCE/rf/AMk00/8ABFb/AIOACcn/AIL++Mf/AAQa7/8AJNf14+Wn90U/pQB/IUf+CKv/AAX/AD1/4L+eMT9dA13/AOSaaf8Agip/wX/wf+N/njA8f9C/rv8A8k1/XvR1oA/j+b/gip/wX/3H/jfx4v8A/Cf17/5Kr8lP+CEfw4+Kfwf/AODmn9pj4ZfHH4sXfxz+L/grwJ8SdA+IXxcvkkjufiDqVvJo0c2qMrszjzcLw7MwAGTX+jVsX0/Wv4EP+Cav/K3/AP8ABQH/AH/ir/6P0CgD+mL/AIOFP+UMH/BQH/sjUP8A6f8ARq+Cf+DRL/lEH4b/AOy4+Nf/AEvavvb/AIOFP+UMH/BQH/sjUP8A6f8ARq+Cf+DRL/lEH4b/AOy4+Nf/AEvagD+oaPqv0/pTE+6KfH1X6f0pifdFADqKKKACiiigAoooIBGD0784oA/he/sjxV/wTp/4OxpG0Hw74in+En7e/hu41fVntoLo6Ek3iG1Fze6isNuhDxWGp2IgDSLsRrtySuef7p1cMBg9RmuUuvBXg7UPEGneMNQ8K+Hb3xZo1sbPSPFGpaNZ33iLSomYs0VtevG08SFiSVRwMnpXTKSihQQQBjgYHFACUyT7jfSn0UAfyL/8HamB8Jf+CdIPGf20tMJ98NpP+Jr+rvwSc+DPC3/Ytab/AOki1/KB/wAHbxK/Cf8A4Jz44/4zOsD+T6TX9X3gbnwV4UP/AFLGm/8ApIv+IoA66iiigAooooAKKKKACiiigAooooAKKKKAP5Wfhd/ytoftLf8AZifhr/006ZX9U7dT9a/OXw7+03+xTqn/AAUb+I/7L+g+Hre3/bj8MfCrT/HHizxDL4ENvNq3hyeBJbZIteyWlEaSIDASABjAIHH6MgkgEjBIyR6UAFFFFABVerFV6ALFFFFABRRRQAUUUUAFFFFAH8kP/Bpr/wAiP/wVK/7SBav/AOm0V/W9X51f8E7/ANor9hb9obTv2gr/APYd0Xw9pGleCPi/P4W+ML+HfBa+DLe/8TLA7zyTKqhZ5AN4MnJ4GTyAP0VoAKKKKACiiigAooooAKKKKACiiigAr+W7/g76/wCUPl//ANnP+B//AEXrVf1I1/Ld/wAHfX/KHy//AOzn/A//AKL1qgD+ib9nP/k3n4Df9kc8Mf8AqP6dXsdeO/s5g/8ADPPwG/7I34YP/lv6dXseD+maAJ6KKKAADJx68H8arCKKEyLDFHCjStIUiQRqWY5Y4Hc9z3r+KL9qT9ob4vftxf8ABzf+z1+yr8EPih408KfCj9kDwyIfjTL8PfHN54cXVVs1Gr+IoLyEDy7h4bu4sbJ0Gd8O8BhsJP8Aa91oAsUUUUAFFFFABRRRQAV/Ad/wTV/5W/8A/goD/v8AxV/9H6BX9+NfwHf8E1f+Vv8A/wCCgP8Av/FX/wBH6BQB/TF/wcKf8oYP+CgP/ZGof/T/AKNXwT/waJf8og/Df/ZcfGv/AKXtX3t/wcKf8oYP+CgP/ZGof/T/AKNXwT/waJf8og/Df/ZcfGv/AKXtQB/UNH1X6f0pifdFPj6r9P6UxPuigB1FFFABRRRQAUUUUAZWvWmqahoes2Giav8A8I/rV7pVxaaRr32CPVf7EupIXS3vPsshEc3kyMknlOQr7NpOCa/lK/4IUf8ABTT9qX4hftxft5/8E9f+CgfxAvPFf7Qfw/8AiHf+LvhvcarGmlW0OmabONO1LR9J0+KIQw28IaxvQm4MBf4+faSP6yq/i5/4LofsaftJ/s7f8FQ/2J/+Cqf7CPwn8Y/Ev4g6z41sPAvxb8AfDzTGuJNcm06Py4mvFG23jh1HTZLi0Mlx+7+02okkcHy6AP7RqKyfD9/fat4f0PVtT0mfQNU1PSba/wBS0C6uI7u60KeaCOWWzllT5HeJnKFk+Ulcjg1rUAfyJf8AB3B/ySf/AIJz/wDZ5th/6HpVf1feBP8AkSfCf/YsaZ/6SW/+Jr+UH/g7g/5JP/wTn/7PNsP/AEPSq/q+8Cf8iT4T/wCxY0z/ANJLegDr6KKKACiiigAor5E/bF/bs/Zc/YL+G03xS/ae+Kmh/D7QGP2fRtKeT+0PF/iy5Y4jtNJ0tD51xIxDDI2opHzOua/MNf8Agt38Sta0pvix4D/4JUft1eMf2Wktzqr/AB4GiaXoeptpygF72LwfLIdTlAByEj3FlKkHmgD996K+Df2Ev+ClH7I//BRvwVrXjD9mP4hvrt74TulsfHPgDxNpreF/iT4DnfOyLVtIkYyRE7Wwyl0yCN24Mq/eVABRRRQAUUUUAfzg/DH9nH432H/Byn+0f+0hffDLxDb/AAN1T9jzw74O0f4qy25Twrd6nFp9tHNZRzEZMgZZFYYwPKPWv6Putfkl4J/4KSa94w/4K3fGL/gme/wt0+18O/DD4FaP8W7X4m2usM2pajJqMENw9pPZFSNqpMUUqQcxsTnIFfrYuNowMAjIGc4/GgBaKKKACiiigAor5s/aj/a+/Zt/Yu+HE/xW/ab+LnhH4S+DFeS3sL3xLf8Al32u3EcZla20+zQNPcygAZWJG271LFQRn8u5/wDgvV8EbjwAPjX4b/ZB/b68S/AOzkca78Wbf9nabT7DTohgpdW+mS3QvLqB1ZXE8UYj2sDv5oA/deivi39ij/goL+yl/wAFBfhwPiV+zB8UNM8bafaxxjxL4ZuUOk+OfBM0rSotvrGlOfNt3LQyqGO5GMbgMSpFfaVABRRRQAUUUUAfzF/8GzP7Mvx//Zo8Ff8ABRTTvj18KfGHwru/H/7a+q+NPBNt4usUsX8Q6VLaFY7y1Cu26ItwGOOT0r+nSvxj/wCCM/8AwVI8U/8ABTrwl+1frnin4XeHvhm/7O37R1/8E9JTw/qdzqUfiW1t4POivrjzeElKlQyx4XJ4UdT+zlABRRRQAUUUUAFFfmn+2L/wVt/Yi/Yi8Q2Hw/8Aiv8AEbVvFfxj1do10b4FfBjwxc/FX4w6vvLhjDo1nllMezLJM0cmHUqjZ4+Z/EP/AAX2/ZB+GGr+DIv2jfhZ+1p+y74N+IF4tv4Z+K/xy+At94c+F6pJGZLeTUdUglnFmZQCBDKvm5B+SgD9xKK5nwb4y8K/EPwr4f8AHHgfxBpPirwh4r0mDXfDniPQ71NR0jWbO5jEsFxbzoSro6sCCD7dQRXTUAFFFFABX8t3/B31/wAofL//ALOf8D/+i9ar+pGv5bv+Dvr/AJQ+X/8A2c/4H/8ARetUAf0Wfs5/8m9fAb/sjXhj/wBMWnV7H3/4D/7PXjn7Of8Aybz8Bv8AsjXhj/0xadXsff8A4D/7PQA6uc8YS+Irbwp4lvvB9hY6r4wsPD99d+E9M1S8OnaXqOpx2c7WMFzOFby4pJxErybW2qxODjFdHXz5e/tW/s32Px6H7LGofGjwDp37Qtz4eh8S2vwl1HXI7HxfeWV2jm3lggkwJWkUO6xRs0hVGbZtBIAP51P+DeX/AIJhftPfs3fHT9un9sT9u/wNJ4a/aI+NHxLm0PwuL/WLbxMLnSXnm1C91K0vEZpNs81wIAz43xWsRAHIr+qlR82OoHWmgkDAJ5xn3xUiDjPrQA+iiigAooooAKKKKACv4Dv+Cav/ACt//wDBQH/f+Kv/AKP0Cv78a/gO/wCCav8Ayt//APBQH/f+Kv8A6P0CgD+mL/g4U/5Qwf8ABQH/ALI1D/6f9Gr4K/4NERn/AIJCeGh6/HLxqP8AyoNX3r/wcKf8oYP+CgP/AGRqH/0/6NXwX/waIf8AKIXwz/2XPxp/6cGoA/qDiOQrY/hz+lNX7opYjiPPpGTQvQfSgBaKKKACiiigAooooAKP/wBVFA5IHrQBwOpfFT4baP8AEHw78KNU8deFrD4meLdIu/EHhrwHc61BH4q1mxsDEt3dwWW7zTFGZowXxgkkAkg476v4rf8Ag5e/Zy+N/wCyp+0X+zJ/wWx/Zputbm8Q/A7WdL8FfGXRLTU7yeCGxt5dljcLAN4isrq2eezuSNsaMUlcliDX9WX7F/7Vnw3/AG3f2ZPhF+078J76O88H/FTwlb67HamdJdQ0G8IMd9p14i/cmt5keNlYK3HKr0oA/my/4O4P+ST/APBOf/s82w/9D0qv6vvAn/Ik+E/+xY0z/wBJLev5Qf8Ag7f5+FH/AATnA5P/AA2dYD/x/Sa/q+8Cf8iV4U/7FjTP/SS3oA6+iiigAr5//aq/aO8A/sh/s5fGL9pj4oTyQ+Bfg14KufGOuJC4invfK2xWtpG5BCvc3EtvbqxBw04ODjFfQFfzD/8AB3R4h1rQP+CPnieLR9VvNLj1/wDaC8F6BrSWc5hGp2UrapLLazY+9GzwwsVPeJfSgD8Wv+CJvw28e/8ABdz/AIKN/HH/AIKXftuWl540+FP7PGs2ul/B/wCG+rXP2zwP4f1yYG50rSksz8hTTLQxXLKwKyyT7nywU1/oO2lra2Nrb2dlBFa2lrEsFtbwRiKGBEAVVVRwAAAAB6V/L5/waNeA/DWjf8EivCXjPR9OitNf+IHxp8X33jHUFUCbV59N1SSwtWfAAxHAiRjvgda/qL9T2Az9KAP80346/E67/wCCTv8AwdMahffBqSfR/h58ZPil4dtfHngbSpBp3h/VNO+IptVnsDAgChILu6gnRuSgiZQcE1/pVV/lpeLdB13/AIKu/wDBzvex/DTVbjxB4R0L9p2y1m28Y6dbvcWel+E/h3cWs5vZYwR+6M9lFBu3YBkHB6V/qW0AFFFFABRRRQB+KHwz/wCCenxr8If8Fu/2gP8AgolqOq+EJ/gt8TP2fNE+GHh7R7fUJn8XQX2n2kUEpmg8vYsZMUhDbuSMdwT+1y8ADpjj8uK/B34U/t0ftK+Jf+C8P7SX7Bms+KNEuP2dPhx+zvoHxI8JeH4/C1nba/bahqMdrJcPNqiKLiRP3k2EZsDcK/eFRhQPTj1oAdRRRQAV4j+0j8f/AIefssfAj4q/tC/FXUxpPgH4SeC73xp4iuidrSR2sf7q3RsECS4maC3jGDmS4TPGSPbq/mO/4O3/ABPrvh3/AIJA+KbbRNWvdKh8UfHvwf4Z18Wcxh/tOwm/tSaS1l9Y3kgt2Knr5YoA/Gj/AIJKeHPih/wcN/8ABS74o/t6ftqWMnib9mb9lrVY7P4QfBW9nkn+G2h6tcO1xpOnwWpJWRrOBEurgyrmaW4Rt527R/oD/wBlaUNNXRv7OsP7ISz/ALOXSzaxnTxb7PL8jycbPL2fLsxjHGMV/LP/AMGf/wALfDXg/wD4JPJ8QtKs3h8QfFn46+KL3xPdvJv+2HRLsaTZ4GBgJHCw75zX9TjMwOM9WCjjuegoA/zN7r4oX3/BH/8A4OffGGm/DG3g8J/A/wCLvxttPDnir4f+GLAWmgy+HvHckQs7SO1JKB7e7ubeZJlAK75OQGNf6Ytf5cvxb8P6j/wU9/4Ok9S0T4eX/wDanhHwv+03ZXbeMfC5/tXTbHw98OmtrmTVCf8Anmz2EcLns1yK/wBRqgAooooAKKKKAPwW/wCCEH/BNj49/wDBODwR+2PoXx5vPBd1f/Hr9qbUvjD4MTwbq8mrxwaRcQ+RB9rLxoY5jtBMYBAH8Rr96a/nw/4IBf8ABQv9pr/goJ4U/bi1r9pXxB4a1+++Bn7WGofCLwC3hvwjaeE0sdIt4ZJY4p1gA85wcfvHyevqa/oPoAKKKKADrX4Vf8HAX/BUuT/gl9+xld+IvAksUv7QnxruLr4f/BNHCuPD10IVe+15kYYb7DHIhRcgmSZCCdpB/dUkDk1/mxf8HrPibxLe/tnfspeHbt7qHw1p37Os+p6NCtwwsL6a41y6+0XQizt3gqIt3XEYFAH7sf8ABr//AME57Xwt+zvH/wAFJv2iBdfET9q79rKaXxdo/jnxjenxNrfhfw48ziyNtLMC0U96oM8jZLL5gTO1VUfvz/wUV/Z/8DftNfsSftN/Bf4g+HrfxZpXin4M6/c6dZ3samW11LT7CW+0u4gdVDI8d3BbNlSCQpXoxB9V/ZH8L6D4M/Zc/Z38NeGNNttH0HS/gr4Zi03S7NBFaWKNo1m5SNR0G5mbHqxryD/gpb8cfDH7OP7Bv7WHxi8W3radpHhf4FeIrWO8SQRzR3mp2Eml6cqHrua6u7cDH196AP4/f+DOn9tf4ky+J/2hv2APiP4yn8QeGvBWmH4jfB7SdY1KbVLrQZLe7ez1qw00u+IrQnyZvLAx5jsRjGK/vYyW5I2kjlfT2r/Ox/4Mvf2c/E/i79oT9qb9rbVdKkXwn4Q8D23wt0jW/PSWK+1jWLp9S1C1GDkNHbLayEkD/W/Wv9E48kn1oAKKKKACv5bv+Dvr/lD5f/8AZz/gf/0XrVf1I1/Ld/wd9f8AKHy//wCzn/A//ovWqAP6LP2cf+TefgL/ANkc8Lf+mSwr2MdR/wBcx/Nq8c/Zx/5N5+Av/ZHPC3/pksK9kAORx0jAP5tQBxPxM+IvhD4QfDnxz8VfH+qxaH4J+HXha98YeKdVlKhbGxsLeS5uHG5lBbbGQq5G5mUd6/iO/wCCAfww8V/8FM/+Cn37X3/BZ345WEt14Y8PeMrzwX+z1p15G91ptlcTs0NrLYC4G9YdN0+KFIpIXby3nuY39/6iP+Crn7Efj7/goX+xZ8Sf2XPhz8ab74G6148mtGvfEkNgdR0vXbK2kM02kajEhWU21wywlxE6kmFQcgnHoP8AwTs/Yj8A/wDBPX9kL4Q/sqfD6WHUdO+HWhka54kXT10648YazeP9o1bV54gSBJczs7YySF2g+gAPtjHOAQ3PBByDU4GBj0qKNQOgwBwBUtABRRRQAUUUUAFFFFABX8B3/BNX/lb/AP8AgoD/AL/xV/8AR+gV/fjX8B3/AATV/wCVv/8A4KA/7/xV/wDR+gUAf0xf8HCn/KGD/goD/wBkah/9P+jV8F/8GiH/ACiF8M/9lz8af+nBq+9P+DhT/lDB/wAFAf8AsjUP/p/0avgv/g0Q/wCUQvhn/sufjT/04NQB/UDF/qj/ANczSr0H0pIv9Uf+uZpV6D6UALRRRQAUUUUAFFFFABRRRQB5Z8ePgr8Pv2j/AIOfEj4FfFTRrbxD8P8A4peErvwf4n0q5XektvdRlRInIxJDII5o2/hkhRuor8pv+CKP/BJ/x7/wSh+EnxR+FXiL9oi5+L3hrx18RLrxh4T8HWmhPp3hj4d28j7YYrV5pHmaeWJIftJz5bSozIBuJP7ThmJHPf0rhfi34+n+Fnwq+IfxJtPCuueOrzwJ4M1Lxba+CvDMfm+IvFj6faTXYsLJcHM03klE4PLdDQB/Kf8A8HaOW+GX/BObPzZ/bYsM8Yz82k9q/rD8EDHg3wuPTw3po/8AJW3r/Oz/AOCmP/BXjwV/wVd/ZN/YY8V3XgZ/hL8Zfhb/AMFCLbwr8TvhRNqUd1caLmXS5LG7gSZ0unikiKo5aPCTo8eTjNf6J3grH/CIeGcZx/wjunYyMH/j1t6AOqooooAK+CP+Cmn7C3g7/go1+xj8X/2V/Fk8Gl3fjLTItV8DeJ5bZbp/CPiHTn+0aXforcYDhon9Y7iQV9705PvCgD+IT/giX+1h4r/4IfaR8Z/+CdP/AAVO8O+M/gf4F8M/EK68efBD9oi68O3mt/AS9ttSKrfWI1S1gk8prq5T7VEzksTctGY12B2/QP8Abe/4LIeMP2uPht4i/Zg/4Iv/AAz8f/tVfGL4taVP4T1H9oPRPC974Z+Bnwj0q8RbS/1JdevY4Y5ryJZ2Xy4wZIRmRUkYLt/pX8VeEvC3jCxTTPFnhzQPE2nLJ5i2PiLRbXXbJWGCGEU6OueBzjsKreGfCHhPwZpf9keD/C/h7wppLNuaz8N6Ja6HaMT1JigjRcn1xmgD8Mv+CG//AARM8J/8ErPh74n8Z/EHWbL4m/tZfF2NLj4k/EUQebaaBbsRM+jaRMxLtD52+WWZjuldgSccV++tRLsQAKzMF4HOaloAKKKKACiiigD85PBv/BN/4eeC/wDgo18W/wDgpBZ/EDxhf/EX4t/CzS/hVqPgHULe2k8HaLa6ZDHCtxbSDE7SSeUpZZGKjkD1r9Ghnvj8K/lO/Zh8UeMrz/g6G/ba8Kz+KfEM3hGy/Zl0S+07wtNrVzceHbJ5rfT5Hlis2cxo5YsdyqDya/qyxjg8kcGgAooooAK/Pf8A4Kj/ALCPhT/go/8AsVfF39ljxLfRaPqXiuwi1z4f+IZIBcN4a8R6axn0q+2kjKqxkikHH7u4c54wf0IpCOQfTNAH8QP/AAQ//bRv/wDgij4V+Kf/AATk/wCCrPhrxd+zTonhLxzeeO/g38efEvhy+1D4H+I7fVW8y5sY9YtIJoxLcTBriE5JYOyMqMhz+jn7Z3/BbvSf2jvAOsfs2/8ABHDQ/Gf7X37R3xf0yXwdpPxa8CeE7+w+CfwbhvRHDe6pqfiC8gigjuraGWSRYzgpt3gkgY/o98UeCfBvjmyj0zxp4V8NeLNOik8+Kx8TaBZ+ILON+PnWK4jdA3HUDNQeD/AHgPwBBc23gfwT4T8G2144kubPwn4etPDllMwBAdooI1UthiMnnk46mgD8Bf8AghL/AMEQdP8A+CX/AIT8c/Fv4z+KtL+Kn7YHxuUy+OvF9jbmbRvBljI8k/8AZWmzuS0rySyPJcznb5rELtCBRX9E9FFABRRRQAUUUUAfl/8A8Eyf+CXfw5/4Ji6J+0Zofw7+Jvjb4lQ/tG/HC6+OGvT+NNPsNPl8O3l1E0TWNoLZVDwqDkNJlsiv1Ar+UP8A4NXfGvjPxp4L/wCCmcnjHxf4o8Wvov7d+p6Vo7+Jteutek0q2GnrILe3ad3aOMM7EIpCj0r+rygAooooAQ5wcHB7E1/L9/wcn/8ABGjxx/wUr+DPgb4v/s8Wa6n+018A9PvNP0zw1PeLYQ/ELw9cmS6n0uGVvkS5juCZIVb5ZDKylkxmv6gqP68GgD+ZH/gnr/wX+/ZR8J/s0fDX4V/8FFfGV/8AsYftSfCjw9a/Df4geDfjT4M1vwvbeK5tJijsYtV0EJZuJbWaOJM4wEdWAZh81fEP/BSnx/8Ate/8HC2veGv2Lv2B/hp40+HP7Cvh3xTaeI/jd+1f8YPDV/8AD3w94/uoEEtvFokE6rNeWUUUrvCI0KXLsSzqFVV/sP8AEvwn+Fvje7XUPGnw48CeLr6GIRRXfibwjp2vXMajkKslxC7AD0BxXWWWn2OlWtvYaZZ2un2VnEILS0srdLW2tUX7qRxqAqqOwUAe1AHxn/wTu/YQ+Ef/AATg/ZX8Afsw/B+A3GneGbdtQ8UeLLu2ih1zxxrF0fNv9UvnRQWeWQkKDnYgVRgDFfbtFFABRRQTigAr+W7/AIO+v+UPl/8A9nP+B/8A0XrVf1IjPcY9utfy3f8AB31/yh8v/wDs5/wP/wCi9aoA/or/AGc/+TePgN/2Rvwv/wCmSwryj9u39tT4Q/8ABP39mH4lftP/ABouZx4U8EaaRpmi6e4XWPGOqzbhYaRY5BHnXDq3zEEIkcjkELg+pfs9XNvZ/s4/Ay8vLiG1tLX4LeGbm6urmVYLe2jj0KxZ5JHYhVVVBJYkAAEmv4cP2qPEnxA/4OWP+Csei/sn/CaXWof+CdH7GfiCS9+LXjzRdVnh0TxdIk4gutQVuE+0XzxNZWiooZLdJJTtcZIB/ZH/AME9v21fDH/BQb9k34W/tW+DvAPjP4b6D8SrCaaHwr44gCatZSW0zwStBMFVbm1cpuhukVFlRgQor7WBzk+vJ/IVyXw3+HPg74TeAfCXwz8AaJY+HfBngfQbbw54d0bToRBa2NtaxLFGqqO+FySeSSTXXHgkelABRRRQAUUUUAFFFFABRRRQAV/Ad/wTV/5W/wD/AIKA/wC/8Vf/AEfoFf341/Ad/wAE1f8Alb//AOCgP+/8Vf8A0foFAH9MX/Bwp/yhg/4KA/8AZGof/T/o1fBf/Boh/wAohfDP/Zc/Gn/pwavvT/g4U/5Qwf8ABQH/ALI1D/6f9Gr4L/4NEP8AlEL4Z/7Ln40/9ODUAf1Axf6o/wDXM0q9B9KSL/VH/rmaVeg+lAC0UUUAFFFFABRRRQAUUUUAFFFFAH+b1/wdBf8ABNrwB+w7+1b8Gv8Ago78KZobDwX8bPjDba18QvhNpdnHpcOl+INEnsdTub3TnX5BFqI5aMriOUOQNrAV/eL+wj+1l8HP22f2WPhL+0H8DvEA13wb4w8K2kc9vMFj1Xw5qFrBFDfaZfRAnZPbyo6MOnAI4Nfzmf8AB23o+g+Kfhn/AME4vBvinT11Pw14w/bOsvD3iOyMrwNdafdtpdveRK6kFS8czDPOK/cz/gmH/wAE1fgH/wAEyfgj4g+FfwCu/FmoaD8QPGM3xG1a78Xao2o3sUl0Cbazh+YoIraJxErABpAu5yzHNAH6T/X/ABoqvb3VtdrI1tcW9yIZTbzva3CXEUUq43xkqchlyMggEZFWKACnJ94U2nJ94UALMMrjrkGoDnyiM9R0zx1qxJ2qJgSCBQBWVSBjqSe1WqYq45I5p9ABRRRQAUUUUAfn14C1r/gnVL+358V9L8AW3wnT/goOngO2/wCFsXOn6Fcp8Un8PhIjaC9vTF5T2+3bjD54r9BmHOcg59DX8tP7O3gX4gaZ/wAHO37ZHxCvvh745sPhvrP7MelaXp3j++8KXtj4NvLm3tLTzIbfUXjEEz53kpE7FQuSK/qNP556H1oAsUUi9B9KWgAooooAKKKKACiiigAooooAKKKKAPzx/wCCfPij/gnH4k0f46D/AIJ1j4RjQ9P+LlzB8dh8JdDuNEtW8YFZDdvqSywxiS6ZQSZE3ZAwTwK/Q6v5Rv8Ag1Z+G3xE+HXw/wD+ClCfELwB408BT+If269U1nQYPGfha+8Ly6vZvZsRcWi3UUbTQ7mIEiDafxr+rmgAooooAKKKKACiiigAooooAKKKKACv5bv+Dvr/AJQ+X3/Zz/gf/wBF61X9SNfw4f8AB39/wUi/Z41H4A6V/wAE4PCWqyeMPjtcfEnQfix4+k0S7hudD+GNtpUd55FhqMilt17dfbCfIQgwrEC+S2FAP7F/2XdV0HxL+zZ8D59J1LSNf07/AIVB4c025m068h1Wy8yPRLGOeCRkLLuU5V0PIPBFHwS/ZX/Z0/ZtvviJqPwH+D3gT4U3vxY8UN40+I0/g3Q4dGk8Wamy7DdXWwAFguAAAANo4r8ff+DeD/gmp8R/+Cef7GFpdfGD4ueKfHvxJ/aDXT/irr/g2TX7jU/AXw0iurGM2On6bHKxLXHkSRG5uPl3yDARQvP77MxBIB/SgCXJ6596SiigAooooAKKKKACiiigAooooAK/gO/4Jq/8rf8A/wAFAf8Af+Kv/o/QK/vxr+A7/gmr/wArf/8AwUB/3/ir/wCj9AoA/pi/4OFP+UMH/BQH/sjUP/p/0avgv/g0Q/5RC+Gf+y5+NP8A04NX3p/wcKf8oYP+CgP/AGRqH/0/6NX8fv8AwQ88Jf8ABw7r/wCwl4dn/wCCbfxB/Zv8P/s3x/EHxGNM0v4o3lhD4nh1b7eV1UyLNbyyBGlG5Cex4oA/0j4v9Uf+uZpV6D6V/Hd/wrT/AIPIP+it/sS/+B+kf/K2j/hWn/B5B/0Vv9iX/wAD9I/+VtAH9iVFfx2H4af8Hj+Dn4t/sS9P+f8A0j/5W1Uf4Z/8HjbEg/Fz9ioH1XUNHH/uNoA/seor+NVvhR/weNOT/wAXn/Y1Gey63pAH/ptprfB7/g8aOT/wun9jge665pGf/TbQB/ZZRX8ZDfB3/g8YJx/wvH9kRfYa9pKgf+U2m/8ACk/+Dxc8/wDC8/2Rv/Cn0kf+4ygD+zmiv4xT8Ef+Dxdhj/hef7I/Pp4p0rP/AKbKrH4D/wDB4uTn/hef7KI9x4q0oD/02UAf2h0V/F1/wof/AIPF+/x9/ZSHsPFWlDH/AJTKRvgP/wAHirAj/hf/AOypz6eMtK/+VlAHrX/B2Rz4V/4Jhf8AZ72nf+j9Fr+r2z0mTXPh/baLFqOo6Q+reDk0xNW0i5Nlq2lmeyEQuLWbBMc0ZbejgHayqccV/mkf8FjPhj/wX38N6D+yNpv/AAUR+KvwQ8V6Z4g/aPsNP+A6+B9esdSl0/xaZrL7JNeGG0hMcId7YFiWGCxxxX7DRfs5/wDB4NPZWS2H7RH7M6WKqBZCLx3YRhVAwo/5B3QYwPSgDy/wr+1J+2h/wbo/t3658M/20PFfjz9oX/gnJ+0/8RLzX/B/xv1aeXxFrHgu71C48yS8uLh8mO4gMwa7tXP7yNRLEACVr+374efEPwR8WfBHhj4kfDfxPpHjLwN4y0iHXfDPibQrxL/S9XtZ0DxyxSKSOh5HUEEEAiv4av2kP+Cbn/B1H+1x8IPFXwM/aG8efsf/ABM+Hfi+zS01HTNf8W6ZPeWZjlSZJ7G6/szzbadWjXE0LK4GcHmvPv2Rf+CS3/B0t+w58Nz8I/2dvjd8DfCXw7GoPqtv4XvfjXHrum6XM+CVs1m09jDESNxjTC7ncgDNAH+gRRX8Uv8Awzt/weJ9/wBon9mzPfHxCsAP/TbR/wAM7f8AB4n/ANHE/s2fj8QbAj/020Af2tUV/FN/wzt/weI/9HD/ALMf4+N7An/02Uf8M7f8HiP/AEcP+zF/4W1h/wDKygD+1miv4pv+Gdv+DxH/AKOH/Zi/8Law/wDlZSj9nf8A4PEQQf8Ahof9mLj/AKnew/8AlZQB/axRX8WA+AP/AAeIAAf8NDfsw8f9TvYf/Kyl/wCFA/8AB4ien7Q37MOf+x3sD/7jKAP7TqK/iw/4Z/8A+Dxjt+0L+zBj/sddOP8A7jKP+Gf/APg8Z/6OF/Zg/wDC10//AOVlAH9BXw4/4KgeCfiP/wAFLvjP/wAE17D4XeI9P8X/AAb+HVn8Q7z4m3HiC2m0DX4rpLeRraHT1i86NoxcLl3kIO04Ar9QtmRzwT+lf5lPwY8E/wDBwBqP/BX/APaT8I+A/ir8DYP2/rb4Q6Wnxd8VanrGn/8ACEX/AIfhCvYpZzizMQdF278Rg5HJORj9m1+Cn/B4iDkfHn9kcn0PivSmH5f2XQB/Z9RX8Zy/B7/g8aAwPjh+x8R2J1/SGP5/2ZS/8Kf/AODxv/ot/wCx7/4PtI/+VlAH9mFFfxr2/wAJv+Dxy3YsPjT+xtNkY2z61pEij6f8Sytiz+H3/B43aOzt8WP2IZwwA23V5otxGPwbTDQB/YhRX8fTeB/+Dxlsn/hZX7CWCefs6aCB+I/syrNp4R/4PGLYYPxK/YLIz0kTQGP4j+zKAP6/KK/kS/4Rz/g8b7fEf9gbHb/QdAP6/wBmUf8ACOf8Hjn/AEUf9gb/AMANA/8AlZQB/XbRX8iX/COf8Hjn/RR/2Bv/AAA0D/5WUjeG/wDg8cII/wCFj/sDf+AOgD/3GUAf13UV/IG3hH/g8aYk/wDCx/2CBnuI9AU/+myuP8W+Cv8Ag8NtdE1bWtV+L37Fthpmh6Xcaxfz6JqWh2c0cNtE00mP+JbgnajYHHTrQB+8P/BMD/gqL4M/4Kc6N+0jrHg74UeKPhXH+zj8cLn4I6xb+JvEFrr8niS6tofPN9btBEixxspXEbFmG7rX6l1/me/8EgP2Xv8Ag4T1X4EfEv44f8E+vil8DfC/w2+Ofx017XPH954u8XWulaxrnifR7qbSdTmW3lsZEjiLo23ZgMMHAxgfrav7Pf8AweIA8ftD/szAdgfH2lFR/wCU6gD+1Wiv4sx+z/8A8Hh+MD9of9l0ntnxzphP/ptpD+z/AP8AB4x2/aG/Zcx2z430z/5W0Af2m0V/Fl/wz/8A8HjP/Rw37Ln/AIW+mf8Ayto/4Z//AODxn/o4b9lz/wALfTP/AJW0Af2m0V/Fl/wz/wD8HjP/AEcN+y5/4W+mf/K2gfs//wDB4ySP+Mhv2XP/AAttM/8AlbQB/abRX8ZEH7Ov/B4Eyq13+07+zFaZ6/8AFSadMoPsfsArsNI/Zm/4O0ZcHUf2x/2Z7ZiozEhsb8IfwtRmgD+weiv5GP8AhmD/AIOuhyv7Z/7Mo9N2g2TH8f3Ffil8Y/8Agqr/AMF7vht+1f4Q/Yt+Fn7Y/wAEf2rPjx4nvW0fUPDnwO8Caf4r0fwhfpdm2e01DUPJEKlADJLIhZI1HzEUAf6O/ijRp/EXhrxD4ftdZ1Pw7c67od3o9v4g0Sb7PrOhPcwSQLeWkn8M0JcSRt2dFPav85z/AILPf8ELPhZ/wTe/4JzfHX9o/wAXfELWP2h/2nPi/wDti6DDpnxf8WNOdX8NeG9Rm1mf7CFdsPeXJ8o3lyQd/loqbVUCv3l8O/suf8HQep6Lpl/r37f37MnhvV7uzjuNQ0BPhZDq7aVK6qzQGaOMI+zO3cvBINfih/wcBfCH/gtt8PP2ERrP7dn7TvwH+NH7P1t8ZfDlu2g/D/wZD4R8V/2y5vf7NmMwAfyQFuBIq/3lJOAcgH99fwCyv7P/AMDQeo+DvhZSfX/iTWYNesHgkehr+MD4d/Dn/g7eufhb8Nbz4c/Gf9jR/BV34E0i68JC8XSrTUoNOewgayjnDWLkusRQMSxOc811v/Ctf+Dxllx/wuX9inn1vNHB/wDTZQB/YzRX8bjfCz/g8WY5/wCFy/sU8/8AUW0cf+42k/4VV/weLf8ARZf2Kf8Awb6P/wDK2gD+ySiv43V+Ff8AweLbh/xeX9in/wAG+j//ACtq1/wq3/g8V2/8lk/Yr+7/ANBTSP8A5WUAf2MUV/G2/wALf+DxXcf+LyfsV/8Ag00j/wCVlN/4Vb/weK/9Fk/Yr/8ABppH/wArKAP7JqK/jZ/4VX/weKtx/wALk/Ys/wCA6ppBP/pso/4VB/weKnn/AIXJ+xtz6alpGP8A02UAf2TUV/Gz/wAKg/4PFf8Aosn7G/8A4MtI/wDlZSr8H/8Ag8VJH/F5f2N19/7S0j/5WUAf2S1/Ad/wTV/5W/8A/goD/v8AxV/9H6BX2sPg9/weK4H/ABfD9jce39o6Rx/5TK/Kj/ghJp/7Qulf8HM/7Smm/tY6v4c179pGy8D/ABLt/jJq/hB1k8MX2uC40Rrx7EqiL5RJGAFXHIxQB/XH/wAHCn/KGD/goD/2RqH/ANP+jV8If8Gin/KIjwl/2Wzxt/6dzX3f/wAHCn/KGD/goD/2RqH/ANP+jV8If8Gin/KIjwl/2Wzxt/6dzQB/T+3U/WkpW6n60lABSYHoPypaKAEwPQflS0UUAFFFFABRRRQAUUUUAfyWf8HVQ3aT/wAEsVHX/hvLRWA9f9M0Rf8A2YV/WBpPFjZf9eEH/omOv5OP+DquUR23/BKQNny3/bx0jf7hb7w+39K/rJ0sg2VmR0NjCR9PJjoA1Fcjg8j+VSAg8iqwbOeMEU8EjkUAfxn/APBYj9mD/gqf+wV+1p4p/wCCtn7APxb+Ifxm8B6rLaT/AB1/Z71/U5PE2naNpVsQv2S00BADcaTHEjowtwbi2Eiuu5VIT9nv+CTX/Baf9mT/AIKreDb208DPefDb4+eDtKhu/iN8DfFswj17TTtCXN1pUzBTfWkcweNpEUPEcB1zlj+yM8NveQS2t1DFPbzxmKaCZBJFMrDBVlPBBHavz++Ef/BMH9iv9n39qz4kftn/AAc+DGg+CPjr8WPDqeG/Fet6Q0lro8Ue8SXlxYacjLbW098ViN1JGmZTCmcYoA/QGivnv4+/tVfs7/sraF4X8S/tGfGHwP8AB/Q/Gvi+08BeE9Q8aauulw67q16SILWHgnHALykCOMMpdlDDPu+m6lp+sWFpqmlXtrqOm39ul3Y31lOl1aXcTgMkkcikqysCCCCQaALtFFFABRRRQAUUUUAfyI/slsD/AMHW37dmDnP7N1nj3/0ezr+u/J9T+dfx1/sgX5P/AAdh/twxs2Sf2ezZFc9fJt9Nr+xM8kn1oAXJ9T+dJRRQAUUUUAFFFFABRRRQAUUUUAFeP/tB3jWPwH+NN4jFTafCbxJeEqcEeVot8388V7CvUfWvD/2lOf2dv2hPb4KeK8f+CO+oA/DH/g1dl8//AIJI+GZycmf9of4lS5PU7vFN2f61/R1Hwij2r+bz/g1T5/4JDeBsc7vj98Rs89f+Kmua/pGoAKXJ9T+dJRQAuT6n86SiigAooooAKK8B/aU/aj+An7IXws8RfGb9or4m+GPhh4B8NafNqF3qfiHUUt7vUvJUE22nWufNu7hi8arBCrMTICcKCw/kA+HX/BWP/gqh/wAFlv25vAGj/wDBMbwzffs9fsV/BXxfb+IvHvxK+JOkNJpXj6ztZ3S8j1m5CkT/AGyEyxxabbHcjEu7h1DEA/qY/wCCkPwM/aJ/aQ/Y2+NHwe/ZZ+N8v7Pvxm8WeG5Lfwz8QIrcFZQqv5+kyXQIks0v0ZrdryH54g/QqWFfDP8AwRk/4Ip/B7/glb8Lm1jU59N+Jv7V/j2xS5+KnxkurItcQvIPMk0vSfMzLFZq7PksQ8pyz4yRX7eWMl4bK2XUVh+2/Z0F59mJNu0m0bzHuGdu7OM9qnwPyGB9KALGT1J574Nfy3/8HfwB/wCCP2qsRkr+0n4Iwe4/5C1f1Go2eD1Hev5c/wDg79/5Q+6t/wBnJ+CP/ctQB/RR+zn/AMm9/AH/ALIx4a/9MlnXtDf6tv8AfH/oBrxf9nL/AJN7+AP/AGRjwz/6ZLOvaG+43++P/QKAGJ90U6mp90U6gAooooATA9B+VGB6D8qWigBMD0H5UtFFABRRRQAV/Aj/AME1P+VwP9v3/rt8V/8A0ZoVf33V/Aj/AME1P+VwT9v3/rt8WP8A0ZoVAH9L/wDwcKf8oYP+CgP/AGRqH/0/6NXwh/waKf8AKIfwke3/AAuzxtz/ANxY193/APBwp/yhg/4KA/8AZGof/T/o1fCP/Bor/wAofPCR7/8AC6/GvP8A3FzQB/T83U/WkoooAKKKKACiiigAooooAKKKKACiilXqPrQB/I//AMHXCn+yP+CVb45T9uzSznuM3ehV/WPo/wDyCdGPc6Zbk+/7mKv5Qf8Ag61GdG/4JaYHP/Ddmj4/8C9Cr+r7Rv8AkEaL/wBgu3/9ExUAbJ6n60lK3U/WkoAKMA9RmiigD82f+Cm//BLv9nX/AIKnfAy2+Dnx6t9W02/8L30+vfDP4g+GpxbeJvh9qc8ccUtzbbspJHKkUaSwyAq4Rc/d5/kl8LfGf/gsB/wbReLz4F+O3h/XP22P+CbT6/M+keNtPnutUvPBunlvLBtdQIeXRZV2wE2l1m0cyMEJcqq/6AFYuuaDoniTSr7QfEmjaT4i0LVIDb6lo2uadFqumX6ZBCTQShkdc87WB5CntQB5/wDAv4rWXxy+D3wy+MemeHPEvhDTvid4K07xtZeGPGNiuneJ9Ei1G2S4jt72FWYLIokHRiCMHvivWuwPY9Kr21tBaQQ29vDFbwW8SwwQQoI4YEUBVRFHAAAAAHTFfyG+MP8Ag5y+I37Hn7ZvxP8AgR/wUZ/Ye+JPwL+Ccvju50/4R/EzR7GXUNci0lS32e5vkY/ZNQ8xFjkAsZFeMTZkHGAAf19UV8z/ALLn7Y/7Mn7aPgS3+I37Mvxm8EfFjw5NAk9ynhvWEl1zRg4ACahpz7bm2YNuT94gUtGwVmxmvpjBHUYoAKKKKAP4z/2Pj/x1s/tvJk4PwNuwB64g0zNf2YV/Fv8AsfXTf8Rcv7aIwcH4HauCvc7YNLI/pX9pFABRRRQAUUUUAFFFFABRRRQAUUUUAKOo+teH/tKjH7Ov7QhPA/4Un4rOf+4FfV7a3Q14h+1CQP2aP2iCOCPgT4tJI/7F2/oA/Cr/AINSDu/4JC+Biec/H74jf+pNdV/SO3U/Wv5tP+DUNgf+CQPgI5/5r18RCf8Awpbqv6SzyT9aAEooooAKKUgg4IwRzg1yvjrxZZ+AvBfi/wAcalYarqWn+DvC9/4qvrDRbM3+rX0On20lzJBawggyTyLGyxxj7zEDIzQB1NecfDv4xfCn4t/8JOfhZ8SPBfxCHgvxBL4V8VyeDvENr4hj8PajD/rLK7MLsI5lwwKNyNpr+Ij4gftz/wDBab/gvp4l1j4O/sA/DXX/ANif9jAaoNA8XfGrxddTaL4l16CFit202uqqyyF1lYGw0zCloFR5xIpNf0X/APBH/wD4I1fCf/gkz8OPFVj4Y+Ifjv4o/Fn4reTffF3xr4k1aZNB1y7hkeWJ7PSd7RQNH5hi8/JllRE8xmIzQBwX/BUL/gh/8LP+Cpv7RH7NfxS+NPxY8faX8K/gzpV/pXjX4N6LqTW2i+OFec3djJAwBFvIZZZkuJBh3iCKrDBr9dvgh8DPhB+zd8OPDXwk+CHw98NfDf4eeEdOj0zQfDPhnTYtOsbWONQoZ9qhpZGxlpZCzsepr1aigAwASQMZOfWiiigAr+XD/g79/wCUPurf9nJ+CP8A3LV/UfX8uH/B37/yh91b/s5PwR/7lqAP6KP2cv8Ak3v4A/8AZGPDP/pks69nrxj9nL/k3v4A/wDZGPDP/pks69noAKKKKACiiigAooooAKKKKACiiigAr+BH/gmp/wArgn7fv/Xb4sf+jNCr++6v4Ef+Can/ACuCft+/9dvix/6M0KgD+l//AIOFP+UMH/BQH/sjUP8A6f8ARq+Ef+DRX/lD54S/7LX41/8ATsa+7v8Ag4U/5Qwf8FAf+yNQ/wDp/wBGr4S/4NFP+UPvhD/stnjT/wBO5oA/p8ooooAKKKKACiiigAooooAKKKKACiiigD+Sr/g6t/5Av/BLYnoP27dIBOOB/peg4r+r7R/+QTo3/YMt/wD0TFX8oH/B1tgeFf8AgmA3Qr+3VpBB9P8AS9Dr+rzQsnRNCb10m25/7YRUAbbdT9aSlbqfrSUAFFFFABRRRQAV4N+0L+y/+z9+1f4C1H4ZftFfCTwR8W/BOpW7wyaP4x0SLUzas2CJLaYjzIWBUNuiZSSq54GD7zRQB/Pb+xT/AMG737NX7Af7dN1+1z+zv8UvifoXgS48HalosP7P2r6jJrHhix1K/aMR6hHfmVZnW3VXMcU4kAZyM7TgfrN+23+178L/ANhH9mb4j/tP/F97ubwV8N7W1ub/AE7Tpok1zWmubyC1W2sUc4lnxM0oiHLLA/TGa+rK4/x58PvAvxR8Lar4I+JHhDw5468Ia5bPaat4b8VaRBrej3yOjxtvglVl3bXcBwAy7sgg80Afmf8Asdf8Fuv+CaH7b+n2bfCH9pjwdonim4tUubn4efFO7i+HHjbTzJIsUcb293IsMjszYVIJZGOM7eRX6vqySIksTpLFKgkiljYPHKrDKsrDgggg5FfzO/td/wDBqf8A8ExP2jpbjxD8KdA8Xfsk+PZL22vINa+C+ohPDMC24OY49CnzbRtIdpaePDqRkV9df8EZv+CX/wAbf+CY3gP40eAPi5+1d4p/aY0jxl46h1j4Zw6xeX5sPA+kxWyxtA9vczS4upJAWZ4Cke3ACDmgD8Uf2P7lR/wd1/tncfKfgjrK4+lvpB/rX9q9fwAap+1D4T/Yj/4OP/8Agpl+1n4/0LWfEXgj4J/s93uu+JdJ0Bo01a5t7y68N6cTCX43ILppQuDv8rbwWBH9Hf7NH/Bxd/wSX/ac/sqy0L9pnSvhn4k1i/XTLLwp8Y9Km8D6tNOwXgSnzLYJlv8AWPKo/oAfuJRXDeBPib8Ovihp0usfDbx54N+IOjwMsU2seCPFFj4r0lHYEhDcWssihuDw2D+Rx3NABRRRQAUUUUAFFFFABRRRQA1uhrwb9qMkfsy/tKMTwvwI8XYP08O39e+DqPrXz/8AtXcfssftKEcH/hQ3jI/l4dv6APwp/wCDUBif+CP3go56fHb4hEf+FJcmv6UVYBFLHGRX8fH/AAb6fty/sr/sKf8ABEf4Y/ED9qv4vaB8JPDPiP8AaB+JGl+HLvWo57m48QXdvrs80traQwozvIFdDyAo3DLDNY3xz/4O8vg5r2pTfD//AIJ5/slfGn9qv4i3Wn+fo93rXh+50bS7eQS+U5m0WzWe/liBZD5ivEAGBbbxQB/ZJX5u/ty/8FZ/2Ef+CdumzP8AtNfG/QvD3i37P9p074X+HA3in4m6wjMmxodKh5VWWRH3TNGMNwTg49a/YG+NXx8/aC/ZX+F3xT/ac+Ct7+z78bPEOmP/AMJv8Mr9Sh0y4R/knt1MrskEyMjJHIfMXDbgDlR8rftI/wDBE7/gnj+11+1hD+2H+0P8GD8TvijF4csPDM2k+INfuZfh9qcWmRmCya90UEQ3Hlx7BiQkErnjJyAfiL8H/wDg4K/4KCf8FEP2rfhP4T/4J2fsF+I7n9lrTfiFAvxV+JXju2lln17QUuRbagx1aaNbC0VAwlEdsXuFZVRiFLY/seS3uri2X7YojkuIR9rtBIJYUZl+eP0YAkj0IrnPA/gTwZ8O/DeleEvAnhjQ/CXhnRLVLLSdC8PaXDpGk6dFGixokUESqi4VFGQMnAyTXYUAZGgeGNA8KWA0rwtoejeGtLErTjTdA0uDRrAO5y7iGFFTcx5Jxk1t7ZP+ejfnTdjen60bG9P1oAbRRRQAUUUUAFfy4f8AB37/AMofdW/7OT8Ef+5av6j6/lw/4O/f+UPurf8AZyfgj/3LUAf0Ufs5f8m9/AH/ALIx4Z/9MlnXs9eMfs5f8m9/AH/sjHhn/wBMlnXs9ABRRRQAUUUUAFFFFABRRRQAUUUUAFfwI/8ABNT/AJXBP2/f+u3xY/8ARmhV/fdX8CP/AATU/wCVwT9v3/rt8WP/AEZoVAH9L/8AwcKf8oYP+CgP/ZGof/T/AKNXwl/waKf8offCH/ZbPGn/AKdzX3b/AMHCn/KGD/goD/2RqH/0/wCjV8Jf8Gin/KH3wh/2Wzxp/wCnc0Af0+UUUUAFFFFABRRRQAUUUUAFFFFABRRRQB/Iv/wdoytD8OP+CbU0bFJYP21rC5RwcFfLk0hs/mB+Vf1ieEWMngzwrIxyz+HbJmJ6km1gJr+S3/g7iLR/Cz/gnLMpwIf2ybVm9fvaPX9Zvgg7/Avg5hzu8MWB/wDJSCgDqaKKKACiiigAooooAKKKKACiiigAooooA/iB/Z/8G+EviF/wdm/twfDvx14e0fxb4I8Zfs7a/p3ibwxr9hHqej61D9k0MmKeFwVZeWOCOGCntX7CftF/8Gyv/BIj9oRXu4v2dovg1rotHjtdV+CPiC78AwJO5yLiaxjdoJiDztdcE+nWvyT/AGT5A3/B4V+1gAeD8BfEan3xZaJX9s1AH5I/8El/+CQvwl/4JIeBPi/4B+FXxQ8efFHT/ix43tvF8l78QILW2vPDMVrZJaR6dai3xG0WQ8hcqHJcbi2M1uf8FfvHH/BRT4e/ss2fiH/gmT4GTx7+0Pa/EPTZp9MbTNM8QBdFRJ/tyjT71kjmL7o8bXUrs75r9TWYhjg00knqaAP4X9Q/4Lsf8HDP7L+naNaftP8A/BKk+M7l5BHca1YeB9cj1C5AOHdbbRJJ4FOB1b5a/qW/4JhftrfEX9vf9lXRP2gfih+z14q/Zp8VX3ifVPDN78OfGMVzZ6yh0y4Nu119muYo7iKOUjcgkXkHhjg1+iNGM8YzntQB+V//AAUc/wCCxf7GH/BLO7+GunftT6149ttV+KltdX/hjSvh/wCDW8Y34t7RgklxcoJoxGhYsqkk5KN6V+YX/EX5/wAEe++sftJfh8ECT/6XV/RT8W/2cfgP8e4dPg+NXwf+H/xQTSUaLS38Z+GbTXJ9ORzl0hlkQuiseSqkDPavijxJ/wAEV/8AglN4vuZLzxJ+wV+zlq1zI5k8248DRREMepPlsuc0AdN/wTm/4Ki/ss/8FSfAHxC+JP7LF547u/Dfwy8YQeCPE58e+Ev+ERv4724so9Qi8mHzpN8ZilXL5GGBHOK/Pf8AaZ/4Od/+CYf7Jvx9+K37N3xXv/j0PiP8G/F9x4I8Yp4b+Ew1jRRfWu3zfst0b1BLH864fAzzxX7C/syfsY/sufsZeHvE3hP9lj4GeAfgX4c8ZazH4i8UaN8P9K/siw1q+igW2juZ03NudY1Cg56celcZr3/BOv8AYc8U+PvFXxT8S/srfBXXviL441qTxF4u8Y6r4Ktb7XPEN9Nt826upXBLyNtXLHrigD41/wCCY/8AwW5/Zc/4KtfEr4zfD79nDwx8StNi+DPhXTfFmreIPHekRaLBq0Op3k9nFHDAruVdWgLEFjwa9g/4Kyftb/tN/sW/st2fxc/ZJ+AC/tK/GDUPirongCw+Gr2OpX6Pa6st6s98UsiJB5DQxYeQiJfN+c9K+8fh/wDBv4TfCeKaL4Y/DDwH4AFzbra3T+EfC1loM93Gh3JHLJDGruqnkBiQDXoWCfvHPsOlAH8ONl8Xf+DwX9rK88UaDoXwm+HH7Kfh7U1Atb3xRo3h/wAIXOno3bT9YRrq53KO8nPua/e79lj4P/ttfAz/AIJP/GnwB+3/APF22+Nv7RVv8KPiVrPiPxwutzeI7uS1vtK1G5sbJ72SOPzFtUdoUwgG1FxjoP2ir59/a1cL+yl+092Zf2ePGkwbuAnhzUScfpQB/K//AMG/n7C37MH/AAUC/wCCKPwU+Gv7UXw6g+IvhDwN+1V428f6RpM17Jp6/bbfXbhlimkjwz28quqzQZCyBFB6V/Un8Bf2Qv2Zf2WtAsPC37PHwJ+F3wf0XS4ZILOLwP4QtdIu41n2tOpugpnKuwyVMhXjpX4Of8GkbA/8EifCHPI+OPjvvyM6w2K/pzOe/agCDyT3dv5UCBe5J/SpqKAEAwMDtS0UUAFFFFABRRRQAUUUUAFfy4/8HfoP/Dn3Vff9pPwRj/yrGv6i5OEY+1fy6/8AB39x/wAEfr33/aV8E5/79asaAP6Jf2cSG/Z6+ARByB8GPDXP/cEs69orw/8AZeJP7OPwB3HJ/wCFMeGev/YEsq9woAKKKKACiiigAooooAKKKKACiiigAr+BH/gmp/yuCft+/wDXb4sf+jNCr++8ckD1NfwIf8E1P+VwT9v3/rt8WP8A0ZoVAH9L/wDwcKf8oYP+CgP/AGRqH/0/6NXwl/waKf8AKH3wh7/Gzxpj/wAG5r7t/wCDhT/lDB/wUB/7I1D/AOn/AEavhL/g0V/5Q++B/f42eNc/+Dc0Af0+UUrdT9aSgAooooAKKKKACiiigAooooAKKKKAP4/v+Dvib7N8Dv8Agn9c8g2/7X8E5I64WPTm/mBX9Z/wxk874c+ApDz5vg7TZee4axtiK/ko/wCDwUY/Z8/YPl/hh/ayjZvX/VadX9aHwrwfhh8MyON3w90ZvzsLWgDuaKVup+tJQAUUUUAFFFFABRRRQAUUUUAFFFFAH8QP7Ikhf/g8J/ax5zj4I+KUP4WeiCv7fV6D6V/Dr+xyxb/g8J/a6z/D8HfF6j2Ah0MCv7il6D6UALRRRQAUuT6n86SigAooooAKKKKACiiigAr54/a5/wCTVP2n/wDs3Dxz/wCo3qFfQ9fPH7XI/wCMU/2nz2/4Zw8cjP8A3LeoUAfgJ/waQMR/wST8OAHgfHzxoAPTOrtX9Qsn32+tfy8/8GkP/KJTw77fH3xpn/wbtX9Q0n32+tADKKKKACiiigAooooAKKKKACiiigBkn3G+lfy6/wDB39/yh/vP+zlfBP8A6K1ev6ipPuN9K/l1/wCDv7/lD/ef9nK+Cf8A0Vq9AH9Dv7M3H7OPwBxx/wAWZ8Mf+mSyr25fuivEf2Z/+TcfgD/2Rnwx/wCmSyr3CgAooooAKKKKACiiigAooooAKKKKAFXqPrX8CH/BNT/lcE/b9/67fFj/ANGaFX9969R9a/gQ/wCCan/K4J+37/12+LH/AKM0KgD+l/8A4OFP+UMH/BQH/sjUP/p/0avhL/g0V/5Q++B/+y2eNf8A07mvu3/g4U/5Qwf8FAf+yNQ/+n/Rq+Ev+DRX/lD74H/7LZ41/wDTuaAP6fW6n60lK3U/WkoAKKXB9D+VGD6H8qAEopcH0P5UYPofyoASilwfQ/lRg+h/KgBKKXB9D+VGD6H8qAEpyfeFJg+h/KnKDuHB/KgD+PX/AIPDP+Tdf2F/+zrY/wD0Tp9f1mfCj/klvww/7J1ov/pvta/kz/4PDQR+zr+wvkY/4ytj/wDRNhX9Znwo/wCSW/DD/snWi/8ApvtaAO8bqfrSUrdT9aSgAooooAKKKKACiiigAooooAKKKKAP4cv2NiG/4PCf2vMc/wDFn/GP6Q6HX9xtfwy/sWMW/wCDwf8Aa8zz/wAWg8bdvSDQ6/uZXoPpQAtFFFABRS4PofyowfQ/lQAlFLg+h/KjB9D+VACUUuD6H8qMH0P5UAJRRRQAjAkECvnr9r0hf2Sv2nyeMfs4+OOfT/im9Qr6IX7wr5z/AGyDj9kb9qcjjH7N/jjGP+xb1GgD8B/+DR75v+CSmjY5/wCL9+MyP/Bs1f1Bda/l7/4NE+f+CSOik85+O/jEn/waNX9QrdT9aAEooooAKKKKACiiigAooooAKKKKAGSfcb6V/Lr/AMHf3/KH+8/7OV8E/wDorV6/qKk+430r+XX/AIO/v+UP95/2cr4J/wDRWr0Af0Ofs0f8m4fAL/sjHhj/ANMllXuTdT9a8N/Zo/5Nw+AX/ZGPDH/pksq9ybqfrQAlFFFABRRRQAUUUUAFFFFABRRRQAq9R9a/gQ/4Jqf8rgn7fv8A12+LH/ozQq/vvXqPrX8CH/BNT/lcE/b9/wCu3xY/9GaFQB/Tx/wXx8N+JfGX/BID9urwn4N8Oa94u8U678I4bTRvDfhjSLjX9e1Rxrujuy29nAjzSlVUsQik4Br+E3/gnD/wVq/4K4/8Ezv2YdJ/Zk+EH7Avjjxf4O0jxhrHi6y1jxj8BfGk+uCTV51uZoXEdmoZVk3lWGOHxjjJ/wBTCigD/O8/4idP+C43/SN+/wD/ABHjx1/8Yo/4ic/+C43/AEjfv/8AxHjx1/8AGK/0Q6KAP87z/iJz/wCC43/SN+//APEePHX/AMYo/wCInP8A4Ljf9I37/wD8R48df/GK/wBEOigD/O8/4ic/+C43/SN+/wD/ABHjx1/8Yo/4ic/+C43/AEjfv/8AxHjx1/8AGK/0Q6KAP87z/iJz/wCC43/SN+//APEePHX/AMYo/wCInP8A4Ljf9I37/wD8R48df/GK/wBEOigD/O8/4ic/+C43/SN+/wD/ABHjx1/8Yo/4ic/+C43/AEjfv/8AxHjx1/8AGK/0Q6KAP87z/iJz/wCC43/SN+//APEePHX/AMYo/wCInP8A4Ljf9I37/wD8R48df/GK/wBEOigD/KW/4Kaf8FO/+Cr/APwVB+Hfww+HPxf/AGBfiB4R074XfEBPiHpF/wCD/wBn7xmt5d3UYiAhm822YGImFCQuCcDmv0H8P/8AByj/AMFwfDWg6J4c07/gnXrc2m+HtGtdD097j9nzxwlxJDaW8cEZkxasCxEeSQcc9BX+jFRQB/na/wDETT/wXL/6Rwaoff8A4Z/8dc/+S1H/ABE0/wDBcv8A6Rv6p/4j/wCOv/kav9EqigD/ADtf+Imn/guX/wBI39U/8R/8df8AyNR/xE0/8Fyxz/w7f1QY/wCrf/HP/wAjV/olUUAf52//ABE5f8Fyxx/w7h1IY/6t+8df/I1H/ETl/wAFyz/zjh1I+3/DP3jrn/yWr/RIooA/zuf+Im//AILlH/nGzqB9/wDhn7x3z/5K0f8AETf/AMFyv+kbGof+I/eO/wD5Fr/RGooA/wA7n/iJv/4Llf8ASNjUP/EfvHf/AMi0f8RN/wDwXK/6Rsah/wCI/eO//kWv9EaigD/O5/4ib/8AguV/0jZ1Ae//AAz9474/8lad/wARN/8AwXKzz/wTkv1HoP2fvHXH/krX+iJRQB/kx/DL9v7/AIKh/Cv/AIKXfFj/AIKeaJ+wH8Q7n4v/ABY8Oap4Z1Dwld/ALxi3g/SYdTSyjaSAfY/NMirZgZZiG3jKnbz+qA/4OaP+C5w5/wCHcepN7H9nrx1g/wDkvX+iZRQB/ncD/g5v/wCC5o4/4dtXx9z+z147z/6TUf8AETh/wXN/6RtXv/iPXjv/AORq/wBEeigD/O4/4icP+C5v/SNq9/8AEevHf/yNR/xE4f8ABc3/AKRtXv8A4j147/8Akav9EeigD/O4/wCInD/gub/0javf/EevHf8A8jUf8ROH/Bc3/pG1e/8AiPXjv/5Gr/RHooA/zuP+InD/AILm/wDSNq9/8R68d/8AyNR/xE4f8Fzf+kbV7/4j147/APkav9EeigD/ADt/+Im7/guZ/wBI2bz/AMR58d//ACNR/wARN3/Bcz/pGzef+I8+O/8A5Gr/AESKKAP87f8A4ibv+C5n/SNm8/8AEefHf/yNXG/Ef/g41/4LZ/E/4c/ET4aeIP8Agm9rVvovxG8Baz4B1S40/wCAHjuG6tbfWNOuLCWaP/RsF0E+5c8cEd6/0eqKAP8AK9/4Jq/8FW/+Cun/AATM/Zug/Zu+C/8AwT88a+KvC9v4w1Dxa2u+NPgH4yfWZJdRlE00J8q1Rdqn7p5PJzX6EN/wc1f8FxMNn/gmpcjr/wA0F8dHH/kvX+h1SYHoPyoA/wA7pv8Ag5q/4Lh7j/xrVuP/AAwvjr/5Hpv/ABE0/wDBcP8A6RrXH/hhPHX/AMj1/ojbE/ur/wB8il2qOigfhQB/ncf8RNP/AAXD/wCka1x/4YTx1/8AI9H/ABE0/wDBcP8A6RrXH/hhPHX/AMj1/oj4HoPypaAP87f/AIiav+C4Y5/4drXAx/1QTx1/8j07/iJ0/wCC4I4/4dr3Ax/1QTx3/wDI9f6I1Jgeg/KgD/O6/wCInX/guD/0jXuP/DCeO/8A5Go/4idf+C4P/SNe4/8ADCeO/wD5Gr/RFwPQflRgeg/KgD/O6/4idf8AguD/ANI17j/wwnjv/wCRqP8AiJ1/4Lg/9I17j/wwnjv/AORq/wBEXA9B+VGB6D8qAP8AO6/4idP+C4P/AEjXuP8Awwfjr/5Gr4B/4KU/8FZ/+Ctn/BTr9mmf9mH4xf8ABP3xr4S8IT+O9K8fHWPBfwI8ax60lzpIuhDEPNtSmx/tTbsjPyjGK/1Q8D0H5UYHoPyoA/zjfBn/AAck/wDBbXwH4O8JeB9N/wCCc+sPpvg/wvp/hfTJLv4C+OhcywafZw2kbybbdRuYQ7jgfxe1dIP+DnL/AILkdB/wTlvSOw/4UL485/8AIFf6J9FAH+dp/wAROH/Bcg/843rs+/8AwoLx5z/5Ao/4icP+C5H/AEjdu/8AwwXjz/4xX+iXRQB/naf8ROH/AAXI/wCkbt3/AOGC8ef/ABij/iJw/wCC5H/SN27/APDBePP/AIxX+iXRQB/naf8AETh/wXI/6Ru3f/hgvHn/AMYo/wCInD/guR/0jdu//DBePP8A4xX+iXRQB/naf8ROH/Bcj/pG7d/+GC8ef/GKP+InD/guR/0jdu//AAwXjz/4xX+iXRQB/naf8ROH/Bcj/pG7d/8AhgvHn/xij/iJw/4Lkf8ASN27/wDDBePP/jFf6JdFAH+doP8Ag5w/4Lj9/wDgm7d49vgF48P/ALQrn/8Ag3vuv2rvjp/wcAfFn9sX9oT9nP4lfB67+OHwx+IPjLxFcax8Mdf8J+CdM1DUm0ciztrq+t0X5vLbYjOWbacA4r/RrooA/9mFlDmZAAAAAFNUvLlfbdEnMZV/fHZpz9Q=;" vertex="1" parent="1">
          <mxGeometry x="80" y="80" width="319.12" height="310" as="geometry" />
        </mxCell>
        <mxCell id="ZJt47STfajRIuBfbN5eY-5" value="" style="endArrow=classic;html=1;rounded=0;strokeWidth=2;" edge="1" parent="1">
          <mxGeometry width="50" height="50" relative="1" as="geometry">
            <mxPoint x="367" y="234" as="sourcePoint" />
            <mxPoint x="520" y="234" as="targetPoint" />
          </mxGeometry>
        </mxCell>
        <mxCell id="ZJt47STfajRIuBfbN5eY-6" value="&lt;font style=&quot;font-size: 18px;&quot;&gt;$$dist(P_{i,j},o)$$&lt;/font&gt;" style="text;strokeColor=none;align=center;fillColor=none;html=1;verticalAlign=middle;whiteSpace=wrap;rounded=0;" vertex="1" parent="1">
          <mxGeometry x="430" y="200" width="60" height="30" as="geometry" />
        </mxCell>
        <mxCell id="ZJt47STfajRIuBfbN5eY-7" value="&lt;font style=&quot;font-size: 18px;&quot;&gt;$$\text{core-dist}(P_{i,j},o)=$$&lt;/font&gt;" style="text;strokeColor=none;align=center;fillColor=none;html=1;verticalAlign=middle;whiteSpace=wrap;rounded=0;" vertex="1" parent="1">
          <mxGeometry x="501" y="265" width="60" height="30" as="geometry" />
        </mxCell>
        <mxCell id="ZJt47STfajRIuBfbN5eY-9" value="&lt;span style=&quot;color: rgb(0, 0, 0); font-family: Helvetica; font-size: 18px; font-style: normal; font-variant-ligatures: normal; font-variant-caps: normal; font-weight: 400; letter-spacing: normal; orphans: 2; text-align: center; text-indent: 0px; text-transform: none; widows: 2; word-spacing: 0px; -webkit-text-stroke-width: 0px; white-space: normal; background-color: rgb(236, 236, 236); text-decoration-thickness: initial; text-decoration-style: initial; text-decoration-color: initial; float: none; display: inline !important;&quot;&gt;$$max((\text{core-dist}(o),dist(P_{i,j},o)))$$&lt;/span&gt;" style="text;whiteSpace=wrap;html=1;" vertex="1" parent="1">
          <mxGeometry x="414" y="293" width="290" height="30" as="geometry" />
        </mxCell>
        <mxCell id="ZJt47STfajRIuBfbN5eY-10" value="" style="ellipse;whiteSpace=wrap;html=1;aspect=fixed;fillColor=#000000;" vertex="1" parent="1">
          <mxGeometry x="524" y="229" width="10" height="10" as="geometry" />
        </mxCell>
        <mxCell id="ZJt47STfajRIuBfbN5eY-11" value="&lt;span style=&quot;color: rgb(0, 0, 0); font-family: Helvetica; font-style: normal; font-variant-ligatures: normal; font-variant-caps: normal; font-weight: 400; letter-spacing: normal; orphans: 2; text-align: center; text-indent: 0px; text-transform: none; widows: 2; word-spacing: 0px; -webkit-text-stroke-width: 0px; white-space: normal; background-color: rgb(236, 236, 236); text-decoration-thickness: initial; text-decoration-style: initial; text-decoration-color: initial; float: none; display: inline !important;&quot;&gt;&lt;font style=&quot;font-size: 22px;&quot;&gt;o&lt;/font&gt;&lt;/span&gt;" style="text;whiteSpace=wrap;html=1;" vertex="1" parent="1">
          <mxGeometry x="521" y="232" width="10" height="20" as="geometry" />
        </mxCell>
        <mxCell id="ZJt47STfajRIuBfbN5eY-15" value="&lt;span style=&quot;color: rgb(0, 0, 0); font-family: Helvetica; font-size: 18px; font-style: normal; font-variant-ligatures: normal; font-variant-caps: normal; font-weight: 400; letter-spacing: normal; orphans: 2; text-align: center; text-indent: 0px; text-transform: none; widows: 2; word-spacing: 0px; -webkit-text-stroke-width: 0px; white-space: normal; background-color: rgb(236, 236, 236); text-decoration-thickness: initial; text-decoration-style: initial; text-decoration-color: initial; display: inline !important; float: none;&quot;&gt;core-dist&lt;/span&gt;" style="text;whiteSpace=wrap;html=1;" vertex="1" parent="1">
          <mxGeometry x="550" y="350" width="100" height="50" as="geometry" />
        </mxCell>
      </root>
    </mxGraphModel>
  </diagram>
</mxfile>
